<svg width="54" height="55" viewBox="0 0 54 55" fill="none" xmlns="http://www.w3.org/2000/svg">
<path d="M44.6471 20.7351C44.6468 15.1993 43.9493 10.2328 42.9552 6.63931C42.4578 4.84128 41.888 3.39361 41.2982 2.39155C41.0032 1.89038 40.7066 1.50643 40.4163 1.24588C40.1256 0.984976 39.8513 0.856478 39.5982 0.843944C39.4716 0.837678 39.3844 0.862468 39.3221 0.903698C39.2599 0.944875 39.207 1.01263 39.1678 1.12059C39.0862 1.34488 39.0769 1.70427 39.1368 2.20804C39.238 3.05845 39.5248 4.24236 39.8786 5.70237C39.9412 5.96052 40.0058 6.22731 40.0719 6.50241C40.9486 10.1519 42.0632 15.2105 41.7989 20.7465C41.5344 26.2851 39.7568 31.2371 38.4441 34.8104C38.4119 34.8981 38.38 34.985 38.3484 35.071C37.7335 36.7433 37.2406 38.0841 37.0698 39.0293C36.9795 39.529 36.9858 39.8867 37.0863 40.1179C37.1345 40.229 37.2044 40.3107 37.2993 40.3682C37.3961 40.4268 37.5277 40.4655 37.7059 40.4743C38.412 40.5093 39.1722 40.0259 39.9349 39.041C40.6928 38.0625 41.4266 36.6216 42.0827 34.8229C43.394 31.2282 44.3842 26.2349 44.6471 20.7351Z" fill="url(#paint0_linear_414_6704)" stroke="url(#paint1_linear_414_6704)" stroke-width="0.3"/>
<path d="M36.9831 6.14249L37.4079 6.91925L37.6299 7.18474L38.1947 7.72555L38.4264 7.86813L38.8982 8.04671L39.1942 8.12676L39.6137 8.21239L39.7344 8.22223L40.4952 8.17696" stroke="#303030" stroke-width="0.3"/>
<path d="M33.9715 14.4512L34.7743 15.5897L35.702 16.6068L36.9026 17.6471L37.7837 18.2582L38.9377 18.8927L39.6511 19.2215L40.0761 19.3918L40.9261 19.7323L41.7185 19.9678" stroke="#303030" stroke-width="0.3"/>
<path d="M41.7464 16.8855L41.0518 16.6736L40.1477 16.3287L39.3687 15.7827L39.1054 15.5598L38.2607 14.7333L38.1251 14.4813L37.8539 13.9772L37.6561 13.4672" stroke="#303030" stroke-width="0.3"/>
<path d="M37.468 4.75492C37.7414 5.31861 37.4517 6.03688 36.9281 6.22642C36.4107 6.4137 35.7731 6.03871 35.6356 5.41863C35.538 4.97799 35.4909 4.54185 35.5367 4.17402C35.5809 3.81974 35.7082 3.54723 35.9406 3.38203C36.2322 3.34018 36.5044 3.46193 36.7624 3.70826C37.0307 3.96449 37.2677 4.34184 37.468 4.75492Z" fill="#FFFDCD" stroke="black" stroke-width="0.3"/>
<path d="M34.7328 12.0812C35.0891 12.5947 35.3094 13.3931 35.3071 14.1372C35.3049 14.8902 35.0774 15.5215 34.6149 15.7775C34.1443 16.0381 33.458 15.9307 32.802 15.5753C32.1513 15.2227 31.5837 14.653 31.3586 14.0763C31.0494 13.2843 30.9172 12.6493 30.9738 12.1102C31.0288 11.5871 31.2635 11.1384 31.723 10.7131C32.3424 10.5005 32.847 10.5043 33.3101 10.7137C33.7874 10.9296 34.2414 11.3729 34.7328 12.0812Z" fill="#FEFFCD" stroke="black" stroke-width="0.3"/>
<path d="M38.3783 11.5824C38.5434 11.9333 38.5979 12.4722 38.5179 12.9575C38.4782 13.1984 38.4067 13.417 38.3065 13.587C38.2064 13.7568 38.0831 13.8698 37.941 13.9193C37.6397 14.0244 37.2806 13.9113 36.9584 13.6443C36.6389 13.3795 36.3882 12.9877 36.3085 12.6074C36.1966 12.0737 36.1596 11.6248 36.2309 11.2593C36.2988 10.9111 36.4652 10.6358 36.7734 10.4299C37.1721 10.3673 37.4494 10.4225 37.6806 10.5881C37.9268 10.7644 38.1415 11.0796 38.3783 11.5824Z" fill="#FFEECD" stroke="black" stroke-width="0.3"/>
<rect x="0.15" y="11.6422" width="26.3364" height="38.9068" rx="2.85" fill="white" stroke="black" stroke-width="0.3"/>
<rect x="9.59434" y="6.46641" width="7.44877" height="5.37142" fill="white" stroke="black" stroke-width="0.3"/>
<rect x="11.0475" y="2.51914" width="4.54298" height="4.1385" fill="white" stroke="black" stroke-width="0.3"/>
<path d="M4.05206 14.1129H22.597C23.6543 14.1129 24.4966 14.9975 24.4447 16.0536L23.0672 44.1095C23.0188 45.0947 22.2059 45.8688 21.2194 45.8688H5.64156C4.66049 45.8688 3.85002 45.1029 3.79453 44.1234L2.20503 16.0675C2.14491 15.0064 2.98921 14.1129 4.05206 14.1129Z" fill="white" stroke="black" stroke-width="0.3"/>
<mask id="path-12-inside-1_414_6704" fill="white">
<path fill-rule="evenodd" clip-rule="evenodd" d="M12.4877 13.957C12.4714 14.8509 12.4629 15.7582 12.4629 16.6768C12.4629 39.2392 14.7808 43.5544 16.346 42.568C16.8655 42.2407 16.7991 42.022 16.4786 40.9654C15.8333 38.8384 14.1579 33.316 14.1579 16.6768C14.1579 15.7582 14.1745 14.8509 14.2051 13.957H12.4877Z"/>
</mask>
<path fill-rule="evenodd" clip-rule="evenodd" d="M12.4877 13.957C12.4714 14.8509 12.4629 15.7582 12.4629 16.6768C12.4629 39.2392 14.7808 43.5544 16.346 42.568C16.8655 42.2407 16.7991 42.022 16.4786 40.9654C15.8333 38.8384 14.1579 33.316 14.1579 16.6768C14.1579 15.7582 14.1745 14.8509 14.2051 13.957H12.4877Z" fill="white"/>
<path d="M12.4877 13.957V13.657H12.1931L12.1877 13.9516L12.4877 13.957ZM16.346 42.568L16.1861 42.3142L16.1861 42.3142L16.346 42.568ZM16.4786 40.9654L16.1915 41.0525L16.1915 41.0525L16.4786 40.9654ZM14.2051 13.957L14.5049 13.9673L14.5155 13.657H14.2051V13.957ZM12.7629 16.6768C12.7629 15.7601 12.7713 14.8545 12.7876 13.9625L12.1877 13.9516C12.1714 14.8472 12.1629 15.7564 12.1629 16.6768H12.7629ZM16.1861 42.3142C16.0509 42.3994 15.9346 42.4144 15.8205 42.3782C15.6935 42.3379 15.5224 42.219 15.3238 41.9382C14.9241 41.3731 14.4973 40.2727 14.1113 38.3929C13.3426 34.6479 12.7629 27.9534 12.7629 16.6768H12.1629C12.1629 27.9626 12.7421 34.7068 13.5236 38.5135C13.9128 40.4095 14.3589 41.6131 14.834 42.2847C15.0728 42.6223 15.3396 42.855 15.639 42.9501C15.9512 43.0492 16.2498 42.9833 16.5059 42.8219L16.1861 42.3142ZM16.1915 41.0525C16.2725 41.3194 16.3341 41.5227 16.375 41.6877C16.4164 41.8547 16.4301 41.9584 16.4275 42.0293C16.4253 42.0889 16.4121 42.1198 16.3903 42.149C16.3615 42.1877 16.3051 42.2392 16.1861 42.3142L16.5059 42.8219C16.6466 42.7332 16.7768 42.6346 16.8716 42.5073C16.9735 42.3704 17.021 42.2191 17.0271 42.0511C17.0328 41.8943 17.0023 41.7248 16.9573 41.5433C16.9119 41.3599 16.845 41.1397 16.7657 40.8783L16.1915 41.0525ZM13.8579 16.6768C13.8579 33.3396 15.5361 38.8921 16.1915 41.0525L16.7657 40.8783C16.1305 38.7847 14.4579 33.2925 14.4579 16.6768H13.8579ZM13.9052 13.9468C13.8746 14.8438 13.8579 15.7546 13.8579 16.6768H14.4579C14.4579 15.7618 14.4745 14.8579 14.5049 13.9673L13.9052 13.9468ZM14.2051 13.657H12.4877V14.257H14.2051V13.657Z" fill="black" mask="url(#path-12-inside-1_414_6704)"/>
<path d="M3.12443 12.8375H23.6645C24.7207 12.8375 25.5626 13.7203 25.5124 14.7753L23.9911 46.7756C23.9443 47.762 23.1308 48.5377 22.1432 48.5377H4.87976C3.8974 48.5377 3.08635 47.7699 3.03254 46.789L1.27721 14.7888C1.21907 13.7289 2.06289 12.8375 3.12443 12.8375Z" fill="url(#paint2_linear_414_6704)" stroke="black" stroke-width="0.3"/>
<mask id="path-15-inside-2_414_6704" fill="white">
<path fill-rule="evenodd" clip-rule="evenodd" d="M12.4867 12.832C12.4704 13.7259 12.4619 14.6332 12.4619 15.5518C12.4619 38.1142 14.7798 42.4294 16.345 41.443C16.8645 41.1157 16.7982 40.897 16.4776 39.8404C15.8323 37.7134 14.157 32.191 14.157 15.5518C14.157 14.6332 14.1735 13.7259 14.2041 12.832H12.4867Z"/>
</mask>
<path fill-rule="evenodd" clip-rule="evenodd" d="M12.4867 12.832C12.4704 13.7259 12.4619 14.6332 12.4619 15.5518C12.4619 38.1142 14.7798 42.4294 16.345 41.443C16.8645 41.1157 16.7982 40.897 16.4776 39.8404C15.8323 37.7134 14.157 32.191 14.157 15.5518C14.157 14.6332 14.1735 13.7259 14.2041 12.832H12.4867Z" fill="white"/>
<path d="M12.4867 12.832V12.532H12.1921L12.1868 12.8266L12.4867 12.832ZM16.345 41.443L16.1851 41.1892L16.1851 41.1892L16.345 41.443ZM16.4776 39.8404L16.1905 39.9275L16.1905 39.9275L16.4776 39.8404ZM14.2041 12.832L14.5039 12.8423L14.5145 12.532H14.2041V12.832ZM12.7619 15.5518C12.7619 14.6351 12.7704 13.7295 12.7867 12.8375L12.1868 12.8266C12.1704 13.7222 12.1619 14.6314 12.1619 15.5518H12.7619ZM16.1851 41.1892C16.0499 41.2744 15.9336 41.2894 15.8195 41.2532C15.6925 41.2129 15.5215 41.094 15.3229 40.8132C14.9231 40.2481 14.4963 39.1477 14.1104 37.2679C13.3416 33.5229 12.7619 26.8284 12.7619 15.5518H12.1619C12.1619 26.8376 12.7412 33.5818 13.5226 37.3885C13.9118 39.2845 14.358 40.4881 14.833 41.1597C15.0718 41.4973 15.3386 41.73 15.638 41.8251C15.9503 41.9242 16.2488 41.8583 16.505 41.6969L16.1851 41.1892ZM16.1905 39.9275C16.2715 40.1944 16.3331 40.3977 16.374 40.5627C16.4154 40.7297 16.4291 40.8334 16.4265 40.9043C16.4244 40.9639 16.4111 40.9948 16.3893 41.024C16.3605 41.0627 16.3041 41.1142 16.1851 41.1892L16.505 41.6969C16.6457 41.6082 16.7758 41.5096 16.8706 41.3823C16.9725 41.2454 17.02 41.0941 17.0261 40.9261C17.0318 40.7693 17.0013 40.5998 16.9564 40.4183C16.9109 40.2349 16.844 40.0147 16.7647 39.7533L16.1905 39.9275ZM13.857 15.5518C13.857 32.2146 15.5351 37.7671 16.1905 39.9275L16.7647 39.7533C16.1296 37.6597 14.457 32.1675 14.457 15.5518H13.857ZM13.9043 12.8218C13.8736 13.7188 13.857 14.6296 13.857 15.5518H14.457C14.457 14.6368 14.4735 13.7329 14.5039 12.8423L13.9043 12.8218ZM14.2041 12.532H12.4867V13.132H14.2041V12.532Z" fill="black" mask="url(#path-15-inside-2_414_6704)"/>
<mask id="path-17-inside-3_414_6704" fill="white">
<path fill-rule="evenodd" clip-rule="evenodd" d="M35.5945 37.1025L35.7228 37.1158L35.6364 36.9704L35.7405 36.642L35.4196 34.4399L35.2838 33.2914L35.1217 31.9924L35.0653 31.2956L34.9946 30.6261L34.922 29.5578L34.7868 28.2071L34.7021 27.162L34.6306 26.293L34.265 24.7803L33.7922 23.6744L33.2185 23.0515L32.7857 22.8053L32.1281 22.6802L31.4636 22.7587L30.7947 22.966L30.2303 23.3461L29.8873 23.7004L29.5402 24.1768L29.305 24.6054L29.0492 25.2398L28.8467 25.7048L27.8846 25.5499L27.3173 25.4319L26.8636 25.4319L26.5232 25.4319L25.956 25.4319L25.3092 25.7039L24.7597 26.3761L24.6251 26.7301L24.4494 27.7847L24.4441 28.6598L24.6251 30.0235L25.3094 31.3568L26.6471 33.1031L27.4412 33.94L28.6787 34.7554L29.8236 35.3843L31.0558 35.9356L31.9791 36.2896L33.3404 36.7613L34.5883 36.9977L35.0058 37.0412L35.3982 37.7218L35.5945 37.1025Z"/>
</mask>
<path fill-rule="evenodd" clip-rule="evenodd" d="M35.5945 37.1025L35.7228 37.1158L35.6364 36.9704L35.7405 36.642L35.4196 34.4399L35.2838 33.2914L35.1217 31.9924L35.0653 31.2956L34.9946 30.6261L34.922 29.5578L34.7868 28.2071L34.7021 27.162L34.6306 26.293L34.265 24.7803L33.7922 23.6744L33.2185 23.0515L32.7857 22.8053L32.1281 22.6802L31.4636 22.7587L30.7947 22.966L30.2303 23.3461L29.8873 23.7004L29.5402 24.1768L29.305 24.6054L29.0492 25.2398L28.8467 25.7048L27.8846 25.5499L27.3173 25.4319L26.8636 25.4319L26.5232 25.4319L25.956 25.4319L25.3092 25.7039L24.7597 26.3761L24.6251 26.7301L24.4494 27.7847L24.4441 28.6598L24.6251 30.0235L25.3094 31.3568L26.6471 33.1031L27.4412 33.94L28.6787 34.7554L29.8236 35.3843L31.0558 35.9356L31.9791 36.2896L33.3404 36.7613L34.5883 36.9977L35.0058 37.0412L35.3982 37.7218L35.5945 37.1025Z" fill="url(#paint3_linear_414_6704)"/>
<path d="M35.7228 37.1158L35.6983 37.4183L36.2826 37.4792L35.9745 36.9608L35.7228 37.1158ZM35.5945 37.1025L35.619 36.7999L35.3853 36.7756L35.313 37.0036L35.5945 37.1025ZM35.6364 36.9704L35.3549 36.8715L35.3127 37.0045L35.3846 37.1255L35.6364 36.9704ZM35.7405 36.642L36.0219 36.7409L36.0434 36.6733L36.033 36.6024L35.7405 36.642ZM35.4196 34.4399L35.1258 34.4711L35.127 34.4795L35.4196 34.4399ZM35.2838 33.2914L35.5775 33.2602L35.5773 33.2581L35.2838 33.2914ZM35.1217 31.9924L34.8265 32.0122L34.8282 32.0257L35.1217 31.9924ZM35.0653 31.2956L35.3602 31.2759L35.3594 31.2683L35.0653 31.2956ZM34.9946 30.6261L34.6992 30.6418L34.7005 30.6534L34.9946 30.6261ZM34.922 29.5578L35.2173 29.5421L35.2163 29.5322L34.922 29.5578ZM34.7868 28.2071L34.4919 28.2268L34.4925 28.2327L34.7868 28.2071ZM34.7021 27.162L34.997 27.1423L34.9969 27.1419L34.7021 27.162ZM34.6306 26.293L34.9254 26.2728L34.9234 26.2485L34.9177 26.2247L34.6306 26.293ZM34.265 24.7803L34.5521 24.7121L34.5459 24.6865L34.5355 24.6623L34.265 24.7803ZM33.7922 23.6744L34.0627 23.5564L34.0416 23.5069L34.0053 23.4675L33.7922 23.6744ZM33.2185 23.0515L33.4316 22.8446L33.3993 22.8095L33.3581 22.7861L33.2185 23.0515ZM32.7857 22.8053L32.9253 22.5399L32.8824 22.5155L32.8344 22.5063L32.7857 22.8053ZM32.1281 22.6802L32.1768 22.3812L32.133 22.3729L32.089 22.3781L32.1281 22.6802ZM31.4636 22.7587L31.4245 22.4566L31.3985 22.4597L31.3735 22.4674L31.4636 22.7587ZM30.7947 22.966L30.7046 22.6748L30.6644 22.6872L30.6295 22.7108L30.7947 22.966ZM30.2303 23.3461L30.065 23.0908L30.0399 23.1078L30.0187 23.1297L30.2303 23.3461ZM29.8873 23.7004L29.6757 23.484L29.6615 23.4987L29.6494 23.5153L29.8873 23.7004ZM29.5402 24.1768L29.3023 23.9917L29.2911 24.007L29.2819 24.0238L29.5402 24.1768ZM29.305 24.6054L29.0467 24.4525L29.0381 24.4681L29.0314 24.4847L29.305 24.6054ZM29.0492 25.2398L29.3198 25.3683L29.3229 25.3606L29.0492 25.2398ZM28.8467 25.7048L28.8062 26.0052L29.0268 26.0407L29.1172 25.8332L28.8467 25.7048ZM27.8846 25.5499L27.8309 25.8482L27.844 25.8503L27.8846 25.5499ZM27.3173 25.4319L27.371 25.1339L27.3417 25.1279L27.312 25.1279L27.3173 25.4319ZM26.8636 25.4319L26.8582 25.1279L26.8582 25.1279L26.8636 25.4319ZM26.5232 25.4319L26.5178 25.1279H26.5178L26.5232 25.4319ZM25.956 25.4319L25.9506 25.1279L25.8928 25.1279L25.8397 25.1502L25.956 25.4319ZM25.3092 25.7039L25.1929 25.4222L25.127 25.4499L25.0813 25.5059L25.3092 25.7039ZM24.7597 26.3761L24.5317 26.178L24.5012 26.2154L24.4838 26.261L24.7597 26.3761ZM24.6251 26.7301L24.3492 26.615L24.3384 26.6434L24.3334 26.6735L24.6251 26.7301ZM24.4494 27.7847L24.1578 27.7282L24.1537 27.7525L24.1536 27.7773L24.4494 27.7847ZM24.4441 28.6598L24.1482 28.6523L24.1481 28.674L24.1509 28.6955L24.4441 28.6598ZM24.6251 30.0235L24.3319 30.0592L24.3391 30.1131L24.3639 30.1615L24.6251 30.0235ZM25.3094 31.3568L25.0483 31.4948L25.0612 31.5199L25.0782 31.5422L25.3094 31.3568ZM26.6471 33.1031L26.4159 33.2885L26.4259 33.3015L26.4371 33.3134L26.6471 33.1031ZM27.4412 33.94L27.2312 34.1502L27.2555 34.1758L27.2848 34.1951L27.4412 33.94ZM28.6787 34.7554L28.5223 35.0105L28.5324 35.0172L28.543 35.023L28.6787 34.7554ZM29.8236 35.3843L29.6878 35.6519L29.6986 35.6577L29.7097 35.6627L29.8236 35.3843ZM31.0558 35.9356L30.9419 36.214L30.9493 36.2173L30.9568 36.2202L31.0558 35.9356ZM31.9791 36.2896L31.8801 36.5744L31.8892 36.5776L31.9791 36.2896ZM33.3404 36.7613L33.2505 37.0492L33.2709 37.0563L33.2919 37.0603L33.3404 36.7613ZM34.5883 36.9977L34.5398 37.2967L34.5518 37.299L34.5638 37.3002L34.5883 36.9977ZM35.0058 37.0412L35.2597 36.8897L35.1817 36.7544L35.0303 36.7387L35.0058 37.0412ZM35.3982 37.7218L35.1444 37.8732L35.4791 38.4537L35.6797 37.8207L35.3982 37.7218ZM35.7473 36.8133L35.619 36.7999L35.57 37.405L35.6983 37.4183L35.7473 36.8133ZM35.3846 37.1255L35.471 37.2708L35.9745 36.9608L35.8881 36.8154L35.3846 37.1255ZM35.9178 37.0694L36.0219 36.7409L35.459 36.5431L35.3549 36.8715L35.9178 37.0694ZM36.033 36.6024L35.7122 34.4002L35.127 34.4795L35.4479 36.6817L36.033 36.6024ZM35.7133 34.4086L35.5775 33.2602L34.9901 33.3227L35.1259 34.4711L35.7133 34.4086ZM35.5773 33.2581L35.4151 31.9592L34.8282 32.0257L34.9904 33.3247L35.5773 33.2581ZM35.4165 31.9727L35.3601 31.2759L34.7704 31.3153L34.8268 32.0122L35.4165 31.9727ZM35.3594 31.2683L35.2888 30.5988L34.7005 30.6534L34.7711 31.3229L35.3594 31.2683ZM35.2898 30.6104L35.2172 29.5421L34.6269 29.5735L34.6995 30.6418L35.2898 30.6104ZM35.2163 29.5322L35.0811 28.1814L34.4925 28.2327L34.6277 29.5835L35.2163 29.5322ZM35.0817 28.1873L34.997 27.1423L34.4073 27.1818L34.492 28.2268L35.0817 28.1873ZM34.9969 27.1419L34.9254 26.2728L34.3358 26.3131L34.4073 27.1822L34.9969 27.1419ZM34.9177 26.2247L34.5521 24.7121L33.9779 24.8485L34.3435 26.3612L34.9177 26.2247ZM34.5355 24.6623L34.0627 23.5564L33.5217 23.7925L33.9945 24.8984L34.5355 24.6623ZM34.0053 23.4675L33.4316 22.8446L33.0054 23.2584L33.5791 23.8813L34.0053 23.4675ZM33.3581 22.7861L32.9253 22.5399L32.646 23.0707L33.0789 23.3169L33.3581 22.7861ZM32.8344 22.5063L32.1768 22.3812L32.0794 22.9791L32.7369 23.1043L32.8344 22.5063ZM32.089 22.3781L31.4245 22.4566L31.5027 23.0608L32.1672 22.9823L32.089 22.3781ZM31.3735 22.4674L30.7046 22.6748L30.8849 23.2573L31.5538 23.0499L31.3735 22.4674ZM30.6295 22.7108L30.065 23.0908L30.3956 23.6014L30.96 23.2213L30.6295 22.7108ZM30.0187 23.1297L29.6757 23.484L30.099 23.9169L30.4419 23.5625L30.0187 23.1297ZM29.6494 23.5153L29.3023 23.9917L29.7782 24.3619L30.1253 23.8855L29.6494 23.5153ZM29.2819 24.0238L29.0467 24.4525L29.5634 24.7584L29.7986 24.3298L29.2819 24.0238ZM29.0314 24.4847L28.7756 25.1191L29.3229 25.3606L29.5787 24.7262L29.0314 24.4847ZM28.7788 25.1114L28.5763 25.5764L29.1172 25.8332L29.3197 25.3682L28.7788 25.1114ZM27.844 25.8503L28.8062 26.0052L28.8873 25.4044L27.9251 25.2496L27.844 25.8503ZM27.2637 25.7299L27.831 25.8479L27.9382 25.252L27.371 25.1339L27.2637 25.7299ZM26.869 25.736L27.3227 25.736L27.312 25.1279L26.8582 25.1279L26.869 25.736ZM26.5286 25.736L26.869 25.736L26.8582 25.1279L26.5178 25.1279L26.5286 25.736ZM25.9614 25.736L26.5286 25.736L26.5178 25.1279L25.9506 25.1279L25.9614 25.736ZM25.4255 25.9857L26.0723 25.7137L25.8397 25.1502L25.1929 25.4222L25.4255 25.9857ZM24.9876 26.5742L25.5372 25.902L25.0813 25.5059L24.5317 26.178L24.9876 26.5742ZM24.9009 26.8452L25.0355 26.4912L24.4838 26.261L24.3492 26.615L24.9009 26.8452ZM24.7411 27.8413L24.9167 26.7867L24.3334 26.6735L24.1578 27.7282L24.7411 27.8413ZM24.7399 28.6673L24.7453 27.7922L24.1536 27.7773L24.1482 28.6523L24.7399 28.6673ZM24.9182 29.9878L24.7372 28.6241L24.1509 28.6955L24.3319 30.0592L24.9182 29.9878ZM25.5706 31.2188L24.8862 29.8855L24.3639 30.1615L25.0483 31.4948L25.5706 31.2188ZM26.8783 32.9177L25.5406 31.1714L25.0782 31.5422L26.4159 33.2885L26.8783 32.9177ZM27.6512 33.7297L26.857 32.8928L26.4371 33.3134L27.2312 34.1502L27.6512 33.7297ZM28.8352 34.5003L27.5977 33.6848L27.2848 34.1951L28.5223 35.0105L28.8352 34.5003ZM29.9593 35.1167L28.8144 34.4878L28.543 35.023L29.6878 35.6519L29.9593 35.1167ZM31.1697 35.6571L29.9375 35.1058L29.7097 35.6627L30.9419 36.214L31.1697 35.6571ZM32.078 36.0049L31.1547 35.6509L30.9568 36.2202L31.8801 36.5743L32.078 36.0049ZM33.4303 36.4733L32.069 36.0016L31.8892 36.5776L33.2505 37.0492L33.4303 36.4733ZM34.6368 36.6987L33.3889 36.4623L33.2919 37.0603L34.5398 37.2967L34.6368 36.6987ZM35.0303 36.7387L34.6128 36.6952L34.5638 37.3002L34.9813 37.3437L35.0303 36.7387ZM34.752 37.1926L35.1444 37.8732L35.6521 37.5703L35.2597 36.8897L34.752 37.1926ZM35.6797 37.8207L35.876 37.2014L35.313 37.0036L35.1167 37.6229L35.6797 37.8207Z" fill="#706DFF" mask="url(#path-17-inside-3_414_6704)"/>
<mask id="path-19-inside-4_414_6704" fill="white">
<path fill-rule="evenodd" clip-rule="evenodd" d="M26.8058 42.1544L26.8088 42.4548L26.9348 44.5053L27.0501 45.471L27.2711 46.4378L27.3547 46.5974L28.0194 47.2903L28.6602 47.6137L29.5023 47.6237L30.4481 47.078L31.0739 46.2416L31.4871 45.2822L32.0061 44.324L32.6295 43.2466L33.6709 41.6919L34.1911 40.8543L35.0259 39.7793L36.5982 38.472L36.2518 36.7732L35.7494 37.0562L33.1021 36.2957L31.9188 36.0602L30.7556 35.9379L29.9519 35.862L28.8938 35.8364L27.5877 35.821L26.6372 35.8894L26.11 35.9917L25.6894 36.2084L25.1062 36.6497L24.5077 37.2453L24.2248 37.7241L24.017 38.0832L23.8114 38.6835L23.8147 39.0451L23.9292 39.8902L24.1806 40.3768L24.5435 40.8509L24.9247 41.2123L25.4246 41.4748L25.9555 41.7221L26.2737 41.8464L26.8058 42.1544Z"/>
</mask>
<path fill-rule="evenodd" clip-rule="evenodd" d="M26.8058 42.1544L26.8088 42.4548L26.9348 44.5053L27.0501 45.471L27.2711 46.4378L27.3547 46.5974L28.0194 47.2903L28.6602 47.6137L29.5023 47.6237L30.4481 47.078L31.0739 46.2416L31.4871 45.2822L32.0061 44.324L32.6295 43.2466L33.6709 41.6919L34.1911 40.8543L35.0259 39.7793L36.5982 38.472L36.2518 36.7732L35.7494 37.0562L33.1021 36.2957L31.9188 36.0602L30.7556 35.9379L29.9519 35.862L28.8938 35.8364L27.5877 35.821L26.6372 35.8894L26.11 35.9917L25.6894 36.2084L25.1062 36.6497L24.5077 37.2453L24.2248 37.7241L24.017 38.0832L23.8114 38.6835L23.8147 39.0451L23.9292 39.8902L24.1806 40.3768L24.5435 40.8509L24.9247 41.2123L25.4246 41.4748L25.9555 41.7221L26.2737 41.8464L26.8058 42.1544Z" fill="url(#paint4_linear_414_6704)"/>
<path d="M26.8088 42.4548L26.5096 42.4759L26.5092 42.4681L26.5091 42.4604L26.8088 42.4548ZM26.8058 42.1544L26.9574 41.894L27.1038 41.9787L27.1055 42.1488L26.8058 42.1544ZM26.9348 44.5053L26.6372 44.5436L26.6362 44.535L26.6357 44.5264L26.9348 44.5053ZM27.0501 45.471L26.7579 45.5405L26.7544 45.525L26.7525 45.5092L27.0501 45.471ZM27.2711 46.4378L27.0055 46.5793L26.9876 46.5451L26.9789 46.5073L27.2711 46.4378ZM27.3547 46.5974L27.1378 46.8065L27.1087 46.7762L27.0891 46.7389L27.3547 46.5974ZM28.0194 47.2903L27.8827 47.5587L27.8375 47.5359L27.8024 47.4994L28.0194 47.2903ZM28.6602 47.6137L28.654 47.914L28.585 47.9132L28.5235 47.8822L28.6602 47.6137ZM29.5023 47.6237L29.6501 47.8836L29.5785 47.9249L29.4961 47.924L29.5023 47.6237ZM30.4481 47.078L30.6873 47.2568L30.6499 47.3067L30.5959 47.3379L30.4481 47.078ZM31.0739 46.2416L31.3489 46.3585L31.3347 46.3916L31.3131 46.4204L31.0739 46.2416ZM31.4871 45.2822L31.2121 45.1652L31.2175 45.1527L31.224 45.1407L31.4871 45.2822ZM32.0061 44.324L31.7428 44.1825L31.7471 44.1751L32.0061 44.324ZM32.6295 43.2466L32.3706 43.0976L32.3756 43.089L32.3811 43.0807L32.6295 43.2466ZM33.6709 41.6919L33.9252 41.849L33.9193 41.8577L33.6709 41.6919ZM34.1911 40.8543L33.937 40.6972L33.9454 40.6837L33.9552 40.6711L34.1911 40.8543ZM35.0259 39.7793L34.79 39.5962L34.8103 39.57L34.8357 39.5489L35.0259 39.7793ZM36.5982 38.472L36.8919 38.4093L36.928 38.5863L36.7884 38.7024L36.5982 38.472ZM36.2518 36.7732L36.1068 36.5117L36.4639 36.3106L36.5455 36.7106L36.2518 36.7732ZM35.7494 37.0562L35.8945 37.3177L35.7847 37.3794L35.6645 37.3449L35.7494 37.0562ZM33.1021 36.2957L33.163 36.0011L33.1752 36.0036L33.1871 36.007L33.1021 36.2957ZM31.9188 36.0602L31.9526 35.7615L31.9662 35.7629L31.9796 35.7656L31.9188 36.0602ZM30.7556 35.9379L30.7863 35.6389L30.7894 35.6393L30.7556 35.9379ZM29.9519 35.862L29.9618 35.5618L29.9722 35.5621L29.9826 35.563L29.9519 35.862ZM28.8938 35.8364L28.8999 35.5361L28.9037 35.5361L28.8938 35.8364ZM27.5877 35.821L27.5689 35.5214L27.5814 35.5205L27.5939 35.5207L27.5877 35.821ZM26.6372 35.8894L26.5827 35.5946L26.6004 35.5912L26.6183 35.5899L26.6372 35.8894ZM26.11 35.9917L25.9748 35.7249L26.0132 35.7051L26.0555 35.6969L26.11 35.9917ZM25.6894 36.2084L25.5101 35.9693L25.531 35.9535L25.5542 35.9415L25.6894 36.2084ZM25.1062 36.6497L24.896 36.4375L24.9106 36.423L24.927 36.4106L25.1062 36.6497ZM24.5077 37.2453L24.2502 37.094L24.2699 37.0605L24.2975 37.0331L24.5077 37.2453ZM24.2248 37.7241L23.9659 37.5752L23.9673 37.5728L24.2248 37.7241ZM24.017 38.0832L23.7336 37.988L23.7432 37.96L23.7581 37.9343L24.017 38.0832ZM23.8114 38.6835L23.5117 38.689L23.5112 38.6373L23.528 38.5882L23.8114 38.6835ZM23.8147 39.0451L23.5178 39.0881L23.5152 39.0694L23.5151 39.0506L23.8147 39.0451ZM23.9292 39.8902L23.6628 40.0301L23.6392 39.9844L23.6323 39.9332L23.9292 39.8902ZM24.1806 40.3768L23.9422 40.5609L23.9262 40.54L23.9141 40.5167L24.1806 40.3768ZM24.5435 40.8509L24.3365 41.0699L24.3194 41.0537L24.3051 41.035L24.5435 40.8509ZM24.9247 41.2123L24.7838 41.4786L24.7475 41.4595L24.7178 41.4313L24.9247 41.2123ZM25.4246 41.4748L25.2962 41.7476L25.2837 41.7411L25.4246 41.4748ZM25.9555 41.7221L25.8445 42.0021L25.8358 41.9986L25.8272 41.9946L25.9555 41.7221ZM26.2737 41.8464L26.3846 41.5665L26.4057 41.5747L26.4253 41.586L26.2737 41.8464ZM26.5091 42.4604L26.5061 42.16L27.1055 42.1488L27.1084 42.4492L26.5091 42.4604ZM26.6357 44.5264L26.5096 42.4759L27.1079 42.4337L27.2339 44.4842L26.6357 44.5264ZM26.7525 45.5092L26.6372 44.5436L27.2324 44.4671L27.3477 45.4327L26.7525 45.5092ZM26.9789 46.5073L26.7579 45.5405L27.3423 45.4015L27.5632 46.3684L26.9789 46.5073ZM27.0891 46.7389L27.0055 46.5793L27.5367 46.2964L27.6203 46.4559L27.0891 46.7389ZM27.8024 47.4994L27.1378 46.8065L27.5717 46.3883L28.2363 47.0812L27.8024 47.4994ZM28.5235 47.8822L27.8827 47.5587L28.1561 47.0218L28.7969 47.3453L28.5235 47.8822ZM29.4961 47.924L28.654 47.914L28.6664 47.3135L29.5085 47.3234L29.4961 47.924ZM30.5959 47.3379L29.6501 47.8836L29.3545 47.3638L30.3003 46.818L30.5959 47.3379ZM31.3131 46.4204L30.6873 47.2568L30.2089 46.8992L30.8347 46.0628L31.3131 46.4204ZM31.7621 45.3991L31.3489 46.3585L30.7989 46.1246L31.2121 45.1652L31.7621 45.3991ZM32.2692 44.4655L31.7502 45.4236L31.224 45.1407L31.7429 44.1826L32.2692 44.4655ZM32.8884 43.3955L32.265 44.4729L31.7471 44.1751L32.3706 43.0976L32.8884 43.3955ZM33.9193 41.8577L32.8779 43.4124L32.3811 43.0807L33.4226 41.526L33.9193 41.8577ZM34.4451 41.0113L33.925 41.8489L33.4169 41.5349L33.937 40.6972L34.4451 41.0113ZM35.2618 39.9624L34.427 41.0374L33.9552 40.6711L34.79 39.5962L35.2618 39.9624ZM36.7884 38.7024L35.216 40.0097L34.8357 39.5489L36.4081 38.2415L36.7884 38.7024ZM36.5455 36.7106L36.8919 38.4093L36.3046 38.5346L35.9582 36.8358L36.5455 36.7106ZM35.6043 36.7947L36.1068 36.5117L36.3969 37.0347L35.8945 37.3177L35.6043 36.7947ZM35.6645 37.3449L33.0172 36.5845L33.1871 36.007L35.8343 36.7674L35.6645 37.3449ZM33.0413 36.5903L31.8579 36.3547L31.9796 35.7656L33.163 36.0011L33.0413 36.5903ZM31.8849 36.3588L30.7217 36.2366L30.7894 35.6393L31.9526 35.7615L31.8849 36.3588ZM30.7249 36.2369L29.9212 36.161L29.9826 35.563L30.7863 35.6389L30.7249 36.2369ZM29.942 36.1623L28.8839 36.1366L28.9037 35.5361L29.9618 35.5618L29.942 36.1623ZM28.8876 36.1367L27.5816 36.1213L27.5939 35.5207L28.8999 35.5361L28.8876 36.1367ZM27.6066 36.1205L26.6561 36.1889L26.6183 35.5899L27.5689 35.5214L27.6066 36.1205ZM26.6917 36.1842L26.1645 36.2865L26.0555 35.6969L26.5827 35.5946L26.6917 36.1842ZM26.2451 36.2586L25.8245 36.4752L25.5542 35.9415L25.9748 35.7249L26.2451 36.2586ZM25.8686 36.4474L25.2855 36.8887L24.927 36.4106L25.5101 35.9693L25.8686 36.4474ZM25.3165 36.8618L24.7179 37.4574L24.2975 37.0331L24.896 36.4375L25.3165 36.8618ZM24.7652 37.3966L24.4823 37.8754L23.9673 37.5728L24.2502 37.094L24.7652 37.3966ZM24.4837 37.873L24.2759 38.2322L23.7581 37.9343L23.9659 37.5752L24.4837 37.873ZM24.3003 38.1785L24.0947 38.7788L23.528 38.5882L23.7336 37.988L24.3003 38.1785ZM24.111 38.678L24.1144 39.0397L23.5151 39.0506L23.5117 38.689L24.111 38.678ZM24.1117 39.0022L24.2262 39.8473L23.6323 39.9332L23.5178 39.0881L24.1117 39.0022ZM24.1956 39.7503L24.447 40.2369L23.9141 40.5167L23.6628 40.0301L24.1956 39.7503ZM24.4189 40.1927L24.7819 40.6668L24.3051 41.035L23.9422 40.5609L24.4189 40.1927ZM24.7505 40.6319L25.1317 40.9933L24.7178 41.4313L24.3365 41.0699L24.7505 40.6319ZM25.0657 40.9461L25.5655 41.2085L25.2837 41.7411L24.7838 41.4786L25.0657 40.9461ZM25.5529 41.2023L26.0838 41.4496L25.8272 41.9946L25.2963 41.7473L25.5529 41.2023ZM26.0665 41.4422L26.3846 41.5665L26.1627 42.1263L25.8445 42.0021L26.0665 41.4422ZM26.4253 41.586L26.9574 41.894L26.6542 42.4148L26.1221 42.1068L26.4253 41.586Z" fill="#706DFF" mask="url(#path-19-inside-4_414_6704)"/>
<mask id="path-21-inside-5_414_6704" fill="white">
<path fill-rule="evenodd" clip-rule="evenodd" d="M36.5378 37.0136L36.2782 36.7787L36.4193 37.3453L36.1643 38.0595L35.9436 38.7677L35.4836 39.7118L34.3492 42.4262L33.9887 43.6064L33.5551 45.0226L33.3282 46.3208L33.3282 47.265L33.5551 48.6815L33.782 49.2976L34.4626 50.5695L34.5761 50.6875L35.3702 51.2776L35.5971 51.3956L36.2778 51.5348L36.6833 51.4931L37.2824 51.2635L37.6562 51.0507L38.1797 50.634L38.5967 50.193L38.8694 49.9285L39.3407 49.2713L39.4944 49.0314L39.6668 49.1256L40.383 49.4678L40.7442 49.5643L41.3132 49.7438L41.9646 49.8489L42.3907 49.8496L43.0224 49.7528L43.3976 49.5875L43.9312 49.1264L44.0761 48.9097L44.5017 47.9962L44.547 47.8361L44.5593 46.3803L44.475 45.7264L44.0224 44.3698L43.5879 43.5409L42.7913 42.5141L41.7589 41.4867L40.8993 40.63L38.6542 38.8118L37.8159 38.2119L37.2963 37.7001L36.7443 37.2006L36.6342 36.7436L36.5378 37.0136Z"/>
</mask>
<path fill-rule="evenodd" clip-rule="evenodd" d="M36.5378 37.0136L36.2782 36.7787L36.4193 37.3453L36.1643 38.0595L35.9436 38.7677L35.4836 39.7118L34.3492 42.4262L33.9887 43.6064L33.5551 45.0226L33.3282 46.3208L33.3282 47.265L33.5551 48.6815L33.782 49.2976L34.4626 50.5695L34.5761 50.6875L35.3702 51.2776L35.5971 51.3956L36.2778 51.5348L36.6833 51.4931L37.2824 51.2635L37.6562 51.0507L38.1797 50.634L38.5967 50.193L38.8694 49.9285L39.3407 49.2713L39.4944 49.0314L39.6668 49.1256L40.383 49.4678L40.7442 49.5643L41.3132 49.7438L41.9646 49.8489L42.3907 49.8496L43.0224 49.7528L43.3976 49.5875L43.9312 49.1264L44.0761 48.9097L44.5017 47.9962L44.547 47.8361L44.5593 46.3803L44.475 45.7264L44.0224 44.3698L43.5879 43.5409L42.7913 42.5141L41.7589 41.4867L40.8993 40.63L38.6542 38.8118L37.8159 38.2119L37.2963 37.7001L36.7443 37.2006L36.6342 36.7436L36.5378 37.0136Z" fill="url(#paint5_linear_414_6704)"/>
<path d="M36.2782 36.7787L36.4719 36.5477L35.7548 35.8987L35.9935 36.8567L36.2782 36.7787ZM36.5378 37.0136L36.344 37.2447L36.6648 37.535L36.8134 37.1188L36.5378 37.0136ZM36.4193 37.3453L36.695 37.4505L36.7272 37.3602L36.7041 37.2673L36.4193 37.3453ZM36.1643 38.0595L35.8884 37.9543L35.8846 37.9665L36.1643 38.0595ZM35.9436 38.7677L36.2058 38.9048L36.2162 38.8834L36.2233 38.8607L35.9436 38.7677ZM35.4836 39.7118L35.2214 39.5747L35.2175 39.5828L35.214 39.5911L35.4836 39.7118ZM34.3492 42.4262L34.0795 42.3055L34.0735 42.32L34.0689 42.335L34.3492 42.4262ZM33.9887 43.6064L34.269 43.6979L34.269 43.6977L33.9887 43.6064ZM33.5551 45.0226L33.2748 44.9311L33.2691 44.95L33.2657 44.9694L33.5551 45.0226ZM33.3282 46.3208L33.0388 46.2676L33.0341 46.2947L33.0341 46.3223L33.3282 46.3208ZM33.3282 47.265L33.0341 47.2665L33.0341 47.2917L33.038 47.3166L33.3282 47.265ZM33.5551 48.6815L33.2649 48.7331L33.2698 48.7634L33.2803 48.792L33.5551 48.6815ZM33.782 49.2976L33.5072 49.4081L33.5147 49.4283L33.5248 49.4472L33.782 49.2976ZM34.4626 50.5695L34.2055 50.7192L34.2253 50.7562L34.2541 50.7862L34.4626 50.5695ZM34.5761 50.6875L34.3675 50.9042L34.3846 50.922L34.4043 50.9366L34.5761 50.6875ZM35.3702 51.2776L35.1984 51.5267L35.2171 51.5406L35.2376 51.5512L35.3702 51.2776ZM35.5971 51.3956L35.4645 51.6692L35.5 51.6877L35.539 51.6957L35.5971 51.3956ZM36.2778 51.5348L36.2197 51.8349L36.2622 51.8436L36.3054 51.8391L36.2778 51.5348ZM36.6833 51.4931L36.7108 51.7974L36.7484 51.7935L36.7838 51.7799L36.6833 51.4931ZM37.2824 51.2635L37.383 51.5503L37.4035 51.5424L37.4227 51.5315L37.2824 51.2635ZM37.6562 51.0507L37.7965 51.3187L37.8163 51.3074L37.8342 51.2931L37.6562 51.0507ZM38.1797 50.634L38.3578 50.8764L38.3743 50.8633L38.3889 50.8478L38.1797 50.634ZM38.5967 50.193L38.3964 49.9697L38.3875 49.9792L38.5967 50.193ZM38.8694 49.9285L39.0695 50.1516L39.089 50.1327L39.1049 50.1105L38.8694 49.9285ZM39.3407 49.2713L39.5762 49.4533L39.5809 49.4468L39.5852 49.44L39.3407 49.2713ZM39.4944 49.0314L39.6322 48.7606L39.3976 48.6324L39.2499 48.8627L39.4944 49.0314ZM39.6668 49.1256L39.529 49.3964L39.5359 49.4002L39.5429 49.4035L39.6668 49.1256ZM40.383 49.4678L40.2591 49.7458L40.283 49.7572L40.3085 49.764L40.383 49.4678ZM40.7442 49.5643L40.8309 49.2714L40.8186 49.2681L40.7442 49.5643ZM41.3132 49.7438L41.2266 50.0364L41.2463 50.0426L41.2667 50.0459L41.3132 49.7438ZM41.9646 49.8489L41.9181 50.151L41.9403 50.1546L41.9627 50.1547L41.9646 49.8489ZM42.3907 49.8496L42.3888 50.1554L42.4106 50.1554L42.4322 50.1521L42.3907 49.8496ZM43.0224 49.7528L43.0639 50.0553L43.1012 50.0496L43.136 50.0343L43.0224 49.7528ZM43.3976 49.5875L43.5112 49.869L43.5514 49.8513L43.585 49.8223L43.3976 49.5875ZM43.9312 49.1264L44.1185 49.3611L44.1494 49.3344L44.1724 49.3001L43.9312 49.1264ZM44.0761 48.9097L44.3172 49.0835L44.3305 49.0637L44.3406 49.042L44.0761 48.9097ZM44.5017 47.9962L44.7663 48.1284L44.777 48.1055L44.7839 48.0812L44.5017 47.9962ZM44.547 47.8361L44.8292 47.921L44.8408 47.88L44.8411 47.8373L44.547 47.8361ZM44.5593 46.3803L44.8534 46.3816L44.8536 46.3598L44.8508 46.3383L44.5593 46.3803ZM44.475 45.7264L44.7665 45.6844L44.7626 45.654L44.753 45.625L44.475 45.7264ZM44.0224 44.3698L44.3003 44.2684L44.2924 44.2446L44.2808 44.2225L44.0224 44.3698ZM43.5879 43.5409L43.8464 43.3936L43.8338 43.3695L43.8172 43.3482L43.5879 43.5409ZM42.7913 42.5141L43.0206 42.3214L43.0088 42.3062L42.9952 42.2927L42.7913 42.5141ZM41.7589 41.4867L41.5548 41.7079L41.555 41.7081L41.7589 41.4867ZM40.8993 40.63L41.1034 40.4088L41.0926 40.398L41.0808 40.3884L40.8993 40.63ZM38.6542 38.8118L38.8356 38.5702L38.8288 38.5647L38.8218 38.5596L38.6542 38.8118ZM37.8159 38.2119L37.6131 38.4344L37.6296 38.4506L37.6484 38.4641L37.8159 38.2119ZM37.2963 37.7001L37.4993 37.4775L37.49 37.4691L37.2963 37.7001ZM36.7443 37.2006L36.459 37.2762L36.4813 37.3689L36.5506 37.4316L36.7443 37.2006ZM36.6342 36.7436L36.9195 36.6679L36.6892 35.7122L36.3585 36.6384L36.6342 36.7436ZM36.0845 37.0098L36.344 37.2447L36.7315 36.7826L36.4719 36.5477L36.0845 37.0098ZM36.7041 37.2673L36.5629 36.7007L35.9935 36.8567L36.1346 37.4233L36.7041 37.2673ZM36.1437 37.2401L35.8887 37.9543L36.44 38.1647L36.695 37.4505L36.1437 37.2401ZM35.8846 37.9665L35.6639 38.6747L36.2233 38.8607L36.4441 38.1525L35.8846 37.9665ZM35.6814 38.6305L35.2214 39.5747L35.7459 39.8489L36.2058 38.9048L35.6814 38.6305ZM35.214 39.5911L34.0795 42.3055L34.6188 42.547L35.7533 39.8325L35.214 39.5911ZM34.0689 42.335L33.7085 43.5152L34.269 43.6977L34.6295 42.5175L34.0689 42.335ZM33.7085 43.5149L33.2748 44.9311L33.8353 45.1141L34.269 43.6979L33.7085 43.5149ZM33.2657 44.9694L33.0388 46.2676L33.6175 46.3741L33.8444 45.0759L33.2657 44.9694ZM33.0341 46.3223L33.0341 47.2665L33.6223 47.2635L33.6223 46.3194L33.0341 46.3223ZM33.038 47.3166L33.2649 48.7331L33.8452 48.6298L33.6183 47.2134L33.038 47.3166ZM33.2803 48.792L33.5072 49.4081L34.0567 49.187L33.8298 48.5709L33.2803 48.792ZM33.5248 49.4472L34.2055 50.7192L34.7198 50.4199L34.0391 49.1479L33.5248 49.4472ZM34.2541 50.7862L34.3675 50.9042L34.7846 50.4709L34.6712 50.3528L34.2541 50.7862ZM34.4043 50.9366L35.1984 51.5267L35.542 51.0286L34.7479 50.4385L34.4043 50.9366ZM35.2376 51.5512L35.4645 51.6692L35.7297 51.1221L35.5028 51.004L35.2376 51.5512ZM35.539 51.6957L36.2197 51.8349L36.3359 51.2348L35.6552 51.0956L35.539 51.6957ZM36.3054 51.8391L36.7108 51.7974L36.6557 51.1888L36.2502 51.2305L36.3054 51.8391ZM36.7838 51.7799L37.383 51.5503L37.1819 50.9766L36.5827 51.2062L36.7838 51.7799ZM37.4227 51.5315L37.7965 51.3187L37.5158 50.7826L37.1421 50.9954L37.4227 51.5315ZM37.8342 51.2931L38.3578 50.8764L38.0016 50.3915L37.4781 50.8082L37.8342 51.2931ZM38.3889 50.8478L38.8059 50.4069L38.3875 49.9792L37.9705 50.4201L38.3889 50.8478ZM38.7968 50.4161L39.0695 50.1516L38.6693 49.7054L38.3966 49.9699L38.7968 50.4161ZM39.1049 50.1105L39.5762 49.4533L39.1052 49.0893L38.6339 49.7464L39.1049 50.1105ZM39.5852 49.44L39.739 49.2001L39.2499 48.8627L39.0962 49.1026L39.5852 49.44ZM39.8046 48.8548L39.6322 48.7606L39.3567 49.3022L39.529 49.3964L39.8046 48.8548ZM40.5069 49.1899L39.7907 48.8476L39.5429 49.4035L40.2591 49.7458L40.5069 49.1899ZM40.8186 49.2681L40.4575 49.1717L40.3085 49.764L40.6697 49.8605L40.8186 49.2681ZM41.3998 49.4511L40.8308 49.2716L40.6576 49.8569L41.2266 50.0364L41.3998 49.4511ZM42.0111 49.5467L41.3597 49.4416L41.2667 50.0459L41.9181 50.151L42.0111 49.5467ZM42.3926 49.5438L41.9665 49.5431L41.9627 50.1547L42.3888 50.1554L42.3926 49.5438ZM42.9809 49.4503L42.3492 49.5471L42.4322 50.1521L43.0639 50.0553L42.9809 49.4503ZM43.284 49.3061L42.9087 49.4714L43.136 50.0343L43.5112 49.869L43.284 49.3061ZM43.7438 48.8916L43.2102 49.3528L43.585 49.8223L44.1185 49.3611L43.7438 48.8916ZM43.8349 48.736L43.69 48.9526L44.1724 49.3001L44.3172 49.0835L43.8349 48.736ZM44.2372 47.8639L43.8115 48.7775L44.3406 49.042L44.7663 48.1284L44.2372 47.8639ZM44.2649 47.7511L44.2196 47.9112L44.7839 48.0812L44.8292 47.921L44.2649 47.7511ZM44.2652 46.3791L44.2529 47.8348L44.8411 47.8373L44.8534 46.3816L44.2652 46.3791ZM44.1835 45.7685L44.2678 46.4224L44.8508 46.3383L44.7665 45.6844L44.1835 45.7685ZM43.7445 44.4713L44.1971 45.8279L44.753 45.625L44.3003 44.2684L43.7445 44.4713ZM43.3295 43.6882L43.764 44.5171L44.2808 44.2225L43.8464 43.3936L43.3295 43.6882ZM42.5621 42.7068L43.3587 43.7335L43.8172 43.3482L43.0206 42.3214L42.5621 42.7068ZM41.555 41.7081L42.5875 42.7355L42.9952 42.2927L41.9628 41.2653L41.555 41.7081ZM40.6953 40.8512L41.5548 41.7079L41.9629 41.2654L41.1034 40.4088L40.6953 40.8512ZM38.4728 39.0534L40.7179 40.8716L41.0808 40.3884L38.8356 38.5702L38.4728 39.0534ZM37.6484 38.4641L38.4867 39.0639L38.8218 38.5596L37.9835 37.9598L37.6484 38.4641ZM37.0935 37.9226L37.6131 38.4344L38.0187 37.9894L37.4991 37.4777L37.0935 37.9226ZM36.5506 37.4316L37.1026 37.9312L37.49 37.4691L36.938 36.9695L36.5506 37.4316ZM37.0296 37.1249L36.9195 36.6679L36.3489 36.8192L36.459 37.2762L37.0296 37.1249ZM36.3585 36.6384L36.2621 36.9084L36.8134 37.1188L36.9098 36.8488L36.3585 36.6384Z" fill="#706DFF" mask="url(#path-21-inside-5_414_6704)"/>
<mask id="path-23-inside-6_414_6704" fill="white">
<path fill-rule="evenodd" clip-rule="evenodd" d="M39.7609 35.2413L36.5458 37.0039L37.168 37.1067L37.2975 38.1794L40.2471 39.7136L41.6085 40.5398L42.9698 41.3659L44.4446 42.192L45.6926 42.8011L46.827 43.2596L47.6211 43.4133L48.3018 43.5092L49.1865 43.5092L49.4363 43.4902L49.7766 43.3722L49.8901 43.2596L50.117 43.0182L50.3439 42.5461L50.4573 41.3659L50.3439 40.4217L50.2259 39.7136L50.117 39.1235L50.0909 39.0198L50.127 38.8582L50.4649 38.5087L50.7574 38.2575L51.1875 37.9457L51.4742 37.7378L51.8553 37.4261L52.1381 37.1148L52.2324 37.011L52.4091 36.4931L52.4051 36.3897L52.4012 36.2862L52.3854 35.8724L52.2794 35.6659L52.0672 35.2527L51.7717 34.9284L51.6709 34.8129L51.5701 34.6973L51.4693 34.5817L51.1692 34.3531L50.6015 34.1641L50.4546 34.1196L49.3852 33.8085L48.1006 33.6056L46.6239 33.644L45.0511 33.8032L43.5791 34.078L42.304 34.3476L41.7157 34.4811L41.1273 34.6146L40.4429 34.8689L39.7609 35.2413Z"/>
</mask>
<path fill-rule="evenodd" clip-rule="evenodd" d="M39.7609 35.2413L36.5458 37.0039L37.168 37.1067L37.2975 38.1794L40.2471 39.7136L41.6085 40.5398L42.9698 41.3659L44.4446 42.192L45.6926 42.8011L46.827 43.2596L47.6211 43.4133L48.3018 43.5092L49.1865 43.5092L49.4363 43.4902L49.7766 43.3722L49.8901 43.2596L50.117 43.0182L50.3439 42.5461L50.4573 41.3659L50.3439 40.4217L50.2259 39.7136L50.117 39.1235L50.0909 39.0198L50.127 38.8582L50.4649 38.5087L50.7574 38.2575L51.1875 37.9457L51.4742 37.7378L51.8553 37.4261L52.1381 37.1148L52.2324 37.011L52.4091 36.4931L52.4051 36.3897L52.4012 36.2862L52.3854 35.8724L52.2794 35.6659L52.0672 35.2527L51.7717 34.9284L51.6709 34.8129L51.5701 34.6973L51.4693 34.5817L51.1692 34.3531L50.6015 34.1641L50.4546 34.1196L49.3852 33.8085L48.1006 33.6056L46.6239 33.644L45.0511 33.8032L43.5791 34.078L42.304 34.3476L41.7157 34.4811L41.1273 34.6146L40.4429 34.8689L39.7609 35.2413Z" fill="url(#paint6_linear_414_6704)"/>
<path d="M36.5458 37.0039L36.4068 36.7395L35.6393 37.1603L36.4928 37.3014L36.5458 37.0039ZM39.7609 35.2413L39.6224 34.9767L39.6219 34.9769L39.7609 35.2413ZM37.168 37.1067L37.4644 37.0653L37.4378 36.8451L37.2211 36.8092L37.168 37.1067ZM37.2975 38.1794L37.0011 38.2208L37.0199 38.3764L37.1572 38.4479L37.2975 38.1794ZM40.2471 39.7136L40.4041 39.4546L40.3959 39.4496L40.3874 39.4452L40.2471 39.7136ZM41.6085 40.5398L41.7654 40.2807L41.6085 40.5398ZM42.9698 41.3659L42.8128 41.6251L42.8216 41.6301L42.9698 41.3659ZM44.4446 42.192L44.2964 42.4562L44.3036 42.4602L44.311 42.4639L44.4446 42.192ZM45.6926 42.8011L45.5589 43.0729L45.5681 43.0774L45.5776 43.0812L45.6926 42.8011ZM46.827 43.2596L46.712 43.5397L46.7382 43.5503L46.766 43.5557L46.827 43.2596ZM47.6211 43.4133L47.5601 43.7094L47.5675 43.7108L47.575 43.7119L47.6211 43.4133ZM48.3018 43.5092L48.2557 43.8078L48.2761 43.8107L48.2968 43.8107L48.3018 43.5092ZM49.1865 43.5092L49.1815 43.8107L49.1927 43.8107L49.2039 43.8098L49.1865 43.5092ZM49.4363 43.4902L49.4537 43.7908L49.4922 43.7879L49.529 43.7752L49.4363 43.4902ZM49.7766 43.3722L49.8693 43.6571L49.9347 43.6345L49.9841 43.5854L49.7766 43.3722ZM49.8901 43.2596L50.0977 43.4729L50.105 43.4651L49.8901 43.2596ZM50.117 43.0182L50.3319 43.2237L50.3645 43.189L50.3851 43.146L50.117 43.0182ZM50.3439 42.5461L50.612 42.6739L50.6358 42.6245L50.641 42.5702L50.3439 42.5461ZM50.4573 41.3659L50.7545 41.39L50.7576 41.3572L50.7537 41.3246L50.4573 41.3659ZM50.3439 40.4217L50.6406 40.3804L50.6383 40.3668L50.3439 40.4217ZM50.2259 39.7136L50.5203 39.6587L50.5194 39.6536L50.2259 39.7136ZM50.117 39.1235L50.4105 39.0635L50.4088 39.054L50.4064 39.0447L50.117 39.1235ZM50.0909 39.0198L49.7997 38.9582L49.7839 39.0289L49.8014 39.0987L50.0909 39.0198ZM50.127 38.8582L49.9152 38.6494L49.8548 38.7118L49.8359 38.7965L50.127 38.8582ZM50.4649 38.5087L50.2737 38.2805L50.263 38.2898L50.2531 38.3L50.4649 38.5087ZM50.7574 38.2575L50.586 38.0137L50.5758 38.0211L50.5662 38.0293L50.7574 38.2575ZM51.1875 37.9457L51.0161 37.7018L51.0161 37.7018L51.1875 37.9457ZM51.4742 37.7378L51.6456 37.9816L51.6529 37.9764L51.6598 37.9708L51.4742 37.7378ZM51.8553 37.4261L52.0408 37.6591L52.0584 37.6447L52.0737 37.6278L51.8553 37.4261ZM52.1381 37.1148L51.9196 36.9131L51.9196 36.9131L52.1381 37.1148ZM52.2324 37.011L52.4508 37.2127L52.4938 37.1654L52.5145 37.1049L52.2324 37.011ZM52.4091 36.4931L52.6912 36.587L52.7096 36.5331L52.7074 36.4764L52.4091 36.4931ZM52.4051 36.3897L52.7035 36.373L52.7035 36.373L52.4051 36.3897ZM52.4012 36.2862L52.6995 36.2695L52.6995 36.2695L52.4012 36.2862ZM52.3854 35.8724L52.6838 35.8557L52.6812 35.789L52.651 35.7301L52.3854 35.8724ZM52.2794 35.6659L52.5449 35.5235L52.5449 35.5235L52.2794 35.6659ZM52.0672 35.2527L52.3327 35.1104L52.3148 35.0755L52.2885 35.0466L52.0672 35.2527ZM51.7717 34.9284L51.5462 35.1299L51.5505 35.1346L51.7717 34.9284ZM51.6709 34.8129L51.4454 35.0143L51.4454 35.0143L51.6709 34.8129ZM51.5701 34.6973L51.7956 34.4959L51.7956 34.4959L51.5701 34.6973ZM51.4693 34.5817L51.6948 34.3803L51.6752 34.3579L51.6516 34.3399L51.4693 34.5817ZM51.1692 34.3531L51.3515 34.1113L51.313 34.082L51.267 34.0667L51.1692 34.3531ZM50.6015 34.1641L50.6994 33.8775L50.6917 33.8752L50.6015 34.1641ZM50.4546 34.1196L50.5447 33.8307L50.5417 33.8298L50.4546 34.1196ZM49.3852 33.8085L49.4723 33.5188L49.4546 33.5136L49.4362 33.5107L49.3852 33.8085ZM48.1006 33.6056L48.1516 33.3077L48.125 33.3035L48.098 33.3042L48.1006 33.6056ZM46.6239 33.644L46.6212 33.3427L46.6101 33.343L46.5991 33.3441L46.6239 33.644ZM45.0511 33.8032L45.0263 33.5033L45.0139 33.5045L45.0016 33.5068L45.0511 33.8032ZM43.5791 34.078L43.5296 33.7815L43.5226 33.783L43.5791 34.078ZM42.304 34.3476L42.2475 34.0526L42.2432 34.0535L42.304 34.3476ZM41.7157 34.4811L41.7764 34.7752L41.7764 34.7752L41.7157 34.4811ZM41.1273 34.6146L41.0666 34.3206L41.0472 34.325L41.0285 34.3319L41.1273 34.6146ZM40.4429 34.8689L40.3441 34.5862L40.3236 34.5938L40.3044 34.6043L40.4429 34.8689ZM36.6848 37.2683L39.8999 35.5056L39.6219 34.9769L36.4068 36.7395L36.6848 37.2683ZM37.2211 36.8092L36.5989 36.7064L36.4928 37.3014L37.115 37.4042L37.2211 36.8092ZM36.8717 37.1482L37.0011 38.2208L37.5939 38.1379L37.4644 37.0653L36.8717 37.1482ZM37.1572 38.4479L40.1068 39.9821L40.3874 39.4452L37.4378 37.9109L37.1572 38.4479ZM40.0901 39.9727L41.4515 40.7988L41.7654 40.2807L40.4041 39.4546L40.0901 39.9727ZM41.4515 40.7988L42.8129 41.625L43.1268 41.1068L41.7654 40.2807L41.4515 40.7988ZM42.8216 41.6301L44.2964 42.4562L44.5928 41.9278L43.118 41.1017L42.8216 41.6301ZM44.311 42.4639L45.5589 43.0729L45.8262 42.5293L44.5782 41.9202L44.311 42.4639ZM45.5776 43.0812L46.712 43.5397L46.942 42.9795L45.8075 42.521L45.5776 43.0812ZM46.766 43.5557L47.5601 43.7094L47.6821 43.1172L46.888 42.9635L46.766 43.5557ZM47.575 43.7119L48.2557 43.8078L48.348 43.2107L47.6673 43.1148L47.575 43.7119ZM48.2968 43.8107L49.1815 43.8107L49.1916 43.2078L48.3069 43.2078L48.2968 43.8107ZM49.2039 43.8098L49.4537 43.7908L49.4189 43.1896L49.1691 43.2086L49.2039 43.8098ZM49.529 43.7752L49.8693 43.6571L49.684 43.0873L49.3436 43.2053L49.529 43.7752ZM49.9841 43.5854L50.0976 43.4727L49.6826 43.0464L49.5691 43.1591L49.9841 43.5854ZM50.105 43.4651L50.3319 43.2237L49.9021 42.8126L49.6752 43.054L50.105 43.4651ZM50.3851 43.146L50.612 42.6739L50.0757 42.4182L49.8488 42.8903L50.3851 43.146ZM50.641 42.5702L50.7545 41.39L50.1602 41.3418L50.0467 42.522L50.641 42.5702ZM50.7537 41.3246L50.6403 40.3804L50.0475 40.463L50.1609 41.4072L50.7537 41.3246ZM50.6383 40.3668L50.5203 39.6587L49.9314 39.7685L50.0494 40.4767L50.6383 40.3668ZM50.5194 39.6536L50.4105 39.0635L49.8234 39.1836L49.9323 39.7737L50.5194 39.6536ZM50.4064 39.0447L50.3803 38.9409L49.8014 39.0987L49.8275 39.2024L50.4064 39.0447ZM49.8359 38.7965L49.7997 38.9582L50.382 39.0815L50.4182 38.9198L49.8359 38.7965ZM50.2531 38.3L49.9152 38.6494L50.3389 39.0669L50.6768 38.7174L50.2531 38.3ZM50.5662 38.0293L50.2737 38.2805L50.6561 38.7369L50.9486 38.4857L50.5662 38.0293ZM51.0161 37.7018L50.586 38.0137L50.9288 38.5014L51.3589 38.1895L51.0161 37.7018ZM51.3028 37.494L51.0161 37.7018L51.3589 38.1895L51.6456 37.9816L51.3028 37.494ZM51.6697 37.1932L51.2887 37.5048L51.6598 37.9708L52.0408 37.6591L51.6697 37.1932ZM51.9196 36.9131L51.6368 37.2244L52.0737 37.6278L52.3565 37.3165L51.9196 36.9131ZM52.0139 36.8093L51.9196 36.9131L52.3565 37.3165L52.4508 37.2127L52.0139 36.8093ZM52.127 36.3993L51.9503 36.9172L52.5145 37.1049L52.6912 36.587L52.127 36.3993ZM52.1068 36.4064L52.1108 36.5098L52.7074 36.4764L52.7035 36.373L52.1068 36.4064ZM52.1029 36.3029L52.1068 36.4064L52.7035 36.373L52.6995 36.2695L52.1029 36.3029ZM52.0871 35.8891L52.1029 36.3029L52.6995 36.2695L52.6838 35.8557L52.0871 35.8891ZM52.0138 35.8082L52.1199 36.0147L52.651 35.7301L52.5449 35.5235L52.0138 35.8082ZM51.8016 35.395L52.0138 35.8082L52.5449 35.5235L52.3327 35.1104L51.8016 35.395ZM51.5505 35.1346L51.8459 35.4588L52.2885 35.0466L51.993 34.7223L51.5505 35.1346ZM51.4454 35.0143L51.5463 35.1298L51.9972 34.727L51.8964 34.6115L51.4454 35.0143ZM51.3446 34.8987L51.4454 35.0143L51.8964 34.6115L51.7956 34.4959L51.3446 34.8987ZM51.2438 34.7831L51.3446 34.8987L51.7956 34.4959L51.6948 34.3803L51.2438 34.7831ZM50.9868 34.5949L51.2869 34.8235L51.6516 34.3399L51.3515 34.1113L50.9868 34.5949ZM50.5037 34.4505L51.0713 34.6395L51.267 34.0667L50.6993 33.8776L50.5037 34.4505ZM50.3644 34.4085L50.5113 34.453L50.6917 33.8752L50.5447 33.8307L50.3644 34.4085ZM49.2981 34.0983L50.3674 34.4094L50.5417 33.8298L49.4723 33.5188L49.2981 34.0983ZM48.0496 33.9034L49.3342 34.1064L49.4362 33.5107L48.1516 33.3077L48.0496 33.9034ZM46.6265 33.9454L48.1033 33.9069L48.098 33.3042L46.6212 33.3427L46.6265 33.9454ZM45.0758 34.1031L46.6487 33.944L46.5991 33.3441L45.0263 33.5033L45.0758 34.1031ZM43.6285 34.3743L45.1005 34.0996L45.0016 33.5068L43.5296 33.7816L43.6285 34.3743ZM42.3604 34.6426L43.6355 34.373L43.5226 33.783L42.2475 34.0526L42.3604 34.6426ZM41.7764 34.7752L42.3647 34.6416L42.2432 34.0535L41.6549 34.1871L41.7764 34.7752ZM41.1881 34.9087L41.7764 34.7752L41.6549 34.1871L41.0666 34.3206L41.1881 34.9087ZM40.5418 35.1516L41.2262 34.8973L41.0285 34.3319L40.3441 34.5862L40.5418 35.1516ZM39.8995 35.5059L40.5815 35.1335L40.3044 34.6043L39.6224 34.9767L39.8995 35.5059Z" fill="#706DFF" mask="url(#path-23-inside-6_414_6704)"/>
<mask id="path-25-inside-7_414_6704" fill="white">
<path fill-rule="evenodd" clip-rule="evenodd" d="M36.0831 37.5033L36.1395 37.8364L36.2902 37.4587L36.8863 37.3302L38.588 35.6779L39.4956 34.8518L40.5166 33.9077L41.0839 33.4356L41.6183 32.9635L42.4967 32.2554L43.5797 31.3112L44.4302 30.6031L45.1369 30.013L46.2134 28.7148L46.8696 27.5346L47.2226 26.3491L47.3006 24.9156L47.0612 24.1471L46.2134 23.3094L45.581 23.028L45.1369 22.9195L44.4302 22.882L43.7896 22.9573L43.3876 22.9836L42.4967 23.1189L41.8808 23.171L41.7686 23.2014L41.4287 22.7299L40.9752 22.0043L40.748 21.7017L40.4077 21.1956L39.9539 20.7236L39.6136 20.4875L39.0463 20.2422H37.9866L37.3417 20.6224L36.8908 21.0776L36.4573 21.7017L35.9997 22.9802L35.5904 24.6381L35.3568 25.9563L35.1715 27.6538L35.1406 29.1315L35.1735 30.2496L35.2334 31.867L35.4054 33.5042L35.9901 36.9546L35.734 37.5786L36.0831 37.5033Z"/>
</mask>
<path fill-rule="evenodd" clip-rule="evenodd" d="M36.0831 37.5033L36.1395 37.8364L36.2902 37.4587L36.8863 37.3302L38.588 35.6779L39.4956 34.8518L40.5166 33.9077L41.0839 33.4356L41.6183 32.9635L42.4967 32.2554L43.5797 31.3112L44.4302 30.6031L45.1369 30.013L46.2134 28.7148L46.8696 27.5346L47.2226 26.3491L47.3006 24.9156L47.0612 24.1471L46.2134 23.3094L45.581 23.028L45.1369 22.9195L44.4302 22.882L43.7896 22.9573L43.3876 22.9836L42.4967 23.1189L41.8808 23.171L41.7686 23.2014L41.4287 22.7299L40.9752 22.0043L40.748 21.7017L40.4077 21.1956L39.9539 20.7236L39.6136 20.4875L39.0463 20.2422H37.9866L37.3417 20.6224L36.8908 21.0776L36.4573 21.7017L35.9997 22.9802L35.5904 24.6381L35.3568 25.9563L35.1715 27.6538L35.1406 29.1315L35.1735 30.2496L35.2334 31.867L35.4054 33.5042L35.9901 36.9546L35.734 37.5786L36.0831 37.5033Z" fill="url(#paint7_linear_414_6704)"/>
<path d="M36.1395 37.8364L35.8438 37.8865L36.0223 38.9401L36.4182 37.9475L36.1395 37.8364ZM36.0831 37.5033L36.3789 37.4532L36.3265 37.144L36.0199 37.2101L36.0831 37.5033ZM36.2902 37.4587L36.227 37.1654L36.0707 37.1991L36.0115 37.3475L36.2902 37.4587ZM36.8863 37.3302L36.9495 37.6235L37.0336 37.6053L37.0953 37.5454L36.8863 37.3302ZM38.588 35.6779L38.386 35.456L38.379 35.4627L38.588 35.6779ZM39.4956 34.8518L39.6975 35.0737L39.6993 35.0721L39.4956 34.8518ZM40.5166 33.9077L40.3247 33.6771L40.3187 33.6821L40.3129 33.6874L40.5166 33.9077ZM41.0839 33.4356L41.2758 33.6663L41.2825 33.6604L41.0839 33.4356ZM41.6183 32.9635L41.4298 32.7297L41.4197 32.7387L41.6183 32.9635ZM42.4967 32.2554L42.6851 32.4891L42.6938 32.4815L42.4967 32.2554ZM43.5797 31.3112L43.3877 31.0806L43.3825 31.0851L43.5797 31.3112ZM44.4302 30.6031L44.6222 30.8337L44.6225 30.8334L44.4302 30.6031ZM45.1369 30.013L45.3292 30.2433L45.3503 30.2257L45.3678 30.2045L45.1369 30.013ZM46.2134 28.7148L46.4443 28.9063L46.462 28.8849L46.4756 28.8606L46.2134 28.7148ZM46.8696 27.5346L47.1318 27.6804L47.1478 27.6517L47.1572 27.6202L46.8696 27.5346ZM47.2226 26.3491L47.5101 26.4346L47.5202 26.4007L47.5221 26.3654L47.2226 26.3491ZM47.3006 24.9156L47.6001 24.9319L47.6031 24.878L47.587 24.8264L47.3006 24.9156ZM47.0612 24.1471L47.3476 24.0579L47.3254 23.9863L47.2721 23.9337L47.0612 24.1471ZM46.2134 23.3094L46.4242 23.096L46.3853 23.0576L46.3353 23.0353L46.2134 23.3094ZM45.581 23.028L45.7029 22.7539L45.6783 22.7429L45.6521 22.7365L45.581 23.028ZM45.1369 22.9195L45.208 22.6281L45.1808 22.6215L45.1528 22.62L45.1369 22.9195ZM44.4302 22.882L44.4461 22.5825L44.4206 22.5811L44.3952 22.5841L44.4302 22.882ZM43.7896 22.9573L43.8092 23.2567L43.8169 23.2562L43.8246 23.2553L43.7896 22.9573ZM43.3876 22.9836L43.3681 22.6843L43.3553 22.6851L43.3426 22.687L43.3876 22.9836ZM42.4967 23.1189L42.522 23.4178L42.5319 23.417L42.5417 23.4155L42.4967 23.1189ZM41.8808 23.171L41.8555 22.8721L41.8285 22.8744L41.8024 22.8814L41.8808 23.171ZM41.7686 23.2014L41.5253 23.3768L41.6467 23.5451L41.847 23.491L41.7686 23.2014ZM41.4287 22.7299L41.1743 22.8889L41.1796 22.8973L41.1854 22.9053L41.4287 22.7299ZM40.9752 22.0043L41.2296 21.8453L41.2228 21.8344L41.2151 21.8241L40.9752 22.0043ZM40.748 21.7017L40.4991 21.8691L40.5034 21.8756L40.5081 21.8818L40.748 21.7017ZM40.4077 21.1956L40.6566 21.0282L40.6421 21.0066L40.624 20.9877L40.4077 21.1956ZM39.9539 20.7236L40.1702 20.5157L40.1495 20.4941L40.1249 20.4771L39.9539 20.7236ZM39.6136 20.4875L39.7845 20.241L39.76 20.224L39.7327 20.2122L39.6136 20.4875ZM39.0463 20.2422L39.1654 19.9668L39.1084 19.9422H39.0463V20.2422ZM37.9866 20.2422V19.9422H37.9048L37.8343 19.9837L37.9866 20.2422ZM37.3417 20.6224L37.1893 20.3639L37.1558 20.3837L37.1285 20.4113L37.3417 20.6224ZM36.8908 21.0776L36.6776 20.8665L36.6592 20.885L36.6444 20.9065L36.8908 21.0776ZM36.4573 21.7017L36.2109 21.5306L36.1883 21.5632L36.1749 21.6006L36.4573 21.7017ZM35.9997 22.9802L35.7173 22.8791L35.7121 22.8935L35.7085 22.9083L35.9997 22.9802ZM35.5904 24.6381L35.2991 24.5662L35.2967 24.5759L35.295 24.5857L35.5904 24.6381ZM35.3568 25.9563L35.0614 25.9039L35.0596 25.9138L35.0585 25.9237L35.3568 25.9563ZM35.1715 27.6538L34.8732 27.6212L34.8718 27.6343L34.8715 27.6475L35.1715 27.6538ZM35.1406 29.1315L34.8407 29.1252L34.8405 29.1327L34.8408 29.1403L35.1406 29.1315ZM35.1735 30.2496L34.8736 30.2585L34.8737 30.2608L35.1735 30.2496ZM35.2334 31.867L34.9337 31.8781L34.934 31.8882L34.9351 31.8983L35.2334 31.867ZM35.4054 33.5042L35.107 33.5355L35.108 33.5449L35.1096 33.5543L35.4054 33.5042ZM35.9901 36.9546L36.2677 37.0686L36.3002 36.9891L36.2859 36.9045L35.9901 36.9546ZM35.734 37.5786L35.4565 37.4646L35.2401 37.9919L35.7973 37.8718L35.734 37.5786ZM36.4353 37.7862L36.3789 37.4532L35.7873 37.5534L35.8438 37.8865L36.4353 37.7862ZM36.0115 37.3475L35.8609 37.7252L36.4182 37.9475L36.5688 37.5698L36.0115 37.3475ZM36.3534 37.752L36.9495 37.6235L36.8231 37.0369L36.227 37.1654L36.3534 37.752ZM37.0953 37.5454L38.797 35.8932L38.379 35.4627L36.6773 37.115L37.0953 37.5454ZM38.79 35.8998L39.6975 35.0737L39.2937 34.6299L38.3861 35.4561L38.79 35.8998ZM39.6993 35.0721L40.7203 34.1279L40.3129 33.6874L39.2919 34.6315L39.6993 35.0721ZM40.7085 34.1382L41.2758 33.6662L40.8919 33.205L40.3247 33.6771L40.7085 34.1382ZM41.2825 33.6604L41.8169 33.1884L41.4197 32.7387L40.8852 33.2107L41.2825 33.6604ZM41.8066 33.1971L42.685 32.4889L42.3084 32.0218L41.43 32.7299L41.8066 33.1971ZM42.6938 32.4815L43.7768 31.5374L43.3825 31.0851L42.2995 32.0293L42.6938 32.4815ZM43.7716 31.5418L44.6222 30.8337L44.2383 30.3726L43.3877 31.0807L43.7716 31.5418ZM44.6225 30.8334L45.3292 30.2433L44.9446 29.7828L44.2379 30.3729L44.6225 30.8334ZM45.3678 30.2045L46.4443 28.9063L45.9824 28.5233L44.9059 29.8215L45.3678 30.2045ZM46.4756 28.8606L47.1318 27.6804L46.6074 27.3889L45.9512 28.569L46.4756 28.8606ZM47.1572 27.6202L47.5101 26.4346L46.935 26.2635L46.5821 27.4491L47.1572 27.6202ZM47.5221 26.3654L47.6001 24.9319L47.001 24.8993L46.923 26.3327L47.5221 26.3654ZM47.587 24.8264L47.3476 24.0579L46.7748 24.2363L47.0141 25.0048L47.587 24.8264ZM47.2721 23.9337L46.4242 23.096L46.0025 23.5228L46.8504 24.3605L47.2721 23.9337ZM46.3353 23.0353L45.7029 22.7539L45.459 23.3021L46.0914 23.5835L46.3353 23.0353ZM45.6521 22.7365L45.208 22.6281L45.0657 23.211L45.5098 23.3194L45.6521 22.7365ZM45.1528 22.62L44.4461 22.5825L44.4143 23.1816L45.121 23.2191L45.1528 22.62ZM44.3952 22.5841L43.7546 22.6594L43.8246 23.2553L44.4652 23.18L44.3952 22.5841ZM43.77 22.658L43.3681 22.6843L43.4072 23.283L43.8092 23.2567L43.77 22.658ZM43.3426 22.687L42.4517 22.8223L42.5417 23.4155L43.4326 23.2802L43.3426 22.687ZM42.4714 22.8199L41.8555 22.8721L41.9061 23.47L42.522 23.4178L42.4714 22.8199ZM41.8024 22.8814L41.6903 22.9118L41.847 23.491L41.9591 23.4606L41.8024 22.8814ZM41.1854 22.9053L41.5253 23.3768L42.012 23.0259L41.6721 22.5544L41.1854 22.9053ZM40.7208 22.1633L41.1743 22.8889L41.6831 22.5709L41.2296 21.8453L40.7208 22.1633ZM40.5081 21.8818L40.7353 22.1844L41.2151 21.8241L40.9879 21.5216L40.5081 21.8818ZM40.1588 21.3631L40.4991 21.8691L40.997 21.5343L40.6566 21.0282L40.1588 21.3631ZM39.7376 20.9315L40.1914 21.4035L40.624 20.9877L40.1702 20.5157L39.7376 20.9315ZM39.4426 20.734L39.7829 20.9701L40.1249 20.4771L39.7845 20.241L39.4426 20.734ZM38.9272 20.5175L39.4945 20.7629L39.7327 20.2122L39.1654 19.9668L38.9272 20.5175ZM37.9866 20.5422H39.0463V19.9422H37.9866V20.5422ZM37.494 20.8808L38.139 20.5006L37.8343 19.9837L37.1893 20.3639L37.494 20.8808ZM37.1039 21.2887L37.5548 20.8335L37.1285 20.4113L36.6776 20.8665L37.1039 21.2887ZM36.7038 21.8728L37.1372 21.2487L36.6444 20.9065L36.2109 21.5306L36.7038 21.8728ZM36.2822 23.0813L36.7398 21.8028L36.1749 21.6006L35.7173 22.8791L36.2822 23.0813ZM35.8816 24.71L36.291 23.0521L35.7085 22.9083L35.2991 24.5662L35.8816 24.71ZM35.6522 26.0086L35.8858 24.6904L35.295 24.5857L35.0614 25.9039L35.6522 26.0086ZM35.4697 27.6863L35.655 25.9888L35.0585 25.9237L34.8732 27.6212L35.4697 27.6863ZM35.4406 29.1377L35.4714 27.66L34.8715 27.6475L34.8407 29.1252L35.4406 29.1377ZM35.4734 30.2408L35.4405 29.1226L34.8408 29.1403L34.8736 30.2585L35.4734 30.2408ZM35.5332 31.8559L35.4733 30.2385L34.8737 30.2608L34.9337 31.8781L35.5332 31.8559ZM35.7038 33.4728L35.5318 31.8357L34.9351 31.8983L35.107 33.5355L35.7038 33.4728ZM36.2859 36.9045L35.7012 33.454L35.1096 33.5543L35.6943 37.0048L36.2859 36.9045ZM35.7126 36.8407L35.4565 37.4646L36.0116 37.6925L36.2677 37.0686L35.7126 36.8407ZM35.7973 37.8718L36.1463 37.7966L36.0199 37.2101L35.6708 37.2853L35.7973 37.8718Z" fill="#706DFF" mask="url(#path-25-inside-7_414_6704)"/>
<path d="M36.3134 37.9173L35.2275 38.0194L34.5729 38.1197L33.9723 38.2197L33.4418 38.2969L31.2863 38.651L30.4922 38.887L29.3577 39.4771L28.9039 39.8312L28.1099 40.7753" stroke="#706DFF" stroke-width="0.3"/>
<path d="M36.5028 37.5585L36.6084 39.0142L36.7134 39.8629L36.7567 40.2925L36.8 40.7222L36.9075 41.1851L37.1225 42.111L37.4018 43.07L37.6811 44.0291L38.0459 44.9306L38.7327 46.6099" stroke="#706DFF" stroke-width="0.3"/>
<path d="M47.054 38.181L45.6926 37.8269L44.8852 37.6634L44.4796 37.5708L44.074 37.4782L43.6178 37.4386L42.7054 37.3594L41.7424 37.3332L40.7794 37.307L39.842 37.3833L38.0936 37.5327" stroke="#706DFF" stroke-width="0.3"/>
<path d="M30.0386 28.6185L30.3789 30.0346L30.6058 30.7427L30.8327 31.2148L31.0596 31.6869L31.4 32.159L32.0806 33.1031L32.8748 34.0473L33.6689 34.9914L34.5765 35.8175L36.2784 37.3521" stroke="#706DFF" stroke-width="0.3"/>
<path d="M40.4668 26.4199L39.3399 28.6201L38.2054 31.5706L36.3827 37.5137" stroke="#706DFF" stroke-width="0.3"/>
<path d="M37.9432 37.4703C37.9432 38.436 37.1921 39.2086 36.278 39.2086C35.3639 39.2086 34.6129 38.436 34.6129 37.4703C34.6129 36.5047 35.3639 35.732 36.278 35.732C37.1921 35.732 37.9432 36.5047 37.9432 37.4703Z" fill="white" stroke="black" stroke-width="0.3"/>
<defs>
<linearGradient id="paint0_linear_414_6704" x1="40.3208" y1="40.754" x2="42.2977" y2="0.827422" gradientUnits="userSpaceOnUse">
<stop stop-color="white" stop-opacity="0"/>
<stop offset="1" stop-color="#DEB8B8"/>
</linearGradient>
<linearGradient id="paint1_linear_414_6704" x1="40.3208" y1="40.754" x2="42.2977" y2="0.827422" gradientUnits="userSpaceOnUse">
<stop stop-opacity="0"/>
<stop offset="1"/>
</linearGradient>
<linearGradient id="paint2_linear_414_6704" x1="13.3868" y1="12.6875" x2="13.3868" y2="48.6877" gradientUnits="userSpaceOnUse">
<stop stop-color="#FBFCCB"/>
<stop offset="0.253125" stop-color="#FEE383"/>
<stop offset="0.628125" stop-color="#FFA9F1"/>
<stop offset="1" stop-color="#CBE3FF"/>
</linearGradient>
<linearGradient id="paint3_linear_414_6704" x1="25.1281" y1="25.66" x2="38.1656" y2="32.3677" gradientUnits="userSpaceOnUse">
<stop stop-color="#B0D4F5"/>
<stop offset="0.378125" stop-color="#F3C1EE"/>
<stop offset="0.669792" stop-color="#F9DEC2"/>
<stop offset="1" stop-color="#FFFBA0" stop-opacity="0.57"/>
</linearGradient>
<linearGradient id="paint4_linear_414_6704" x1="24.1698" y1="42.2274" x2="36.8593" y2="40.8118" gradientUnits="userSpaceOnUse">
<stop stop-color="#B0D4F5"/>
<stop offset="0.378125" stop-color="#F3C1EE"/>
<stop offset="0.669792" stop-color="#F9DEC2"/>
<stop offset="1" stop-color="#FFFBA0" stop-opacity="0.57"/>
</linearGradient>
<linearGradient id="paint5_linear_414_6704" x1="42.1863" y1="50.7308" x2="32.5279" y2="40.2274" gradientUnits="userSpaceOnUse">
<stop stop-color="#B0D4F5"/>
<stop offset="0.378125" stop-color="#F3C1EE"/>
<stop offset="0.669792" stop-color="#F9DEC2"/>
<stop offset="1" stop-color="#FFFBA0" stop-opacity="0.57"/>
</linearGradient>
<linearGradient id="paint6_linear_414_6704" x1="52.6769" y1="37.0202" x2="37.5269" y2="40.8672" gradientUnits="userSpaceOnUse">
<stop stop-color="#B0D4F5"/>
<stop offset="0.378125" stop-color="#F3C1EE"/>
<stop offset="0.669792" stop-color="#F9DEC2"/>
<stop offset="1" stop-color="#FFFBA0" stop-opacity="0.57"/>
</linearGradient>
<linearGradient id="paint7_linear_414_6704" x1="41.2207" y1="20.2422" x2="41.2207" y2="37.8364" gradientUnits="userSpaceOnUse">
<stop stop-color="#B0D4F5"/>
<stop offset="0.378125" stop-color="#F3C1EE"/>
<stop offset="0.669792" stop-color="#F9DEC2"/>
<stop offset="1" stop-color="#FFFBA0" stop-opacity="0.57"/>
</linearGradient>
</defs>
</svg>
