<svg width="54" height="57" viewBox="0 0 54 57" fill="none" xmlns="http://www.w3.org/2000/svg">
<rect x="0.15" y="13.6422" width="26.3364" height="38.9068" rx="2.85" fill="white" stroke="black" stroke-width="0.3"/>
<rect x="9.59434" y="8.46641" width="7.44877" height="5.37142" fill="white" stroke="black" stroke-width="0.3"/>
<rect x="11.0475" y="4.51914" width="4.54298" height="4.1385" fill="white" stroke="black" stroke-width="0.3"/>
<path d="M3.12443 14.8375H23.6645C24.7207 14.8375 25.5626 15.7203 25.5124 16.7753L23.9911 48.7756C23.9443 49.762 23.1308 50.5377 22.1432 50.5377H4.87976C3.8974 50.5377 3.08635 49.7699 3.03254 48.789L1.27721 16.7888C1.21907 15.7289 2.06289 14.8375 3.12443 14.8375Z" stroke="black" stroke-width="0.3"/>
<mask id="path-5-inside-1_450_6866" fill="white">
<path fill-rule="evenodd" clip-rule="evenodd" d="M1.83398 29.6504L2.88426 48.7972C2.94243 49.8577 3.81925 50.6877 4.88126 50.6877H22.1447C23.2124 50.6877 24.0918 49.8491 24.1425 48.7827L25.052 29.6504H1.83398Z"/>
</mask>
<path fill-rule="evenodd" clip-rule="evenodd" d="M1.83398 29.6504L2.88426 48.7972C2.94243 49.8577 3.81925 50.6877 4.88126 50.6877H22.1447C23.2124 50.6877 24.0918 49.8491 24.1425 48.7827L25.052 29.6504H1.83398Z" fill="url(#paint0_linear_450_6866)"/>
<path d="M2.88426 48.7972L3.18381 48.7808L3.18381 48.7808L2.88426 48.7972ZM1.83398 29.6504V29.3504H1.51708L1.53443 29.6668L1.83398 29.6504ZM24.1425 48.7827L23.8428 48.7684L23.8428 48.7684L24.1425 48.7827ZM25.052 29.6504L25.3517 29.6646L25.3666 29.3504H25.052V29.6504ZM3.18381 48.7808L2.13353 29.634L1.53443 29.6668L2.58471 48.8137L3.18381 48.7808ZM4.88126 50.3877C3.97855 50.3877 3.23325 49.6822 3.18381 48.7808L2.58471 48.8137C2.6516 50.0332 3.65995 50.9877 4.88126 50.9877V50.3877ZM22.1447 50.3877H4.88126V50.9877H22.1447V50.3877ZM23.8428 48.7684C23.7997 49.6749 23.0522 50.3877 22.1447 50.3877V50.9877C23.3725 50.9877 24.3838 50.0233 24.4421 48.7969L23.8428 48.7684ZM24.7524 29.6361L23.8428 48.7684L24.4421 48.7969L25.3517 29.6646L24.7524 29.6361ZM25.052 29.3504H1.83398V29.9504H25.052V29.3504Z" fill="black" mask="url(#path-5-inside-1_450_6866)"/>
<g filter="url(#filter0_d_450_6866)">
<circle cx="36.4507" cy="16.1499" r="12.1499" fill="white"/>
</g>
<path d="M36.2437 20.3194C35.6073 20.3194 35.0406 20.21 34.5434 19.9913C34.0491 19.7697 33.6585 19.4657 33.3715 19.0794C33.0874 18.6902 32.9411 18.2413 32.9326 17.7328H34.7906C34.8019 17.9458 34.8715 18.1333 34.9994 18.2953C35.1301 18.4544 35.3034 18.5779 35.5193 18.666C35.7352 18.7541 35.9781 18.7981 36.248 18.7981C36.5292 18.7981 36.7778 18.7484 36.9937 18.649C37.2096 18.5495 37.3786 18.4118 37.5008 18.2356C37.623 18.0595 37.684 17.8564 37.684 17.6262C37.684 17.3933 37.6187 17.1873 37.488 17.0083C37.3602 16.8265 37.1755 16.6845 36.934 16.5822C36.6954 16.4799 36.4113 16.4288 36.0818 16.4288H35.2678V15.0737H36.0818C36.3602 15.0737 36.6059 15.0254 36.819 14.9288C37.0349 14.8322 37.2025 14.6987 37.3218 14.5282C37.4411 14.3549 37.5008 14.1532 37.5008 13.9231C37.5008 13.7044 37.4482 13.5126 37.3431 13.3478C37.2409 13.1802 37.096 13.0495 36.9085 12.9558C36.7238 12.862 36.5079 12.8152 36.2607 12.8152C36.0107 12.8152 35.782 12.8606 35.5747 12.9515C35.3673 13.0396 35.2011 13.166 35.0761 13.3308C34.9511 13.4956 34.8843 13.6887 34.8758 13.9103H33.1073C33.1159 13.4075 33.2593 12.9643 33.5377 12.5808C33.8161 12.1973 34.1911 11.8975 34.6627 11.6816C35.1372 11.4629 35.6727 11.3535 36.2693 11.3535C36.8715 11.3535 37.3985 11.4629 37.8502 11.6816C38.3019 11.9004 38.6528 12.1958 38.9028 12.568C39.1556 12.9373 39.2806 13.3521 39.2778 13.8123C39.2806 14.301 39.1286 14.7086 38.8218 15.0353C38.5178 15.362 38.1215 15.5694 37.6329 15.6575V15.7257C38.2749 15.8081 38.7636 16.0311 39.0988 16.3947C39.4369 16.7555 39.6045 17.2072 39.6017 17.7498C39.6045 18.247 39.461 18.6887 39.1713 19.0751C38.8843 19.4615 38.488 19.7654 37.9823 19.987C37.4767 20.2086 36.8971 20.3194 36.2437 20.3194Z" fill="black"/>
<mask id="path-9-inside-2_450_6866" fill="white">
<path fill-rule="evenodd" clip-rule="evenodd" d="M12.4867 14.75C12.4704 15.6776 12.4619 16.6192 12.4619 17.5724C12.4619 40.9816 14.7798 45.4588 16.345 44.4355C16.8645 44.0958 16.7982 43.8689 16.4776 42.7727C15.8323 40.5659 14.157 34.8362 14.157 17.5724C14.157 16.6192 14.1735 15.6776 14.2041 14.75H12.4867Z"/>
</mask>
<path fill-rule="evenodd" clip-rule="evenodd" d="M12.4867 14.75C12.4704 15.6776 12.4619 16.6192 12.4619 17.5724C12.4619 40.9816 14.7798 45.4588 16.345 44.4355C16.8645 44.0958 16.7982 43.8689 16.4776 42.7727C15.8323 40.5659 14.157 34.8362 14.157 17.5724C14.157 16.6192 14.1735 15.6776 14.2041 14.75H12.4867Z" fill="white"/>
<path d="M12.4867 14.75V14.45H12.192L12.1868 14.7447L12.4867 14.75ZM16.345 44.4355L16.1809 44.1844L16.1809 44.1844L16.345 44.4355ZM16.4776 42.7727L16.7656 42.6885L16.7656 42.6885L16.4776 42.7727ZM14.2041 14.75L14.504 14.7599L14.5142 14.45H14.2041V14.75ZM12.7619 17.5724C12.7619 16.621 12.7704 15.6811 12.7867 14.7553L12.1868 14.7447C12.1704 15.674 12.1619 16.6174 12.1619 17.5724H12.7619ZM16.1809 44.1844C16.0462 44.2724 15.933 44.2866 15.8226 44.2502C15.6973 44.209 15.5257 44.086 15.3258 43.7928C14.9244 43.2039 14.4969 42.0593 14.1108 40.1079C13.3416 36.2202 12.7619 29.2726 12.7619 17.5724H12.1619C12.1619 29.2814 12.7412 36.277 13.5222 40.2244C13.9112 42.1906 14.3567 43.4364 14.8301 44.1308C15.0676 44.4791 15.3339 44.7209 15.6349 44.8201C15.9509 44.9242 16.2526 44.8543 16.5092 44.6866L16.1809 44.1844ZM16.1897 42.8569C16.2706 43.1336 16.3323 43.3451 16.3734 43.5169C16.4149 43.6906 16.4292 43.8005 16.4265 43.8773C16.4242 43.9435 16.4096 43.9791 16.3862 44.0116C16.3565 44.0531 16.2995 44.1068 16.1809 44.1844L16.5092 44.6866C16.6503 44.5943 16.7798 44.4923 16.8737 44.3614C16.974 44.2216 17.0202 44.0683 17.0261 43.8983C17.0317 43.7388 17.0018 43.5653 16.957 43.3775C16.9117 43.1878 16.8449 42.9598 16.7656 42.6885L16.1897 42.8569ZM13.857 17.5724C13.857 34.8589 15.5349 40.6176 16.1897 42.8569L16.7656 42.6885C16.1298 40.5141 14.457 34.8135 14.457 17.5724H13.857ZM13.9043 14.7401C13.8736 15.6708 13.857 16.6157 13.857 17.5724H14.457C14.457 16.6227 14.4735 15.6844 14.504 14.7599L13.9043 14.7401ZM14.2041 14.45H12.4867V15.05H14.2041V14.45Z" fill="black" mask="url(#path-9-inside-2_450_6866)"/>
<mask id="path-11-inside-3_450_6866" fill="white">
<path fill-rule="evenodd" clip-rule="evenodd" d="M35.5945 39.1025L35.7228 39.1158L35.6364 38.9704L35.7405 38.642L35.4196 36.4399L35.2838 35.2914L35.1217 33.9924L35.0653 33.2956L34.9946 32.6261L34.922 31.5578L34.7868 30.2071L34.7021 29.162L34.6306 28.293L34.265 26.7803L33.7922 25.6744L33.2185 25.0515L32.7857 24.8053L32.1281 24.6802L31.4636 24.7587L30.7947 24.966L30.2303 25.3461L29.8873 25.7004L29.5402 26.1768L29.305 26.6054L29.0492 27.2398L28.8467 27.7048L27.8846 27.5499L27.3173 27.4319L26.8636 27.4319L26.5232 27.4319L25.956 27.4319L25.3092 27.7039L24.7597 28.3761L24.6251 28.7301L24.4494 29.7847L24.4441 30.6598L24.6251 32.0235L25.3094 33.3568L26.6471 35.1031L27.4412 35.94L28.6787 36.7554L29.8236 37.3843L31.0558 37.9356L31.9791 38.2896L33.3404 38.7613L34.5883 38.9977L35.0058 39.0412L35.3982 39.7218L35.5945 39.1025Z"/>
</mask>
<path fill-rule="evenodd" clip-rule="evenodd" d="M35.5945 39.1025L35.7228 39.1158L35.6364 38.9704L35.7405 38.642L35.4196 36.4399L35.2838 35.2914L35.1217 33.9924L35.0653 33.2956L34.9946 32.6261L34.922 31.5578L34.7868 30.2071L34.7021 29.162L34.6306 28.293L34.265 26.7803L33.7922 25.6744L33.2185 25.0515L32.7857 24.8053L32.1281 24.6802L31.4636 24.7587L30.7947 24.966L30.2303 25.3461L29.8873 25.7004L29.5402 26.1768L29.305 26.6054L29.0492 27.2398L28.8467 27.7048L27.8846 27.5499L27.3173 27.4319L26.8636 27.4319L26.5232 27.4319L25.956 27.4319L25.3092 27.7039L24.7597 28.3761L24.6251 28.7301L24.4494 29.7847L24.4441 30.6598L24.6251 32.0235L25.3094 33.3568L26.6471 35.1031L27.4412 35.94L28.6787 36.7554L29.8236 37.3843L31.0558 37.9356L31.9791 38.2896L33.3404 38.7613L34.5883 38.9977L35.0058 39.0412L35.3982 39.7218L35.5945 39.1025Z" fill="url(#paint1_linear_450_6866)"/>
<path d="M35.7228 39.1158L35.6983 39.4183L36.2826 39.4792L35.9745 38.9608L35.7228 39.1158ZM35.5945 39.1025L35.619 38.7999L35.3853 38.7756L35.313 39.0036L35.5945 39.1025ZM35.6364 38.9704L35.3549 38.8715L35.3127 39.0045L35.3846 39.1255L35.6364 38.9704ZM35.7405 38.642L36.0219 38.7409L36.0434 38.6733L36.033 38.6024L35.7405 38.642ZM35.4196 36.4399L35.1258 36.4711L35.127 36.4795L35.4196 36.4399ZM35.2838 35.2914L35.5775 35.2602L35.5773 35.2581L35.2838 35.2914ZM35.1217 33.9924L34.8265 34.0122L34.8282 34.0257L35.1217 33.9924ZM35.0653 33.2956L35.3602 33.2759L35.3594 33.2683L35.0653 33.2956ZM34.9946 32.6261L34.6992 32.6418L34.7005 32.6534L34.9946 32.6261ZM34.922 31.5578L35.2173 31.5421L35.2163 31.5322L34.922 31.5578ZM34.7868 30.2071L34.4919 30.2268L34.4925 30.2327L34.7868 30.2071ZM34.7021 29.162L34.997 29.1423L34.9969 29.1419L34.7021 29.162ZM34.6306 28.293L34.9254 28.2728L34.9234 28.2485L34.9177 28.2247L34.6306 28.293ZM34.265 26.7803L34.5521 26.7121L34.5459 26.6865L34.5355 26.6623L34.265 26.7803ZM33.7922 25.6744L34.0627 25.5564L34.0416 25.5069L34.0053 25.4675L33.7922 25.6744ZM33.2185 25.0515L33.4316 24.8446L33.3993 24.8095L33.3581 24.7861L33.2185 25.0515ZM32.7857 24.8053L32.9253 24.5399L32.8824 24.5155L32.8344 24.5063L32.7857 24.8053ZM32.1281 24.6802L32.1768 24.3812L32.133 24.3729L32.089 24.3781L32.1281 24.6802ZM31.4636 24.7587L31.4245 24.4566L31.3985 24.4597L31.3735 24.4674L31.4636 24.7587ZM30.7947 24.966L30.7046 24.6748L30.6644 24.6872L30.6295 24.7108L30.7947 24.966ZM30.2303 25.3461L30.065 25.0908L30.0399 25.1078L30.0187 25.1297L30.2303 25.3461ZM29.8873 25.7004L29.6757 25.484L29.6615 25.4987L29.6494 25.5153L29.8873 25.7004ZM29.5402 26.1768L29.3023 25.9917L29.2911 26.007L29.2819 26.0238L29.5402 26.1768ZM29.305 26.6054L29.0467 26.4525L29.0381 26.4681L29.0314 26.4847L29.305 26.6054ZM29.0492 27.2398L29.3198 27.3683L29.3229 27.3606L29.0492 27.2398ZM28.8467 27.7048L28.8062 28.0052L29.0268 28.0407L29.1172 27.8332L28.8467 27.7048ZM27.8846 27.5499L27.8309 27.8482L27.844 27.8503L27.8846 27.5499ZM27.3173 27.4319L27.371 27.1339L27.3417 27.1279L27.312 27.1279L27.3173 27.4319ZM26.8636 27.4319L26.8582 27.1279L26.8582 27.1279L26.8636 27.4319ZM26.5232 27.4319L26.5178 27.1279L26.5178 27.1279L26.5232 27.4319ZM25.956 27.4319L25.9506 27.1279L25.8928 27.1279L25.8397 27.1502L25.956 27.4319ZM25.3092 27.7039L25.1929 27.4222L25.127 27.4499L25.0813 27.5059L25.3092 27.7039ZM24.7597 28.3761L24.5317 28.178L24.5012 28.2154L24.4838 28.261L24.7597 28.3761ZM24.6251 28.7301L24.3492 28.615L24.3384 28.6434L24.3334 28.6735L24.6251 28.7301ZM24.4494 29.7847L24.1578 29.7282L24.1537 29.7525L24.1536 29.7773L24.4494 29.7847ZM24.4441 30.6598L24.1482 30.6523L24.1481 30.674L24.1509 30.6955L24.4441 30.6598ZM24.6251 32.0235L24.3319 32.0592L24.3391 32.1131L24.3639 32.1615L24.6251 32.0235ZM25.3094 33.3568L25.0483 33.4948L25.0612 33.5199L25.0782 33.5422L25.3094 33.3568ZM26.6471 35.1031L26.4159 35.2885L26.4259 35.3015L26.4371 35.3134L26.6471 35.1031ZM27.4412 35.94L27.2312 36.1502L27.2555 36.1758L27.2848 36.1951L27.4412 35.94ZM28.6787 36.7554L28.5223 37.0105L28.5324 37.0172L28.543 37.023L28.6787 36.7554ZM29.8236 37.3843L29.6878 37.6519L29.6986 37.6577L29.7097 37.6627L29.8236 37.3843ZM31.0558 37.9356L30.9419 38.214L30.9493 38.2173L30.9568 38.2202L31.0558 37.9356ZM31.9791 38.2896L31.8801 38.5744L31.8892 38.5776L31.9791 38.2896ZM33.3404 38.7613L33.2505 39.0492L33.2709 39.0563L33.2919 39.0603L33.3404 38.7613ZM34.5883 38.9977L34.5398 39.2967L34.5518 39.299L34.5638 39.3002L34.5883 38.9977ZM35.0058 39.0412L35.2597 38.8897L35.1817 38.7544L35.0303 38.7387L35.0058 39.0412ZM35.3982 39.7218L35.1444 39.8732L35.4791 40.4537L35.6797 39.8207L35.3982 39.7218ZM35.7473 38.8133L35.619 38.7999L35.57 39.405L35.6983 39.4183L35.7473 38.8133ZM35.3846 39.1255L35.471 39.2708L35.9745 38.9608L35.8881 38.8154L35.3846 39.1255ZM35.9178 39.0694L36.0219 38.7409L35.459 38.5431L35.3549 38.8715L35.9178 39.0694ZM36.033 38.6024L35.7122 36.4002L35.127 36.4795L35.4479 38.6817L36.033 38.6024ZM35.7133 36.4086L35.5775 35.2602L34.9901 35.3227L35.1259 36.4711L35.7133 36.4086ZM35.5773 35.2581L35.4151 33.9592L34.8282 34.0257L34.9904 35.3247L35.5773 35.2581ZM35.4165 33.9727L35.3601 33.2759L34.7704 33.3153L34.8268 34.0122L35.4165 33.9727ZM35.3594 33.2683L35.2888 32.5988L34.7005 32.6534L34.7711 33.3229L35.3594 33.2683ZM35.2898 32.6104L35.2172 31.5421L34.6269 31.5735L34.6995 32.6418L35.2898 32.6104ZM35.2163 31.5322L35.0811 30.1814L34.4925 30.2327L34.6277 31.5835L35.2163 31.5322ZM35.0817 30.1873L34.997 29.1423L34.4073 29.1818L34.492 30.2268L35.0817 30.1873ZM34.9969 29.1419L34.9254 28.2728L34.3358 28.3131L34.4073 29.1822L34.9969 29.1419ZM34.9177 28.2247L34.5521 26.7121L33.9779 26.8485L34.3435 28.3612L34.9177 28.2247ZM34.5355 26.6623L34.0627 25.5564L33.5217 25.7925L33.9945 26.8984L34.5355 26.6623ZM34.0053 25.4675L33.4316 24.8446L33.0054 25.2584L33.5791 25.8813L34.0053 25.4675ZM33.3581 24.7861L32.9253 24.5399L32.646 25.0707L33.0789 25.3169L33.3581 24.7861ZM32.8344 24.5063L32.1768 24.3812L32.0794 24.9791L32.7369 25.1043L32.8344 24.5063ZM32.089 24.3781L31.4245 24.4566L31.5027 25.0608L32.1672 24.9823L32.089 24.3781ZM31.3735 24.4674L30.7046 24.6748L30.8849 25.2573L31.5538 25.0499L31.3735 24.4674ZM30.6295 24.7108L30.065 25.0908L30.3956 25.6014L30.96 25.2213L30.6295 24.7108ZM30.0187 25.1297L29.6757 25.484L30.099 25.9169L30.4419 25.5625L30.0187 25.1297ZM29.6494 25.5153L29.3023 25.9917L29.7782 26.3619L30.1253 25.8855L29.6494 25.5153ZM29.2819 26.0238L29.0467 26.4525L29.5634 26.7584L29.7986 26.3298L29.2819 26.0238ZM29.0314 26.4847L28.7756 27.1191L29.3229 27.3606L29.5787 26.7262L29.0314 26.4847ZM28.7788 27.1114L28.5763 27.5764L29.1172 27.8332L29.3197 27.3682L28.7788 27.1114ZM27.844 27.8503L28.8062 28.0052L28.8873 27.4044L27.9251 27.2496L27.844 27.8503ZM27.2637 27.7299L27.831 27.8479L27.9382 27.252L27.371 27.1339L27.2637 27.7299ZM26.869 27.736L27.3227 27.736L27.312 27.1279L26.8582 27.1279L26.869 27.736ZM26.5286 27.736L26.869 27.736L26.8582 27.1279L26.5178 27.1279L26.5286 27.736ZM25.9614 27.736L26.5286 27.736L26.5178 27.1279L25.9506 27.1279L25.9614 27.736ZM25.4255 27.9857L26.0723 27.7137L25.8397 27.1502L25.1929 27.4222L25.4255 27.9857ZM24.9876 28.5742L25.5372 27.902L25.0813 27.5059L24.5317 28.178L24.9876 28.5742ZM24.9009 28.8452L25.0355 28.4912L24.4838 28.261L24.3492 28.615L24.9009 28.8452ZM24.7411 29.8413L24.9167 28.7867L24.3334 28.6735L24.1578 29.7282L24.7411 29.8413ZM24.7399 30.6673L24.7453 29.7922L24.1536 29.7773L24.1482 30.6523L24.7399 30.6673ZM24.9182 31.9878L24.7372 30.6241L24.1509 30.6955L24.3319 32.0592L24.9182 31.9878ZM25.5706 33.2188L24.8862 31.8855L24.3639 32.1615L25.0483 33.4948L25.5706 33.2188ZM26.8783 34.9177L25.5406 33.1714L25.0782 33.5422L26.4159 35.2885L26.8783 34.9177ZM27.6512 35.7297L26.857 34.8928L26.4371 35.3134L27.2312 36.1502L27.6512 35.7297ZM28.8352 36.5003L27.5977 35.6848L27.2848 36.1951L28.5223 37.0105L28.8352 36.5003ZM29.9593 37.1167L28.8144 36.4878L28.543 37.023L29.6878 37.6519L29.9593 37.1167ZM31.1697 37.6571L29.9375 37.1058L29.7097 37.6627L30.9419 38.214L31.1697 37.6571ZM32.078 38.0049L31.1547 37.6509L30.9568 38.2202L31.8801 38.5743L32.078 38.0049ZM33.4303 38.4733L32.069 38.0016L31.8892 38.5776L33.2505 39.0492L33.4303 38.4733ZM34.6368 38.6987L33.3889 38.4623L33.2919 39.0603L34.5398 39.2967L34.6368 38.6987ZM35.0303 38.7387L34.6128 38.6952L34.5638 39.3002L34.9813 39.3437L35.0303 38.7387ZM34.752 39.1926L35.1444 39.8732L35.6521 39.5703L35.2597 38.8897L34.752 39.1926ZM35.6797 39.8207L35.876 39.2014L35.313 39.0036L35.1167 39.6229L35.6797 39.8207Z" fill="#706DFF" mask="url(#path-11-inside-3_450_6866)"/>
<mask id="path-13-inside-4_450_6866" fill="white">
<path fill-rule="evenodd" clip-rule="evenodd" d="M26.8058 44.1544L26.8088 44.4548L26.9348 46.5053L27.0501 47.471L27.2711 48.4378L27.3547 48.5974L28.0194 49.2903L28.6602 49.6137L29.5023 49.6237L30.4481 49.078L31.0739 48.2416L31.4871 47.2822L32.0061 46.324L32.6295 45.2466L33.6709 43.6919L34.1911 42.8543L35.0259 41.7793L36.5982 40.472L36.2518 38.7732L35.7494 39.0562L33.1021 38.2957L31.9188 38.0602L30.7556 37.9379L29.9519 37.862L28.8938 37.8364L27.5877 37.821L26.6372 37.8894L26.11 37.9917L25.6894 38.2084L25.1062 38.6497L24.5077 39.2453L24.2248 39.7241L24.017 40.0832L23.8114 40.6835L23.8147 41.0451L23.9292 41.8902L24.1806 42.3768L24.5435 42.8509L24.9247 43.2123L25.4246 43.4748L25.9555 43.7221L26.2737 43.8464L26.8058 44.1544Z"/>
</mask>
<path fill-rule="evenodd" clip-rule="evenodd" d="M26.8058 44.1544L26.8088 44.4548L26.9348 46.5053L27.0501 47.471L27.2711 48.4378L27.3547 48.5974L28.0194 49.2903L28.6602 49.6137L29.5023 49.6237L30.4481 49.078L31.0739 48.2416L31.4871 47.2822L32.0061 46.324L32.6295 45.2466L33.6709 43.6919L34.1911 42.8543L35.0259 41.7793L36.5982 40.472L36.2518 38.7732L35.7494 39.0562L33.1021 38.2957L31.9188 38.0602L30.7556 37.9379L29.9519 37.862L28.8938 37.8364L27.5877 37.821L26.6372 37.8894L26.11 37.9917L25.6894 38.2084L25.1062 38.6497L24.5077 39.2453L24.2248 39.7241L24.017 40.0832L23.8114 40.6835L23.8147 41.0451L23.9292 41.8902L24.1806 42.3768L24.5435 42.8509L24.9247 43.2123L25.4246 43.4748L25.9555 43.7221L26.2737 43.8464L26.8058 44.1544Z" fill="url(#paint2_linear_450_6866)"/>
<path d="M26.8088 44.4548L26.5096 44.4759L26.5092 44.4681L26.5091 44.4604L26.8088 44.4548ZM26.8058 44.1544L26.9574 43.894L27.1038 43.9787L27.1055 44.1488L26.8058 44.1544ZM26.9348 46.5053L26.6372 46.5436L26.6362 46.535L26.6357 46.5264L26.9348 46.5053ZM27.0501 47.471L26.7579 47.5405L26.7544 47.525L26.7525 47.5092L27.0501 47.471ZM27.2711 48.4378L27.0055 48.5793L26.9876 48.5451L26.9789 48.5073L27.2711 48.4378ZM27.3547 48.5974L27.1378 48.8065L27.1087 48.7762L27.0891 48.7389L27.3547 48.5974ZM28.0194 49.2903L27.8827 49.5587L27.8375 49.5359L27.8024 49.4994L28.0194 49.2903ZM28.6602 49.6137L28.654 49.914L28.585 49.9132L28.5235 49.8822L28.6602 49.6137ZM29.5023 49.6237L29.6501 49.8836L29.5785 49.9249L29.4961 49.924L29.5023 49.6237ZM30.4481 49.078L30.6873 49.2568L30.6499 49.3067L30.5959 49.3379L30.4481 49.078ZM31.0739 48.2416L31.3489 48.3585L31.3347 48.3916L31.3131 48.4204L31.0739 48.2416ZM31.4871 47.2822L31.2121 47.1652L31.2175 47.1527L31.224 47.1407L31.4871 47.2822ZM32.0061 46.324L31.7428 46.1825L31.7471 46.1751L32.0061 46.324ZM32.6295 45.2466L32.3706 45.0976L32.3756 45.089L32.3811 45.0807L32.6295 45.2466ZM33.6709 43.6919L33.9252 43.849L33.9193 43.8577L33.6709 43.6919ZM34.1911 42.8543L33.937 42.6972L33.9454 42.6837L33.9552 42.6711L34.1911 42.8543ZM35.0259 41.7793L34.79 41.5962L34.8103 41.57L34.8357 41.5489L35.0259 41.7793ZM36.5982 40.472L36.8919 40.4093L36.928 40.5863L36.7884 40.7024L36.5982 40.472ZM36.2518 38.7732L36.1068 38.5117L36.4639 38.3106L36.5455 38.7106L36.2518 38.7732ZM35.7494 39.0562L35.8945 39.3177L35.7847 39.3794L35.6645 39.3449L35.7494 39.0562ZM33.1021 38.2957L33.163 38.0011L33.1752 38.0036L33.1871 38.007L33.1021 38.2957ZM31.9188 38.0602L31.9526 37.7615L31.9662 37.7629L31.9796 37.7656L31.9188 38.0602ZM30.7556 37.9379L30.7863 37.6389L30.7894 37.6393L30.7556 37.9379ZM29.9519 37.862L29.9618 37.5618L29.9722 37.5621L29.9826 37.563L29.9519 37.862ZM28.8938 37.8364L28.8999 37.5361L28.9037 37.5361L28.8938 37.8364ZM27.5877 37.821L27.5689 37.5214L27.5814 37.5205L27.5939 37.5207L27.5877 37.821ZM26.6372 37.8894L26.5827 37.5946L26.6004 37.5912L26.6183 37.5899L26.6372 37.8894ZM26.11 37.9917L25.9748 37.7249L26.0132 37.7051L26.0555 37.6969L26.11 37.9917ZM25.6894 38.2084L25.5101 37.9693L25.531 37.9535L25.5542 37.9415L25.6894 38.2084ZM25.1062 38.6497L24.896 38.4375L24.9106 38.423L24.927 38.4106L25.1062 38.6497ZM24.5077 39.2453L24.2502 39.094L24.2699 39.0605L24.2975 39.0331L24.5077 39.2453ZM24.2248 39.7241L23.9659 39.5752L23.9673 39.5728L24.2248 39.7241ZM24.017 40.0832L23.7336 39.988L23.7432 39.96L23.7581 39.9343L24.017 40.0832ZM23.8114 40.6835L23.5117 40.689L23.5112 40.6373L23.528 40.5882L23.8114 40.6835ZM23.8147 41.0451L23.5178 41.0881L23.5152 41.0694L23.5151 41.0506L23.8147 41.0451ZM23.9292 41.8902L23.6628 42.0301L23.6392 41.9844L23.6323 41.9332L23.9292 41.8902ZM24.1806 42.3768L23.9422 42.5609L23.9262 42.54L23.9141 42.5167L24.1806 42.3768ZM24.5435 42.8509L24.3365 43.0699L24.3194 43.0537L24.3051 43.035L24.5435 42.8509ZM24.9247 43.2123L24.7838 43.4786L24.7475 43.4595L24.7178 43.4313L24.9247 43.2123ZM25.4246 43.4748L25.2962 43.7476L25.2837 43.7411L25.4246 43.4748ZM25.9555 43.7221L25.8445 44.0021L25.8358 43.9986L25.8272 43.9946L25.9555 43.7221ZM26.2737 43.8464L26.3846 43.5665L26.4057 43.5747L26.4253 43.586L26.2737 43.8464ZM26.5091 44.4604L26.5061 44.16L27.1055 44.1488L27.1084 44.4492L26.5091 44.4604ZM26.6357 46.5264L26.5096 44.4759L27.1079 44.4337L27.2339 46.4842L26.6357 46.5264ZM26.7525 47.5092L26.6372 46.5436L27.2324 46.4671L27.3477 47.4327L26.7525 47.5092ZM26.9789 48.5073L26.7579 47.5405L27.3423 47.4015L27.5632 48.3684L26.9789 48.5073ZM27.0891 48.7389L27.0055 48.5793L27.5367 48.2964L27.6203 48.4559L27.0891 48.7389ZM27.8024 49.4994L27.1378 48.8065L27.5717 48.3883L28.2363 49.0812L27.8024 49.4994ZM28.5235 49.8822L27.8827 49.5587L28.1561 49.0218L28.7969 49.3453L28.5235 49.8822ZM29.4961 49.924L28.654 49.914L28.6664 49.3135L29.5085 49.3234L29.4961 49.924ZM30.5959 49.3379L29.6501 49.8836L29.3545 49.3638L30.3003 48.818L30.5959 49.3379ZM31.3131 48.4204L30.6873 49.2568L30.2089 48.8992L30.8347 48.0628L31.3131 48.4204ZM31.7621 47.3991L31.3489 48.3585L30.7989 48.1246L31.2121 47.1652L31.7621 47.3991ZM32.2692 46.4655L31.7502 47.4236L31.224 47.1407L31.7429 46.1826L32.2692 46.4655ZM32.8884 45.3955L32.265 46.4729L31.7471 46.1751L32.3706 45.0976L32.8884 45.3955ZM33.9193 43.8577L32.8779 45.4124L32.3811 45.0807L33.4226 43.526L33.9193 43.8577ZM34.4451 43.0113L33.925 43.8489L33.4169 43.5349L33.937 42.6972L34.4451 43.0113ZM35.2618 41.9624L34.427 43.0374L33.9552 42.6711L34.79 41.5962L35.2618 41.9624ZM36.7884 40.7024L35.216 42.0097L34.8357 41.5489L36.4081 40.2415L36.7884 40.7024ZM36.5455 38.7106L36.8919 40.4093L36.3046 40.5346L35.9582 38.8358L36.5455 38.7106ZM35.6043 38.7947L36.1068 38.5117L36.3969 39.0347L35.8945 39.3177L35.6043 38.7947ZM35.6645 39.3449L33.0172 38.5845L33.1871 38.007L35.8343 38.7674L35.6645 39.3449ZM33.0413 38.5903L31.8579 38.3547L31.9796 37.7656L33.163 38.0011L33.0413 38.5903ZM31.8849 38.3588L30.7217 38.2366L30.7894 37.6393L31.9526 37.7615L31.8849 38.3588ZM30.7249 38.2369L29.9212 38.161L29.9826 37.563L30.7863 37.6389L30.7249 38.2369ZM29.942 38.1623L28.8839 38.1366L28.9037 37.5361L29.9618 37.5618L29.942 38.1623ZM28.8876 38.1367L27.5816 38.1213L27.5939 37.5207L28.8999 37.5361L28.8876 38.1367ZM27.6066 38.1205L26.6561 38.1889L26.6183 37.5899L27.5689 37.5214L27.6066 38.1205ZM26.6917 38.1842L26.1645 38.2865L26.0555 37.6969L26.5827 37.5946L26.6917 38.1842ZM26.2451 38.2586L25.8245 38.4752L25.5542 37.9415L25.9748 37.7249L26.2451 38.2586ZM25.8686 38.4474L25.2855 38.8887L24.927 38.4106L25.5101 37.9693L25.8686 38.4474ZM25.3165 38.8618L24.7179 39.4574L24.2975 39.0331L24.896 38.4375L25.3165 38.8618ZM24.7652 39.3966L24.4823 39.8754L23.9673 39.5728L24.2502 39.094L24.7652 39.3966ZM24.4837 39.873L24.2759 40.2322L23.7581 39.9343L23.9659 39.5752L24.4837 39.873ZM24.3003 40.1785L24.0947 40.7788L23.528 40.5882L23.7336 39.988L24.3003 40.1785ZM24.111 40.678L24.1144 41.0397L23.5151 41.0506L23.5117 40.689L24.111 40.678ZM24.1117 41.0022L24.2262 41.8473L23.6323 41.9332L23.5178 41.0881L24.1117 41.0022ZM24.1956 41.7503L24.447 42.2369L23.9141 42.5167L23.6628 42.0301L24.1956 41.7503ZM24.4189 42.1927L24.7819 42.6668L24.3051 43.035L23.9422 42.5609L24.4189 42.1927ZM24.7505 42.6319L25.1317 42.9933L24.7178 43.4313L24.3365 43.0699L24.7505 42.6319ZM25.0657 42.9461L25.5655 43.2085L25.2837 43.7411L24.7838 43.4786L25.0657 42.9461ZM25.5529 43.2023L26.0838 43.4496L25.8272 43.9946L25.2963 43.7473L25.5529 43.2023ZM26.0665 43.4422L26.3846 43.5665L26.1627 44.1263L25.8445 44.0021L26.0665 43.4422ZM26.4253 43.586L26.9574 43.894L26.6542 44.4148L26.1221 44.1068L26.4253 43.586Z" fill="#706DFF" mask="url(#path-13-inside-4_450_6866)"/>
<mask id="path-15-inside-5_450_6866" fill="white">
<path fill-rule="evenodd" clip-rule="evenodd" d="M36.5378 39.0136L36.2782 38.7787L36.4193 39.3453L36.1643 40.0595L35.9436 40.7677L35.4836 41.7118L34.3492 44.4262L33.9887 45.6064L33.5551 47.0226L33.3282 48.3208L33.3282 49.265L33.5551 50.6815L33.782 51.2976L34.4626 52.5695L34.5761 52.6875L35.3702 53.2776L35.5971 53.3956L36.2778 53.5348L36.6833 53.4931L37.2824 53.2635L37.6562 53.0507L38.1797 52.634L38.5967 52.193L38.8694 51.9285L39.3407 51.2713L39.4944 51.0314L39.6668 51.1256L40.383 51.4678L40.7442 51.5643L41.3132 51.7438L41.9646 51.8489L42.3907 51.8496L43.0224 51.7528L43.3976 51.5875L43.9312 51.1264L44.0761 50.9097L44.5017 49.9962L44.547 49.8361L44.5593 48.3803L44.475 47.7264L44.0224 46.3698L43.5879 45.5409L42.7913 44.5141L41.7589 43.4867L40.8993 42.63L38.6542 40.8118L37.8159 40.2119L37.2963 39.7001L36.7443 39.2006L36.6342 38.7436L36.5378 39.0136Z"/>
</mask>
<path fill-rule="evenodd" clip-rule="evenodd" d="M36.5378 39.0136L36.2782 38.7787L36.4193 39.3453L36.1643 40.0595L35.9436 40.7677L35.4836 41.7118L34.3492 44.4262L33.9887 45.6064L33.5551 47.0226L33.3282 48.3208L33.3282 49.265L33.5551 50.6815L33.782 51.2976L34.4626 52.5695L34.5761 52.6875L35.3702 53.2776L35.5971 53.3956L36.2778 53.5348L36.6833 53.4931L37.2824 53.2635L37.6562 53.0507L38.1797 52.634L38.5967 52.193L38.8694 51.9285L39.3407 51.2713L39.4944 51.0314L39.6668 51.1256L40.383 51.4678L40.7442 51.5643L41.3132 51.7438L41.9646 51.8489L42.3907 51.8496L43.0224 51.7528L43.3976 51.5875L43.9312 51.1264L44.0761 50.9097L44.5017 49.9962L44.547 49.8361L44.5593 48.3803L44.475 47.7264L44.0224 46.3698L43.5879 45.5409L42.7913 44.5141L41.7589 43.4867L40.8993 42.63L38.6542 40.8118L37.8159 40.2119L37.2963 39.7001L36.7443 39.2006L36.6342 38.7436L36.5378 39.0136Z" fill="url(#paint3_linear_450_6866)"/>
<path d="M36.2782 38.7787L36.4719 38.5477L35.7548 37.8987L35.9935 38.8567L36.2782 38.7787ZM36.5378 39.0136L36.344 39.2447L36.6648 39.535L36.8134 39.1188L36.5378 39.0136ZM36.4193 39.3453L36.695 39.4505L36.7272 39.3602L36.7041 39.2673L36.4193 39.3453ZM36.1643 40.0595L35.8884 39.9543L35.8846 39.9665L36.1643 40.0595ZM35.9436 40.7677L36.2058 40.9048L36.2162 40.8834L36.2233 40.8607L35.9436 40.7677ZM35.4836 41.7118L35.2214 41.5747L35.2175 41.5828L35.214 41.5911L35.4836 41.7118ZM34.3492 44.4262L34.0795 44.3055L34.0735 44.32L34.0689 44.335L34.3492 44.4262ZM33.9887 45.6064L34.269 45.6979L34.269 45.6977L33.9887 45.6064ZM33.5551 47.0226L33.2748 46.9311L33.2691 46.95L33.2657 46.9694L33.5551 47.0226ZM33.3282 48.3208L33.0388 48.2676L33.0341 48.2947L33.0341 48.3223L33.3282 48.3208ZM33.3282 49.265L33.0341 49.2665L33.0341 49.2917L33.038 49.3166L33.3282 49.265ZM33.5551 50.6815L33.2649 50.7331L33.2698 50.7634L33.2803 50.792L33.5551 50.6815ZM33.782 51.2976L33.5072 51.4081L33.5147 51.4283L33.5248 51.4472L33.782 51.2976ZM34.4626 52.5695L34.2055 52.7192L34.2253 52.7562L34.2541 52.7862L34.4626 52.5695ZM34.5761 52.6875L34.3675 52.9042L34.3846 52.922L34.4043 52.9366L34.5761 52.6875ZM35.3702 53.2776L35.1984 53.5267L35.2171 53.5406L35.2376 53.5512L35.3702 53.2776ZM35.5971 53.3956L35.4645 53.6692L35.5 53.6877L35.539 53.6957L35.5971 53.3956ZM36.2778 53.5348L36.2197 53.8349L36.2622 53.8436L36.3054 53.8391L36.2778 53.5348ZM36.6833 53.4931L36.7108 53.7974L36.7484 53.7935L36.7838 53.7799L36.6833 53.4931ZM37.2824 53.2635L37.383 53.5503L37.4035 53.5424L37.4227 53.5315L37.2824 53.2635ZM37.6562 53.0507L37.7965 53.3187L37.8163 53.3074L37.8342 53.2931L37.6562 53.0507ZM38.1797 52.634L38.3578 52.8764L38.3743 52.8633L38.3889 52.8478L38.1797 52.634ZM38.5967 52.193L38.3964 51.9697L38.3875 51.9792L38.5967 52.193ZM38.8694 51.9285L39.0695 52.1516L39.089 52.1327L39.1049 52.1105L38.8694 51.9285ZM39.3407 51.2713L39.5762 51.4533L39.5809 51.4468L39.5852 51.44L39.3407 51.2713ZM39.4944 51.0314L39.6322 50.7606L39.3976 50.6324L39.2499 50.8627L39.4944 51.0314ZM39.6668 51.1256L39.529 51.3964L39.5359 51.4002L39.5429 51.4035L39.6668 51.1256ZM40.383 51.4678L40.2591 51.7458L40.283 51.7572L40.3085 51.764L40.383 51.4678ZM40.7442 51.5643L40.8309 51.2714L40.8186 51.2681L40.7442 51.5643ZM41.3132 51.7438L41.2266 52.0364L41.2463 52.0426L41.2667 52.0459L41.3132 51.7438ZM41.9646 51.8489L41.9181 52.151L41.9403 52.1546L41.9627 52.1547L41.9646 51.8489ZM42.3907 51.8496L42.3888 52.1554L42.4106 52.1554L42.4322 52.1521L42.3907 51.8496ZM43.0224 51.7528L43.0639 52.0553L43.1012 52.0496L43.136 52.0343L43.0224 51.7528ZM43.3976 51.5875L43.5112 51.869L43.5514 51.8513L43.585 51.8223L43.3976 51.5875ZM43.9312 51.1264L44.1185 51.3611L44.1494 51.3344L44.1724 51.3001L43.9312 51.1264ZM44.0761 50.9097L44.3172 51.0835L44.3305 51.0637L44.3406 51.042L44.0761 50.9097ZM44.5017 49.9962L44.7663 50.1284L44.777 50.1055L44.7839 50.0812L44.5017 49.9962ZM44.547 49.8361L44.8292 49.921L44.8408 49.88L44.8411 49.8373L44.547 49.8361ZM44.5593 48.3803L44.8534 48.3816L44.8536 48.3598L44.8508 48.3383L44.5593 48.3803ZM44.475 47.7264L44.7665 47.6844L44.7626 47.654L44.753 47.625L44.475 47.7264ZM44.0224 46.3698L44.3003 46.2684L44.2924 46.2446L44.2808 46.2225L44.0224 46.3698ZM43.5879 45.5409L43.8464 45.3936L43.8338 45.3695L43.8172 45.3482L43.5879 45.5409ZM42.7913 44.5141L43.0206 44.3214L43.0088 44.3062L42.9952 44.2927L42.7913 44.5141ZM41.7589 43.4867L41.5548 43.7079L41.555 43.7081L41.7589 43.4867ZM40.8993 42.63L41.1034 42.4088L41.0926 42.398L41.0808 42.3884L40.8993 42.63ZM38.6542 40.8118L38.8356 40.5702L38.8288 40.5647L38.8218 40.5596L38.6542 40.8118ZM37.8159 40.2119L37.6131 40.4344L37.6296 40.4506L37.6484 40.4641L37.8159 40.2119ZM37.2963 39.7001L37.4993 39.4775L37.49 39.4691L37.2963 39.7001ZM36.7443 39.2006L36.459 39.2762L36.4813 39.3689L36.5506 39.4316L36.7443 39.2006ZM36.6342 38.7436L36.9195 38.6679L36.6892 37.7122L36.3585 38.6384L36.6342 38.7436ZM36.0845 39.0098L36.344 39.2447L36.7315 38.7826L36.4719 38.5477L36.0845 39.0098ZM36.7041 39.2673L36.5629 38.7007L35.9935 38.8567L36.1346 39.4233L36.7041 39.2673ZM36.1437 39.2401L35.8887 39.9543L36.44 40.1647L36.695 39.4505L36.1437 39.2401ZM35.8846 39.9665L35.6639 40.6747L36.2233 40.8607L36.4441 40.1525L35.8846 39.9665ZM35.6814 40.6305L35.2214 41.5747L35.7459 41.8489L36.2058 40.9048L35.6814 40.6305ZM35.214 41.5911L34.0795 44.3055L34.6188 44.547L35.7533 41.8325L35.214 41.5911ZM34.0689 44.335L33.7085 45.5152L34.269 45.6977L34.6295 44.5175L34.0689 44.335ZM33.7085 45.5149L33.2748 46.9311L33.8353 47.1141L34.269 45.6979L33.7085 45.5149ZM33.2657 46.9694L33.0388 48.2676L33.6175 48.3741L33.8444 47.0759L33.2657 46.9694ZM33.0341 48.3223L33.0341 49.2665L33.6223 49.2635L33.6223 48.3194L33.0341 48.3223ZM33.038 49.3166L33.2649 50.7331L33.8452 50.6298L33.6183 49.2134L33.038 49.3166ZM33.2803 50.792L33.5072 51.4081L34.0567 51.187L33.8298 50.5709L33.2803 50.792ZM33.5248 51.4472L34.2055 52.7192L34.7198 52.4199L34.0391 51.1479L33.5248 51.4472ZM34.2541 52.7862L34.3675 52.9042L34.7846 52.4709L34.6712 52.3528L34.2541 52.7862ZM34.4043 52.9366L35.1984 53.5267L35.542 53.0286L34.7479 52.4385L34.4043 52.9366ZM35.2376 53.5512L35.4645 53.6692L35.7297 53.1221L35.5028 53.004L35.2376 53.5512ZM35.539 53.6957L36.2197 53.8349L36.3359 53.2348L35.6552 53.0956L35.539 53.6957ZM36.3054 53.8391L36.7108 53.7974L36.6557 53.1888L36.2502 53.2305L36.3054 53.8391ZM36.7838 53.7799L37.383 53.5503L37.1819 52.9766L36.5827 53.2062L36.7838 53.7799ZM37.4227 53.5315L37.7965 53.3187L37.5158 52.7826L37.1421 52.9954L37.4227 53.5315ZM37.8342 53.2931L38.3578 52.8764L38.0016 52.3915L37.4781 52.8082L37.8342 53.2931ZM38.3889 52.8478L38.8059 52.4069L38.3875 51.9792L37.9705 52.4201L38.3889 52.8478ZM38.7968 52.4161L39.0695 52.1516L38.6693 51.7054L38.3966 51.9699L38.7968 52.4161ZM39.1049 52.1105L39.5762 51.4533L39.1052 51.0893L38.6339 51.7464L39.1049 52.1105ZM39.5852 51.44L39.739 51.2001L39.2499 50.8627L39.0962 51.1026L39.5852 51.44ZM39.8046 50.8548L39.6322 50.7606L39.3567 51.3022L39.529 51.3964L39.8046 50.8548ZM40.5069 51.1899L39.7907 50.8476L39.5429 51.4035L40.2591 51.7458L40.5069 51.1899ZM40.8186 51.2681L40.4575 51.1717L40.3085 51.764L40.6697 51.8605L40.8186 51.2681ZM41.3998 51.4511L40.8308 51.2716L40.6576 51.8569L41.2266 52.0364L41.3998 51.4511ZM42.0111 51.5467L41.3597 51.4416L41.2667 52.0459L41.9181 52.151L42.0111 51.5467ZM42.3926 51.5438L41.9665 51.5431L41.9627 52.1547L42.3888 52.1554L42.3926 51.5438ZM42.9809 51.4503L42.3492 51.5471L42.4322 52.1521L43.0639 52.0553L42.9809 51.4503ZM43.284 51.3061L42.9087 51.4714L43.136 52.0343L43.5112 51.869L43.284 51.3061ZM43.7438 50.8916L43.2102 51.3528L43.585 51.8223L44.1185 51.3611L43.7438 50.8916ZM43.8349 50.736L43.69 50.9526L44.1724 51.3001L44.3172 51.0835L43.8349 50.736ZM44.2372 49.8639L43.8115 50.7775L44.3406 51.042L44.7663 50.1284L44.2372 49.8639ZM44.2649 49.7511L44.2196 49.9112L44.7839 50.0812L44.8292 49.921L44.2649 49.7511ZM44.2652 48.3791L44.2529 49.8348L44.8411 49.8373L44.8534 48.3816L44.2652 48.3791ZM44.1835 47.7685L44.2678 48.4224L44.8508 48.3383L44.7665 47.6844L44.1835 47.7685ZM43.7445 46.4713L44.1971 47.8279L44.753 47.625L44.3003 46.2684L43.7445 46.4713ZM43.3295 45.6882L43.764 46.5171L44.2808 46.2225L43.8464 45.3936L43.3295 45.6882ZM42.5621 44.7068L43.3587 45.7335L43.8172 45.3482L43.0206 44.3214L42.5621 44.7068ZM41.555 43.7081L42.5875 44.7355L42.9952 44.2927L41.9628 43.2653L41.555 43.7081ZM40.6953 42.8512L41.5548 43.7079L41.9629 43.2654L41.1034 42.4088L40.6953 42.8512ZM38.4728 41.0534L40.7179 42.8716L41.0808 42.3884L38.8356 40.5702L38.4728 41.0534ZM37.6484 40.4641L38.4867 41.0639L38.8218 40.5596L37.9835 39.9598L37.6484 40.4641ZM37.0935 39.9226L37.6131 40.4344L38.0187 39.9894L37.4991 39.4777L37.0935 39.9226ZM36.5506 39.4316L37.1026 39.9312L37.49 39.4691L36.938 38.9695L36.5506 39.4316ZM37.0296 39.1249L36.9195 38.6679L36.3489 38.8192L36.459 39.2762L37.0296 39.1249ZM36.3585 38.6384L36.2621 38.9084L36.8134 39.1188L36.9098 38.8488L36.3585 38.6384Z" fill="#706DFF" mask="url(#path-15-inside-5_450_6866)"/>
<mask id="path-17-inside-6_450_6866" fill="white">
<path fill-rule="evenodd" clip-rule="evenodd" d="M39.7609 37.2413L36.5458 39.0039L37.168 39.1067L37.2975 40.1794L40.2471 41.7136L41.6085 42.5398L42.9698 43.3659L44.4446 44.192L45.6926 44.8011L46.827 45.2596L47.6211 45.4133L48.3018 45.5092L49.1865 45.5092L49.4363 45.4902L49.7766 45.3722L49.8901 45.2596L50.117 45.0182L50.3439 44.5461L50.4573 43.3659L50.3439 42.4217L50.2259 41.7136L50.117 41.1235L50.0909 41.0198L50.127 40.8582L50.4649 40.5087L50.7574 40.2575L51.1875 39.9457L51.4742 39.7378L51.8553 39.4261L52.1381 39.1148L52.2324 39.011L52.4091 38.4931L52.4051 38.3897L52.4012 38.2862L52.3854 37.8724L52.2794 37.6659L52.0672 37.2527L51.7717 36.9284L51.6709 36.8129L51.5701 36.6973L51.4693 36.5817L51.1692 36.3531L50.6015 36.1641L50.4546 36.1196L49.3852 35.8085L48.1006 35.6056L46.6239 35.644L45.0511 35.8032L43.5791 36.078L42.304 36.3476L41.7157 36.4811L41.1273 36.6146L40.4429 36.8689L39.7609 37.2413Z"/>
</mask>
<path fill-rule="evenodd" clip-rule="evenodd" d="M39.7609 37.2413L36.5458 39.0039L37.168 39.1067L37.2975 40.1794L40.2471 41.7136L41.6085 42.5398L42.9698 43.3659L44.4446 44.192L45.6926 44.8011L46.827 45.2596L47.6211 45.4133L48.3018 45.5092L49.1865 45.5092L49.4363 45.4902L49.7766 45.3722L49.8901 45.2596L50.117 45.0182L50.3439 44.5461L50.4573 43.3659L50.3439 42.4217L50.2259 41.7136L50.117 41.1235L50.0909 41.0198L50.127 40.8582L50.4649 40.5087L50.7574 40.2575L51.1875 39.9457L51.4742 39.7378L51.8553 39.4261L52.1381 39.1148L52.2324 39.011L52.4091 38.4931L52.4051 38.3897L52.4012 38.2862L52.3854 37.8724L52.2794 37.6659L52.0672 37.2527L51.7717 36.9284L51.6709 36.8129L51.5701 36.6973L51.4693 36.5817L51.1692 36.3531L50.6015 36.1641L50.4546 36.1196L49.3852 35.8085L48.1006 35.6056L46.6239 35.644L45.0511 35.8032L43.5791 36.078L42.304 36.3476L41.7157 36.4811L41.1273 36.6146L40.4429 36.8689L39.7609 37.2413Z" fill="url(#paint4_linear_450_6866)"/>
<path d="M36.5458 39.0039L36.4068 38.7395L35.6393 39.1603L36.4928 39.3014L36.5458 39.0039ZM39.7609 37.2413L39.6224 36.9767L39.6219 36.9769L39.7609 37.2413ZM37.168 39.1067L37.4644 39.0653L37.4378 38.8451L37.2211 38.8092L37.168 39.1067ZM37.2975 40.1794L37.0011 40.2208L37.0199 40.3764L37.1572 40.4479L37.2975 40.1794ZM40.2471 41.7136L40.4041 41.4546L40.3959 41.4496L40.3874 41.4452L40.2471 41.7136ZM41.6085 42.5398L41.7654 42.2807L41.6085 42.5398ZM42.9698 43.3659L42.8128 43.6251L42.8216 43.6301L42.9698 43.3659ZM44.4446 44.192L44.2964 44.4562L44.3036 44.4602L44.311 44.4639L44.4446 44.192ZM45.6926 44.8011L45.5589 45.0729L45.5681 45.0774L45.5776 45.0812L45.6926 44.8011ZM46.827 45.2596L46.712 45.5397L46.7382 45.5503L46.766 45.5557L46.827 45.2596ZM47.6211 45.4133L47.5601 45.7094L47.5675 45.7108L47.575 45.7119L47.6211 45.4133ZM48.3018 45.5092L48.2557 45.8078L48.2761 45.8107L48.2968 45.8107L48.3018 45.5092ZM49.1865 45.5092L49.1815 45.8107L49.1927 45.8107L49.2039 45.8098L49.1865 45.5092ZM49.4363 45.4902L49.4537 45.7908L49.4922 45.7879L49.529 45.7752L49.4363 45.4902ZM49.7766 45.3722L49.8693 45.6571L49.9347 45.6345L49.9841 45.5854L49.7766 45.3722ZM49.8901 45.2596L50.0977 45.4729L50.105 45.4651L49.8901 45.2596ZM50.117 45.0182L50.3319 45.2237L50.3645 45.189L50.3851 45.146L50.117 45.0182ZM50.3439 44.5461L50.612 44.6739L50.6358 44.6245L50.641 44.5702L50.3439 44.5461ZM50.4573 43.3659L50.7545 43.39L50.7576 43.3572L50.7537 43.3246L50.4573 43.3659ZM50.3439 42.4217L50.6406 42.3804L50.6383 42.3668L50.3439 42.4217ZM50.2259 41.7136L50.5203 41.6587L50.5194 41.6536L50.2259 41.7136ZM50.117 41.1235L50.4105 41.0635L50.4088 41.054L50.4064 41.0447L50.117 41.1235ZM50.0909 41.0198L49.7997 40.9582L49.7839 41.0289L49.8014 41.0987L50.0909 41.0198ZM50.127 40.8582L49.9152 40.6494L49.8548 40.7118L49.8359 40.7965L50.127 40.8582ZM50.4649 40.5087L50.2737 40.2805L50.263 40.2898L50.2531 40.3L50.4649 40.5087ZM50.7574 40.2575L50.586 40.0137L50.5758 40.0211L50.5662 40.0293L50.7574 40.2575ZM51.1875 39.9457L51.0161 39.7018L51.0161 39.7018L51.1875 39.9457ZM51.4742 39.7378L51.6456 39.9816L51.6529 39.9764L51.6598 39.9708L51.4742 39.7378ZM51.8553 39.4261L52.0408 39.6591L52.0584 39.6447L52.0737 39.6278L51.8553 39.4261ZM52.1381 39.1148L51.9196 38.9131L51.9196 38.9131L52.1381 39.1148ZM52.2324 39.011L52.4508 39.2127L52.4938 39.1654L52.5145 39.1049L52.2324 39.011ZM52.4091 38.4931L52.6912 38.587L52.7096 38.5331L52.7074 38.4764L52.4091 38.4931ZM52.4051 38.3897L52.7035 38.373L52.7035 38.373L52.4051 38.3897ZM52.4012 38.2862L52.6995 38.2695L52.6995 38.2695L52.4012 38.2862ZM52.3854 37.8724L52.6838 37.8557L52.6812 37.789L52.651 37.7301L52.3854 37.8724ZM52.2794 37.6659L52.5449 37.5235L52.5449 37.5235L52.2794 37.6659ZM52.0672 37.2527L52.3327 37.1104L52.3148 37.0755L52.2885 37.0466L52.0672 37.2527ZM51.7717 36.9284L51.5462 37.1299L51.5505 37.1346L51.7717 36.9284ZM51.6709 36.8129L51.4454 37.0143L51.4454 37.0143L51.6709 36.8129ZM51.5701 36.6973L51.7956 36.4959L51.7956 36.4959L51.5701 36.6973ZM51.4693 36.5817L51.6948 36.3803L51.6752 36.3579L51.6516 36.3399L51.4693 36.5817ZM51.1692 36.3531L51.3515 36.1113L51.313 36.082L51.267 36.0667L51.1692 36.3531ZM50.6015 36.1641L50.6994 35.8775L50.6917 35.8752L50.6015 36.1641ZM50.4546 36.1196L50.5447 35.8307L50.5417 35.8298L50.4546 36.1196ZM49.3852 35.8085L49.4723 35.5188L49.4546 35.5136L49.4362 35.5107L49.3852 35.8085ZM48.1006 35.6056L48.1516 35.3077L48.125 35.3035L48.098 35.3042L48.1006 35.6056ZM46.6239 35.644L46.6212 35.3427L46.6101 35.343L46.5991 35.3441L46.6239 35.644ZM45.0511 35.8032L45.0263 35.5033L45.0139 35.5045L45.0016 35.5068L45.0511 35.8032ZM43.5791 36.078L43.5296 35.7815L43.5226 35.783L43.5791 36.078ZM42.304 36.3476L42.2475 36.0526L42.2432 36.0535L42.304 36.3476ZM41.7157 36.4811L41.7764 36.7752L41.7764 36.7752L41.7157 36.4811ZM41.1273 36.6146L41.0666 36.3206L41.0472 36.325L41.0285 36.3319L41.1273 36.6146ZM40.4429 36.8689L40.3441 36.5862L40.3236 36.5938L40.3044 36.6043L40.4429 36.8689ZM36.6848 39.2683L39.8999 37.5056L39.6219 36.9769L36.4068 38.7395L36.6848 39.2683ZM37.2211 38.8092L36.5989 38.7064L36.4928 39.3014L37.115 39.4042L37.2211 38.8092ZM36.8717 39.1482L37.0011 40.2208L37.5939 40.1379L37.4644 39.0653L36.8717 39.1482ZM37.1572 40.4479L40.1068 41.9821L40.3874 41.4452L37.4378 39.9109L37.1572 40.4479ZM40.0901 41.9727L41.4515 42.7988L41.7654 42.2807L40.4041 41.4546L40.0901 41.9727ZM41.4515 42.7988L42.8129 43.625L43.1268 43.1068L41.7654 42.2807L41.4515 42.7988ZM42.8216 43.6301L44.2964 44.4562L44.5928 43.9278L43.118 43.1017L42.8216 43.6301ZM44.311 44.4639L45.5589 45.0729L45.8262 44.5293L44.5782 43.9202L44.311 44.4639ZM45.5776 45.0812L46.712 45.5397L46.942 44.9795L45.8075 44.521L45.5776 45.0812ZM46.766 45.5557L47.5601 45.7094L47.6821 45.1172L46.888 44.9635L46.766 45.5557ZM47.575 45.7119L48.2557 45.8078L48.348 45.2107L47.6673 45.1148L47.575 45.7119ZM48.2968 45.8107L49.1815 45.8107L49.1916 45.2078L48.3069 45.2078L48.2968 45.8107ZM49.2039 45.8098L49.4537 45.7908L49.4189 45.1896L49.1691 45.2086L49.2039 45.8098ZM49.529 45.7752L49.8693 45.6571L49.684 45.0873L49.3436 45.2053L49.529 45.7752ZM49.9841 45.5854L50.0976 45.4727L49.6826 45.0464L49.5691 45.1591L49.9841 45.5854ZM50.105 45.4651L50.3319 45.2237L49.9021 44.8126L49.6752 45.054L50.105 45.4651ZM50.3851 45.146L50.612 44.6739L50.0757 44.4182L49.8488 44.8903L50.3851 45.146ZM50.641 44.5702L50.7545 43.39L50.1602 43.3418L50.0467 44.522L50.641 44.5702ZM50.7537 43.3246L50.6403 42.3804L50.0475 42.463L50.1609 43.4072L50.7537 43.3246ZM50.6383 42.3668L50.5203 41.6587L49.9314 41.7685L50.0494 42.4767L50.6383 42.3668ZM50.5194 41.6536L50.4105 41.0635L49.8234 41.1836L49.9323 41.7737L50.5194 41.6536ZM50.4064 41.0447L50.3803 40.9409L49.8014 41.0987L49.8275 41.2024L50.4064 41.0447ZM49.8359 40.7965L49.7997 40.9582L50.382 41.0815L50.4182 40.9198L49.8359 40.7965ZM50.2531 40.3L49.9152 40.6494L50.3389 41.0669L50.6768 40.7174L50.2531 40.3ZM50.5662 40.0293L50.2737 40.2805L50.6561 40.7369L50.9486 40.4857L50.5662 40.0293ZM51.0161 39.7018L50.586 40.0137L50.9288 40.5014L51.3589 40.1895L51.0161 39.7018ZM51.3028 39.494L51.0161 39.7018L51.3589 40.1895L51.6456 39.9816L51.3028 39.494ZM51.6697 39.1932L51.2887 39.5048L51.6598 39.9708L52.0408 39.6591L51.6697 39.1932ZM51.9196 38.9131L51.6368 39.2244L52.0737 39.6278L52.3565 39.3165L51.9196 38.9131ZM52.0139 38.8093L51.9196 38.9131L52.3565 39.3165L52.4508 39.2127L52.0139 38.8093ZM52.127 38.3993L51.9503 38.9172L52.5145 39.1049L52.6912 38.587L52.127 38.3993ZM52.1068 38.4064L52.1108 38.5098L52.7074 38.4764L52.7035 38.373L52.1068 38.4064ZM52.1029 38.3029L52.1068 38.4064L52.7035 38.373L52.6995 38.2695L52.1029 38.3029ZM52.0871 37.8891L52.1029 38.3029L52.6995 38.2695L52.6838 37.8557L52.0871 37.8891ZM52.0138 37.8082L52.1199 38.0147L52.651 37.7301L52.5449 37.5235L52.0138 37.8082ZM51.8016 37.395L52.0138 37.8082L52.5449 37.5235L52.3327 37.1104L51.8016 37.395ZM51.5505 37.1346L51.8459 37.4588L52.2885 37.0466L51.993 36.7223L51.5505 37.1346ZM51.4454 37.0143L51.5463 37.1298L51.9972 36.727L51.8964 36.6115L51.4454 37.0143ZM51.3446 36.8987L51.4454 37.0143L51.8964 36.6115L51.7956 36.4959L51.3446 36.8987ZM51.2438 36.7831L51.3446 36.8987L51.7956 36.4959L51.6948 36.3803L51.2438 36.7831ZM50.9868 36.5949L51.2869 36.8235L51.6516 36.3399L51.3515 36.1113L50.9868 36.5949ZM50.5037 36.4505L51.0713 36.6395L51.267 36.0667L50.6993 35.8776L50.5037 36.4505ZM50.3644 36.4085L50.5113 36.453L50.6917 35.8752L50.5447 35.8307L50.3644 36.4085ZM49.2981 36.0983L50.3674 36.4094L50.5417 35.8298L49.4723 35.5188L49.2981 36.0983ZM48.0496 35.9034L49.3342 36.1064L49.4362 35.5107L48.1516 35.3077L48.0496 35.9034ZM46.6265 35.9454L48.1033 35.9069L48.098 35.3042L46.6212 35.3427L46.6265 35.9454ZM45.0758 36.1031L46.6487 35.944L46.5991 35.3441L45.0263 35.5033L45.0758 36.1031ZM43.6285 36.3743L45.1005 36.0996L45.0016 35.5068L43.5296 35.7816L43.6285 36.3743ZM42.3604 36.6426L43.6355 36.373L43.5226 35.783L42.2475 36.0526L42.3604 36.6426ZM41.7764 36.7752L42.3647 36.6416L42.2432 36.0535L41.6549 36.1871L41.7764 36.7752ZM41.1881 36.9087L41.7764 36.7752L41.6549 36.1871L41.0666 36.3206L41.1881 36.9087ZM40.5418 37.1516L41.2262 36.8973L41.0285 36.3319L40.3441 36.5862L40.5418 37.1516ZM39.8995 37.5059L40.5815 37.1335L40.3044 36.6043L39.6224 36.9767L39.8995 37.5059Z" fill="#706DFF" mask="url(#path-17-inside-6_450_6866)"/>
<mask id="path-19-inside-7_450_6866" fill="white">
<path fill-rule="evenodd" clip-rule="evenodd" d="M36.0831 39.5033L36.1395 39.8364L36.2902 39.4587L36.8863 39.3302L38.588 37.6779L39.4956 36.8518L40.5166 35.9077L41.0839 35.4356L41.6183 34.9635L42.4967 34.2554L43.5797 33.3112L44.4302 32.6031L45.1369 32.013L46.2134 30.7148L46.8696 29.5346L47.2226 28.3491L47.3006 26.9156L47.0612 26.1471L46.2134 25.3094L45.581 25.028L45.1369 24.9195L44.4302 24.882L43.7896 24.9573L43.3876 24.9836L42.4967 25.1189L41.8808 25.171L41.7686 25.2014L41.4287 24.7299L40.9752 24.0043L40.748 23.7017L40.4077 23.1956L39.9539 22.7236L39.6136 22.4875L39.0463 22.2422H37.9866L37.3417 22.6224L36.8908 23.0776L36.4573 23.7017L35.9997 24.9802L35.5904 26.6381L35.3568 27.9563L35.1715 29.6538L35.1406 31.1315L35.1735 32.2496L35.2334 33.867L35.4054 35.5042L35.9901 38.9546L35.734 39.5786L36.0831 39.5033Z"/>
</mask>
<path fill-rule="evenodd" clip-rule="evenodd" d="M36.0831 39.5033L36.1395 39.8364L36.2902 39.4587L36.8863 39.3302L38.588 37.6779L39.4956 36.8518L40.5166 35.9077L41.0839 35.4356L41.6183 34.9635L42.4967 34.2554L43.5797 33.3112L44.4302 32.6031L45.1369 32.013L46.2134 30.7148L46.8696 29.5346L47.2226 28.3491L47.3006 26.9156L47.0612 26.1471L46.2134 25.3094L45.581 25.028L45.1369 24.9195L44.4302 24.882L43.7896 24.9573L43.3876 24.9836L42.4967 25.1189L41.8808 25.171L41.7686 25.2014L41.4287 24.7299L40.9752 24.0043L40.748 23.7017L40.4077 23.1956L39.9539 22.7236L39.6136 22.4875L39.0463 22.2422H37.9866L37.3417 22.6224L36.8908 23.0776L36.4573 23.7017L35.9997 24.9802L35.5904 26.6381L35.3568 27.9563L35.1715 29.6538L35.1406 31.1315L35.1735 32.2496L35.2334 33.867L35.4054 35.5042L35.9901 38.9546L35.734 39.5786L36.0831 39.5033Z" fill="url(#paint5_linear_450_6866)"/>
<path d="M36.1395 39.8364L35.8438 39.8865L36.0223 40.9401L36.4182 39.9475L36.1395 39.8364ZM36.0831 39.5033L36.3789 39.4532L36.3265 39.144L36.0199 39.2101L36.0831 39.5033ZM36.2902 39.4587L36.227 39.1654L36.0707 39.1991L36.0115 39.3475L36.2902 39.4587ZM36.8863 39.3302L36.9495 39.6235L37.0336 39.6053L37.0953 39.5454L36.8863 39.3302ZM38.588 37.6779L38.386 37.456L38.379 37.4627L38.588 37.6779ZM39.4956 36.8518L39.6975 37.0737L39.6993 37.0721L39.4956 36.8518ZM40.5166 35.9077L40.3247 35.6771L40.3187 35.6821L40.3129 35.6874L40.5166 35.9077ZM41.0839 35.4356L41.2758 35.6663L41.2825 35.6604L41.0839 35.4356ZM41.6183 34.9635L41.4298 34.7297L41.4197 34.7387L41.6183 34.9635ZM42.4967 34.2554L42.6851 34.4891L42.6938 34.4815L42.4967 34.2554ZM43.5797 33.3112L43.3877 33.0806L43.3825 33.0851L43.5797 33.3112ZM44.4302 32.6031L44.6222 32.8337L44.6225 32.8334L44.4302 32.6031ZM45.1369 32.013L45.3292 32.2433L45.3503 32.2257L45.3678 32.2045L45.1369 32.013ZM46.2134 30.7148L46.4443 30.9063L46.462 30.8849L46.4756 30.8606L46.2134 30.7148ZM46.8696 29.5346L47.1318 29.6804L47.1478 29.6517L47.1572 29.6202L46.8696 29.5346ZM47.2226 28.3491L47.5101 28.4346L47.5202 28.4007L47.5221 28.3654L47.2226 28.3491ZM47.3006 26.9156L47.6001 26.9319L47.6031 26.878L47.587 26.8264L47.3006 26.9156ZM47.0612 26.1471L47.3476 26.0579L47.3254 25.9863L47.2721 25.9337L47.0612 26.1471ZM46.2134 25.3094L46.4242 25.096L46.3853 25.0576L46.3353 25.0353L46.2134 25.3094ZM45.581 25.028L45.7029 24.7539L45.6783 24.7429L45.6521 24.7365L45.581 25.028ZM45.1369 24.9195L45.208 24.6281L45.1808 24.6215L45.1528 24.62L45.1369 24.9195ZM44.4302 24.882L44.4461 24.5825L44.4206 24.5811L44.3952 24.5841L44.4302 24.882ZM43.7896 24.9573L43.8092 25.2567L43.8169 25.2562L43.8246 25.2553L43.7896 24.9573ZM43.3876 24.9836L43.3681 24.6843L43.3553 24.6851L43.3426 24.687L43.3876 24.9836ZM42.4967 25.1189L42.522 25.4178L42.5319 25.417L42.5417 25.4155L42.4967 25.1189ZM41.8808 25.171L41.8555 24.8721L41.8285 24.8744L41.8024 24.8814L41.8808 25.171ZM41.7686 25.2014L41.5253 25.3768L41.6467 25.5451L41.847 25.491L41.7686 25.2014ZM41.4287 24.7299L41.1743 24.8889L41.1796 24.8973L41.1854 24.9053L41.4287 24.7299ZM40.9752 24.0043L41.2296 23.8453L41.2228 23.8344L41.2151 23.8241L40.9752 24.0043ZM40.748 23.7017L40.4991 23.8691L40.5034 23.8756L40.5081 23.8818L40.748 23.7017ZM40.4077 23.1956L40.6566 23.0282L40.6421 23.0066L40.624 22.9877L40.4077 23.1956ZM39.9539 22.7236L40.1702 22.5157L40.1495 22.4941L40.1249 22.4771L39.9539 22.7236ZM39.6136 22.4875L39.7845 22.241L39.76 22.224L39.7327 22.2122L39.6136 22.4875ZM39.0463 22.2422L39.1654 21.9668L39.1084 21.9422H39.0463V22.2422ZM37.9866 22.2422V21.9422H37.9048L37.8343 21.9837L37.9866 22.2422ZM37.3417 22.6224L37.1893 22.3639L37.1558 22.3837L37.1285 22.4113L37.3417 22.6224ZM36.8908 23.0776L36.6776 22.8665L36.6592 22.885L36.6444 22.9065L36.8908 23.0776ZM36.4573 23.7017L36.2109 23.5306L36.1883 23.5632L36.1749 23.6006L36.4573 23.7017ZM35.9997 24.9802L35.7173 24.8791L35.7121 24.8935L35.7085 24.9083L35.9997 24.9802ZM35.5904 26.6381L35.2991 26.5662L35.2967 26.5759L35.295 26.5857L35.5904 26.6381ZM35.3568 27.9563L35.0614 27.9039L35.0596 27.9138L35.0585 27.9237L35.3568 27.9563ZM35.1715 29.6538L34.8732 29.6212L34.8718 29.6343L34.8715 29.6475L35.1715 29.6538ZM35.1406 31.1315L34.8407 31.1252L34.8405 31.1327L34.8408 31.1403L35.1406 31.1315ZM35.1735 32.2496L34.8736 32.2585L34.8737 32.2608L35.1735 32.2496ZM35.2334 33.867L34.9337 33.8781L34.934 33.8882L34.9351 33.8983L35.2334 33.867ZM35.4054 35.5042L35.107 35.5355L35.108 35.5449L35.1096 35.5543L35.4054 35.5042ZM35.9901 38.9546L36.2677 39.0686L36.3002 38.9891L36.2859 38.9045L35.9901 38.9546ZM35.734 39.5786L35.4565 39.4646L35.2401 39.9919L35.7973 39.8718L35.734 39.5786ZM36.4353 39.7862L36.3789 39.4532L35.7873 39.5534L35.8438 39.8865L36.4353 39.7862ZM36.0115 39.3475L35.8609 39.7252L36.4182 39.9475L36.5688 39.5698L36.0115 39.3475ZM36.3534 39.752L36.9495 39.6235L36.8231 39.0369L36.227 39.1654L36.3534 39.752ZM37.0953 39.5454L38.797 37.8932L38.379 37.4627L36.6773 39.115L37.0953 39.5454ZM38.79 37.8998L39.6975 37.0737L39.2937 36.6299L38.3861 37.4561L38.79 37.8998ZM39.6993 37.0721L40.7203 36.1279L40.3129 35.6874L39.2919 36.6315L39.6993 37.0721ZM40.7085 36.1382L41.2758 35.6662L40.8919 35.205L40.3247 35.6771L40.7085 36.1382ZM41.2825 35.6604L41.8169 35.1884L41.4197 34.7387L40.8852 35.2107L41.2825 35.6604ZM41.8066 35.1971L42.685 34.4889L42.3084 34.0218L41.43 34.7299L41.8066 35.1971ZM42.6938 34.4815L43.7768 33.5374L43.3825 33.0851L42.2995 34.0293L42.6938 34.4815ZM43.7716 33.5418L44.6222 32.8337L44.2383 32.3726L43.3877 33.0807L43.7716 33.5418ZM44.6225 32.8334L45.3292 32.2433L44.9446 31.7828L44.2379 32.3729L44.6225 32.8334ZM45.3678 32.2045L46.4443 30.9063L45.9824 30.5233L44.9059 31.8215L45.3678 32.2045ZM46.4756 30.8606L47.1318 29.6804L46.6074 29.3889L45.9512 30.569L46.4756 30.8606ZM47.1572 29.6202L47.5101 28.4346L46.935 28.2635L46.5821 29.4491L47.1572 29.6202ZM47.5221 28.3654L47.6001 26.9319L47.001 26.8993L46.923 28.3327L47.5221 28.3654ZM47.587 26.8264L47.3476 26.0579L46.7748 26.2363L47.0141 27.0048L47.587 26.8264ZM47.2721 25.9337L46.4242 25.096L46.0025 25.5228L46.8504 26.3605L47.2721 25.9337ZM46.3353 25.0353L45.7029 24.7539L45.459 25.3021L46.0914 25.5835L46.3353 25.0353ZM45.6521 24.7365L45.208 24.6281L45.0657 25.211L45.5098 25.3194L45.6521 24.7365ZM45.1528 24.62L44.4461 24.5825L44.4143 25.1816L45.121 25.2191L45.1528 24.62ZM44.3952 24.5841L43.7546 24.6594L43.8246 25.2553L44.4652 25.18L44.3952 24.5841ZM43.77 24.658L43.3681 24.6843L43.4072 25.283L43.8092 25.2567L43.77 24.658ZM43.3426 24.687L42.4517 24.8223L42.5417 25.4155L43.4326 25.2802L43.3426 24.687ZM42.4714 24.8199L41.8555 24.8721L41.9061 25.47L42.522 25.4178L42.4714 24.8199ZM41.8024 24.8814L41.6903 24.9118L41.847 25.491L41.9591 25.4606L41.8024 24.8814ZM41.1854 24.9053L41.5253 25.3768L42.012 25.0259L41.6721 24.5544L41.1854 24.9053ZM40.7208 24.1633L41.1743 24.8889L41.6831 24.5709L41.2296 23.8453L40.7208 24.1633ZM40.5081 23.8818L40.7353 24.1844L41.2151 23.8241L40.9879 23.5216L40.5081 23.8818ZM40.1588 23.3631L40.4991 23.8691L40.997 23.5343L40.6566 23.0282L40.1588 23.3631ZM39.7376 22.9315L40.1914 23.4035L40.624 22.9877L40.1702 22.5157L39.7376 22.9315ZM39.4426 22.734L39.7829 22.9701L40.1249 22.4771L39.7845 22.241L39.4426 22.734ZM38.9272 22.5175L39.4945 22.7629L39.7327 22.2122L39.1654 21.9668L38.9272 22.5175ZM37.9866 22.5422H39.0463V21.9422H37.9866V22.5422ZM37.494 22.8808L38.139 22.5006L37.8343 21.9837L37.1893 22.3639L37.494 22.8808ZM37.1039 23.2887L37.5548 22.8335L37.1285 22.4113L36.6776 22.8665L37.1039 23.2887ZM36.7038 23.8728L37.1372 23.2487L36.6444 22.9065L36.2109 23.5306L36.7038 23.8728ZM36.2822 25.0813L36.7398 23.8028L36.1749 23.6006L35.7173 24.8791L36.2822 25.0813ZM35.8816 26.71L36.291 25.0521L35.7085 24.9083L35.2991 26.5662L35.8816 26.71ZM35.6522 28.0086L35.8858 26.6904L35.295 26.5857L35.0614 27.9039L35.6522 28.0086ZM35.4697 29.6863L35.655 27.9888L35.0585 27.9237L34.8732 29.6212L35.4697 29.6863ZM35.4406 31.1377L35.4714 29.66L34.8715 29.6475L34.8407 31.1252L35.4406 31.1377ZM35.4734 32.2408L35.4405 31.1226L34.8408 31.1403L34.8736 32.2585L35.4734 32.2408ZM35.5332 33.8559L35.4733 32.2385L34.8737 32.2608L34.9337 33.8781L35.5332 33.8559ZM35.7038 35.4728L35.5318 33.8357L34.9351 33.8983L35.107 35.5355L35.7038 35.4728ZM36.2859 38.9045L35.7012 35.454L35.1096 35.5543L35.6943 39.0048L36.2859 38.9045ZM35.7126 38.8407L35.4565 39.4646L36.0116 39.6925L36.2677 39.0686L35.7126 38.8407ZM35.7973 39.8718L36.1463 39.7966L36.0199 39.2101L35.6708 39.2853L35.7973 39.8718Z" fill="#706DFF" mask="url(#path-19-inside-7_450_6866)"/>
<path d="M36.3134 39.9173L35.2275 40.0194L34.5729 40.1197L33.9723 40.2197L33.4418 40.2969L31.2863 40.651L30.4922 40.887L29.3577 41.4771L28.9039 41.8312L28.1099 42.7753" stroke="#706DFF" stroke-width="0.3"/>
<path d="M36.5028 39.5585L36.6084 41.0142L36.7134 41.8629L36.7567 42.2925L36.8 42.7222L36.9075 43.1851L37.1225 44.111L37.4018 45.07L37.6811 46.0291L38.0459 46.9306L38.7327 48.6099" stroke="#706DFF" stroke-width="0.3"/>
<path d="M47.054 40.181L45.6926 39.8269L44.8852 39.6634L44.4796 39.5708L44.074 39.4782L43.6178 39.4386L42.7054 39.3594L41.7424 39.3332L40.7794 39.307L39.842 39.3833L38.0936 39.5327" stroke="#706DFF" stroke-width="0.3"/>
<path d="M30.0386 30.6185L30.3789 32.0346L30.6058 32.7427L30.8327 33.2148L31.0596 33.6869L31.4 34.159L32.0806 35.1031L32.8748 36.0473L33.6689 36.9914L34.5765 37.8175L36.2784 39.3521" stroke="#706DFF" stroke-width="0.3"/>
<path d="M40.4668 28.4199L39.3399 30.6201L38.2054 33.5706L36.3827 39.5137" stroke="#706DFF" stroke-width="0.3"/>
<path d="M37.9432 39.4703C37.9432 40.436 37.1921 41.2086 36.278 41.2086C35.3639 41.2086 34.6129 40.436 34.6129 39.4703C34.6129 38.5047 35.3639 37.732 36.278 37.732C37.1921 37.732 37.9432 38.5047 37.9432 39.4703Z" fill="white" stroke="black" stroke-width="0.3"/>
<defs>
<filter id="filter0_d_450_6866" x="20.3008" y="0" width="32.2998" height="32.3008" filterUnits="userSpaceOnUse" color-interpolation-filters="sRGB">
<feFlood flood-opacity="0" result="BackgroundImageFix"/>
<feColorMatrix in="SourceAlpha" type="matrix" values="0 0 0 0 0 0 0 0 0 0 0 0 0 0 0 0 0 0 127 0" result="hardAlpha"/>
<feOffset/>
<feGaussianBlur stdDeviation="2"/>
<feComposite in2="hardAlpha" operator="out"/>
<feColorMatrix type="matrix" values="0 0 0 0 0.709804 0 0 0 0 0.760784 0 0 0 0 0.862745 0 0 0 0.5 0"/>
<feBlend mode="normal" in2="BackgroundImageFix" result="effect1_dropShadow_450_6866"/>
<feBlend mode="normal" in="SourceGraphic" in2="effect1_dropShadow_450_6866" result="shape"/>
</filter>
<linearGradient id="paint0_linear_450_6866" x1="13.3887" y1="14.6875" x2="13.3887" y2="50.6877" gradientUnits="userSpaceOnUse">
<stop stop-color="#FBFCCB"/>
<stop offset="0.253125" stop-color="#FEE383"/>
<stop offset="0.628125" stop-color="#FFA9F1"/>
<stop offset="1" stop-color="#CBE3FF"/>
</linearGradient>
<linearGradient id="paint1_linear_450_6866" x1="25.1281" y1="27.66" x2="38.1656" y2="34.3677" gradientUnits="userSpaceOnUse">
<stop stop-color="#B0D4F5"/>
<stop offset="0.378125" stop-color="#F3C1EE"/>
<stop offset="0.669792" stop-color="#F9DEC2"/>
<stop offset="1" stop-color="#FFFBA0" stop-opacity="0.57"/>
</linearGradient>
<linearGradient id="paint2_linear_450_6866" x1="24.1698" y1="44.2274" x2="36.8593" y2="42.8118" gradientUnits="userSpaceOnUse">
<stop stop-color="#B0D4F5"/>
<stop offset="0.378125" stop-color="#F3C1EE"/>
<stop offset="0.669792" stop-color="#F9DEC2"/>
<stop offset="1" stop-color="#FFFBA0" stop-opacity="0.57"/>
</linearGradient>
<linearGradient id="paint3_linear_450_6866" x1="42.1863" y1="52.7308" x2="32.5279" y2="42.2274" gradientUnits="userSpaceOnUse">
<stop stop-color="#B0D4F5"/>
<stop offset="0.378125" stop-color="#F3C1EE"/>
<stop offset="0.669792" stop-color="#F9DEC2"/>
<stop offset="1" stop-color="#FFFBA0" stop-opacity="0.57"/>
</linearGradient>
<linearGradient id="paint4_linear_450_6866" x1="52.6769" y1="39.0202" x2="37.5269" y2="42.8672" gradientUnits="userSpaceOnUse">
<stop stop-color="#B0D4F5"/>
<stop offset="0.378125" stop-color="#F3C1EE"/>
<stop offset="0.669792" stop-color="#F9DEC2"/>
<stop offset="1" stop-color="#FFFBA0" stop-opacity="0.57"/>
</linearGradient>
<linearGradient id="paint5_linear_450_6866" x1="41.2207" y1="22.2422" x2="41.2207" y2="39.8364" gradientUnits="userSpaceOnUse">
<stop stop-color="#B0D4F5"/>
<stop offset="0.378125" stop-color="#F3C1EE"/>
<stop offset="0.669792" stop-color="#F9DEC2"/>
<stop offset="1" stop-color="#FFFBA0" stop-opacity="0.57"/>
</linearGradient>
</defs>
</svg>
