<svg width="54" height="57" viewBox="0 0 54 57" fill="none" xmlns="http://www.w3.org/2000/svg">
<rect x="0.15" y="13.9918" width="26.3364" height="38.9068" rx="2.85" fill="white" stroke="black" stroke-width="0.3"/>
<rect x="9.59434" y="8.81602" width="7.44877" height="5.37142" fill="white" stroke="black" stroke-width="0.3"/>
<rect x="11.0475" y="4.86875" width="4.54298" height="4.1385" fill="white" stroke="black" stroke-width="0.3"/>
<path d="M3.12443 15.1871H23.6645C24.7207 15.1871 25.5626 16.0699 25.5124 17.125L23.9911 49.1252C23.9443 50.1116 23.1308 50.8873 22.1432 50.8873H4.87976C3.8974 50.8873 3.08635 50.1195 3.03254 49.1386L1.27721 17.1384C1.21907 16.0785 2.06289 15.1871 3.12443 15.1871Z" stroke="black" stroke-width="0.3"/>
<mask id="path-5-inside-1_450_6705" fill="white">
<path fill-rule="evenodd" clip-rule="evenodd" d="M2.49219 42L2.88422 49.1469C2.94239 50.2073 3.81921 51.0373 4.88122 51.0373H22.1447C23.2123 51.0373 24.0917 50.1987 24.1424 49.1323L24.4815 42H2.49219Z"/>
</mask>
<path fill-rule="evenodd" clip-rule="evenodd" d="M2.49219 42L2.88422 49.1469C2.94239 50.2073 3.81921 51.0373 4.88122 51.0373H22.1447C23.2123 51.0373 24.0917 50.1987 24.1424 49.1323L24.4815 42H2.49219Z" fill="url(#paint0_linear_450_6705)"/>
<path d="M2.88422 49.1469L3.18377 49.1304L3.18377 49.1304L2.88422 49.1469ZM2.49219 42V41.7H2.17528L2.19264 42.0164L2.49219 42ZM24.1424 49.1323L23.8428 49.118L23.8428 49.118L24.1424 49.1323ZM24.4815 42L24.7812 42.0142L24.7961 41.7H24.4815V42ZM3.18377 49.1304L2.79174 41.9836L2.19264 42.0164L2.58467 49.1633L3.18377 49.1304ZM4.88122 50.7373C3.97851 50.7373 3.23321 50.0318 3.18377 49.1304L2.58467 49.1633C2.65156 50.3828 3.65991 51.3373 4.88122 51.3373V50.7373ZM22.1447 50.7373H4.88122V51.3373H22.1447V50.7373ZM23.8428 49.118C23.7997 50.0245 23.0522 50.7373 22.1447 50.7373V51.3373C23.3725 51.3373 24.3838 50.3729 24.4421 49.1465L23.8428 49.118ZM24.1818 41.9858L23.8428 49.118L24.4421 49.1465L24.7812 42.0142L24.1818 41.9858ZM24.4815 41.7H2.49219V42.3H24.4815V41.7Z" fill="black" mask="url(#path-5-inside-1_450_6705)"/>
<g filter="url(#filter0_d_450_6705)">
<circle cx="36.4497" cy="16.4995" r="12.1499" fill="white"/>
</g>
<path d="M37.6947 11.5V20.2273H35.8495V13.2514H35.7984L33.7998 14.5043V12.8679L35.9603 11.5H37.6947Z" fill="black"/>
<mask id="path-9-inside-2_450_6705" fill="white">
<path fill-rule="evenodd" clip-rule="evenodd" d="M12.4867 15.0996C12.4704 16.0272 12.4619 16.9688 12.4619 17.922C12.4619 41.3313 14.7798 45.8084 16.345 44.7851C16.8645 44.4454 16.7982 44.2185 16.4776 43.1223C15.8323 40.9155 14.157 35.1858 14.157 17.922C14.157 16.9688 14.1735 16.0272 14.2041 15.0996H12.4867Z"/>
</mask>
<path fill-rule="evenodd" clip-rule="evenodd" d="M12.4867 15.0996C12.4704 16.0272 12.4619 16.9688 12.4619 17.922C12.4619 41.3313 14.7798 45.8084 16.345 44.7851C16.8645 44.4454 16.7982 44.2185 16.4776 43.1223C15.8323 40.9155 14.157 35.1858 14.157 17.922C14.157 16.9688 14.1735 16.0272 14.2041 15.0996H12.4867Z" fill="white"/>
<path d="M12.4867 15.0996V14.7996H12.192L12.1868 15.0943L12.4867 15.0996ZM16.345 44.7851L16.1809 44.534L16.1809 44.534L16.345 44.7851ZM16.4776 43.1223L16.7656 43.0381L16.7656 43.0381L16.4776 43.1223ZM14.2041 15.0996L14.504 15.1095L14.5142 14.7996H14.2041V15.0996ZM12.7619 17.922C12.7619 16.9706 12.7704 16.0307 12.7867 15.1049L12.1868 15.0943C12.1704 16.0237 12.1619 16.967 12.1619 17.922H12.7619ZM16.1809 44.534C16.0462 44.622 15.933 44.6362 15.8226 44.5998C15.6973 44.5586 15.5257 44.4356 15.3258 44.1424C14.9244 43.5535 14.4969 42.4089 14.1108 40.4575C13.3416 36.5698 12.7619 29.6222 12.7619 17.922H12.1619C12.1619 29.6311 12.7412 36.6267 13.5222 40.574C13.9112 42.5402 14.3567 43.786 14.8301 44.4804C15.0676 44.8287 15.3339 45.0706 15.6349 45.1697C15.9509 45.2738 16.2526 45.2039 16.5092 45.0362L16.1809 44.534ZM16.1897 43.2065C16.2706 43.4832 16.3323 43.6947 16.3734 43.8665C16.4149 44.0402 16.4292 44.1502 16.4265 44.2269C16.4242 44.2931 16.4096 44.3287 16.3862 44.3612C16.3565 44.4027 16.2995 44.4564 16.1809 44.534L16.5092 45.0362C16.6503 44.9439 16.7798 44.8419 16.8737 44.711C16.974 44.5712 17.0202 44.4179 17.0261 44.2479C17.0317 44.0884 17.0018 43.9149 16.957 43.7271C16.9117 43.5374 16.8449 43.3095 16.7656 43.0381L16.1897 43.2065ZM13.857 17.922C13.857 35.2085 15.5349 40.9673 16.1897 43.2065L16.7656 43.0381C16.1298 40.8637 14.457 35.1632 14.457 17.922H13.857ZM13.9043 15.0897C13.8736 16.0204 13.857 16.9653 13.857 17.922H14.457C14.457 16.9723 14.4735 16.034 14.504 15.1095L13.9043 15.0897ZM14.2041 14.7996H12.4867V15.3996H14.2041V14.7996Z" fill="black" mask="url(#path-9-inside-2_450_6705)"/>
<mask id="path-11-inside-3_450_6705" fill="white">
<path fill-rule="evenodd" clip-rule="evenodd" d="M35.5945 39.4521L35.7228 39.4654L35.6364 39.32L35.7405 38.9916L35.4196 36.7895L35.2838 35.641L35.1217 34.3421L35.0653 33.6452L34.9946 32.9757L34.922 31.9074L34.7868 30.5567L34.7021 29.5116L34.6306 28.6426L34.265 27.1299L33.7922 26.024L33.2185 25.4011L32.7857 25.1549L32.1281 25.0298L31.4636 25.1083L30.7947 25.3157L30.2303 25.6957L29.8873 26.0501L29.5402 26.5264L29.305 26.955L29.0492 27.5894L28.8467 28.0544L27.8846 27.8996L27.3173 27.7815L26.8636 27.7815L26.5232 27.7815L25.956 27.7815L25.3092 28.0535L24.7597 28.7257L24.6251 29.0797L24.4494 30.1344L24.4441 31.0094L24.6251 32.3731L25.3094 33.7064L26.6471 35.4527L27.4412 36.2896L28.6787 37.105L29.8236 37.7339L31.0558 38.2852L31.9791 38.6392L33.3404 39.1109L34.5883 39.3473L35.0058 39.3908L35.3982 40.0714L35.5945 39.4521Z"/>
</mask>
<path fill-rule="evenodd" clip-rule="evenodd" d="M35.5945 39.4521L35.7228 39.4654L35.6364 39.32L35.7405 38.9916L35.4196 36.7895L35.2838 35.641L35.1217 34.3421L35.0653 33.6452L34.9946 32.9757L34.922 31.9074L34.7868 30.5567L34.7021 29.5116L34.6306 28.6426L34.265 27.1299L33.7922 26.024L33.2185 25.4011L32.7857 25.1549L32.1281 25.0298L31.4636 25.1083L30.7947 25.3157L30.2303 25.6957L29.8873 26.0501L29.5402 26.5264L29.305 26.955L29.0492 27.5894L28.8467 28.0544L27.8846 27.8996L27.3173 27.7815L26.8636 27.7815L26.5232 27.7815L25.956 27.7815L25.3092 28.0535L24.7597 28.7257L24.6251 29.0797L24.4494 30.1344L24.4441 31.0094L24.6251 32.3731L25.3094 33.7064L26.6471 35.4527L27.4412 36.2896L28.6787 37.105L29.8236 37.7339L31.0558 38.2852L31.9791 38.6392L33.3404 39.1109L34.5883 39.3473L35.0058 39.3908L35.3982 40.0714L35.5945 39.4521Z" fill="url(#paint1_linear_450_6705)"/>
<path d="M35.7228 39.4654L35.6983 39.768L36.2826 39.8288L35.9745 39.3104L35.7228 39.4654ZM35.5945 39.4521L35.619 39.1496L35.3853 39.1252L35.313 39.3532L35.5945 39.4521ZM35.6364 39.32L35.3549 39.2211L35.3127 39.3541L35.3846 39.4751L35.6364 39.32ZM35.7405 38.9916L36.0219 39.0905L36.0434 39.0229L36.033 38.952L35.7405 38.9916ZM35.4196 36.7895L35.1258 36.8207L35.127 36.8291L35.4196 36.7895ZM35.2838 35.641L35.5775 35.6098L35.5773 35.6078L35.2838 35.641ZM35.1217 34.3421L34.8265 34.3618L34.8282 34.3753L35.1217 34.3421ZM35.0653 33.6452L35.3602 33.6255L35.3594 33.6179L35.0653 33.6452ZM34.9946 32.9757L34.6992 32.9914L34.7005 33.003L34.9946 32.9757ZM34.922 31.9074L35.2173 31.8917L35.2163 31.8818L34.922 31.9074ZM34.7868 30.5567L34.4919 30.5764L34.4925 30.5823L34.7868 30.5567ZM34.7021 29.5116L34.997 29.4919L34.9969 29.4915L34.7021 29.5116ZM34.6306 28.6426L34.9254 28.6224L34.9234 28.5981L34.9177 28.5743L34.6306 28.6426ZM34.265 27.1299L34.5521 27.0617L34.5459 27.0361L34.5355 27.0119L34.265 27.1299ZM33.7922 26.024L34.0627 25.906L34.0416 25.8565L34.0053 25.8172L33.7922 26.024ZM33.2185 25.4011L33.4316 25.1942L33.3993 25.1591L33.3581 25.1357L33.2185 25.4011ZM32.7857 25.1549L32.9253 24.8895L32.8824 24.8651L32.8344 24.856L32.7857 25.1549ZM32.1281 25.0298L32.1768 24.7308L32.133 24.7225L32.089 24.7277L32.1281 25.0298ZM31.4636 25.1083L31.4245 24.8062L31.3985 24.8093L31.3735 24.817L31.4636 25.1083ZM30.7947 25.3157L30.7046 25.0244L30.6644 25.0368L30.6295 25.0604L30.7947 25.3157ZM30.2303 25.6957L30.065 25.4405L30.0399 25.4574L30.0187 25.4793L30.2303 25.6957ZM29.8873 26.0501L29.6757 25.8336L29.6615 25.8483L29.6494 25.8649L29.8873 26.0501ZM29.5402 26.5264L29.3023 26.3413L29.2911 26.3566L29.2819 26.3734L29.5402 26.5264ZM29.305 26.955L29.0467 26.8021L29.0381 26.8177L29.0314 26.8343L29.305 26.955ZM29.0492 27.5894L29.3198 27.7179L29.3229 27.7102L29.0492 27.5894ZM28.8467 28.0544L28.8062 28.3548L29.0268 28.3903L29.1172 28.1828L28.8467 28.0544ZM27.8846 27.8996L27.8309 28.1978L27.844 28.2L27.8846 27.8996ZM27.3173 27.7815L27.371 27.4836L27.3417 27.4775L27.312 27.4775L27.3173 27.7815ZM26.8636 27.7815L26.8582 27.4775L26.8582 27.4775L26.8636 27.7815ZM26.5232 27.7815L26.5178 27.4775L26.5232 27.7815ZM25.956 27.7815L25.9506 27.4775L25.8928 27.4775L25.8397 27.4998L25.956 27.7815ZM25.3092 28.0535L25.1929 27.7718L25.127 27.7995L25.0813 27.8555L25.3092 28.0535ZM24.7597 28.7257L24.5317 28.5276L24.5012 28.565L24.4838 28.6106L24.7597 28.7257ZM24.6251 29.0797L24.3492 28.9646L24.3384 28.993L24.3334 29.0232L24.6251 29.0797ZM24.4494 30.1344L24.1578 30.0778L24.1537 30.1021L24.1536 30.1269L24.4494 30.1344ZM24.4441 31.0094L24.1482 31.0019L24.1481 31.0236L24.1509 31.0451L24.4441 31.0094ZM24.6251 32.3731L24.3319 32.4088L24.3391 32.4627L24.3639 32.5111L24.6251 32.3731ZM25.3094 33.7064L25.0483 33.8444L25.0612 33.8695L25.0782 33.8918L25.3094 33.7064ZM26.6471 35.4527L26.4159 35.6381L26.4259 35.6511L26.4371 35.663L26.6471 35.4527ZM27.4412 36.2896L27.2312 36.4998L27.2555 36.5254L27.2848 36.5447L27.4412 36.2896ZM28.6787 37.105L28.5223 37.3601L28.5324 37.3668L28.543 37.3726L28.6787 37.105ZM29.8236 37.7339L29.6878 38.0015L29.6986 38.0074L29.7097 38.0123L29.8236 37.7339ZM31.0558 38.2852L30.9419 38.5636L30.9493 38.5669L30.9568 38.5698L31.0558 38.2852ZM31.9791 38.6392L31.8801 38.924L31.8892 38.9272L31.9791 38.6392ZM33.3404 39.1109L33.2505 39.3988L33.2709 39.4059L33.2919 39.4099L33.3404 39.1109ZM34.5883 39.3473L34.5398 39.6463L34.5518 39.6486L34.5638 39.6498L34.5883 39.3473ZM35.0058 39.3908L35.2597 39.2393L35.1817 39.104L35.0303 39.0883L35.0058 39.3908ZM35.3982 40.0714L35.1444 40.2229L35.4791 40.8034L35.6797 40.1703L35.3982 40.0714ZM35.7473 39.1629L35.619 39.1496L35.57 39.7546L35.6983 39.768L35.7473 39.1629ZM35.3846 39.4751L35.471 39.6205L35.9745 39.3104L35.8881 39.165L35.3846 39.4751ZM35.9178 39.419L36.0219 39.0905L35.459 38.8927L35.3549 39.2211L35.9178 39.419ZM36.033 38.952L35.7122 36.7498L35.127 36.8291L35.4479 39.0313L36.033 38.952ZM35.7133 36.7582L35.5775 35.6098L34.9901 35.6723L35.1259 36.8207L35.7133 36.7582ZM35.5773 35.6078L35.4151 34.3088L34.8282 34.3753L34.9904 35.6743L35.5773 35.6078ZM35.4165 34.3224L35.3601 33.6255L34.7704 33.6649L34.8268 34.3618L35.4165 34.3224ZM35.3594 33.6179L35.2888 32.9484L34.7005 33.003L34.7711 33.6725L35.3594 33.6179ZM35.2898 32.96L35.2172 31.8917L34.6269 31.9231L34.6995 32.9914L35.2898 32.96ZM35.2163 31.8818L35.0811 30.531L34.4925 30.5823L34.6277 31.9331L35.2163 31.8818ZM35.0817 30.5369L34.997 29.4919L34.4073 29.5314L34.492 30.5764L35.0817 30.5369ZM34.9969 29.4915L34.9254 28.6224L34.3358 28.6627L34.4073 29.5318L34.9969 29.4915ZM34.9177 28.5743L34.5521 27.0617L33.9779 27.1981L34.3435 28.7108L34.9177 28.5743ZM34.5355 27.0119L34.0627 25.906L33.5217 26.1421L33.9945 27.248L34.5355 27.0119ZM34.0053 25.8172L33.4316 25.1942L33.0054 25.608L33.5791 26.2309L34.0053 25.8172ZM33.3581 25.1357L32.9253 24.8895L32.646 25.4203L33.0789 25.6665L33.3581 25.1357ZM32.8344 24.856L32.1768 24.7308L32.0794 25.3287L32.7369 25.4539L32.8344 24.856ZM32.089 24.7277L31.4245 24.8062L31.5027 25.4104L32.1672 25.3319L32.089 24.7277ZM31.3735 24.817L30.7046 25.0244L30.8849 25.6069L31.5538 25.3996L31.3735 24.817ZM30.6295 25.0604L30.065 25.4405L30.3956 25.951L30.96 25.5709L30.6295 25.0604ZM30.0187 25.4793L29.6757 25.8336L30.099 26.2665L30.4419 25.9121L30.0187 25.4793ZM29.6494 25.8649L29.3023 26.3413L29.7782 26.7115L30.1253 26.2352L29.6494 25.8649ZM29.2819 26.3734L29.0467 26.8021L29.5634 27.108L29.7986 26.6794L29.2819 26.3734ZM29.0314 26.8343L28.7756 27.4687L29.3229 27.7102L29.5787 27.0758L29.0314 26.8343ZM28.7788 27.461L28.5763 27.926L29.1172 28.1828L29.3197 27.7178L28.7788 27.461ZM27.844 28.2L28.8062 28.3548L28.8873 27.754L27.9251 27.5992L27.844 28.2ZM27.2637 28.0795L27.831 28.1975L27.9382 27.6016L27.371 27.4836L27.2637 28.0795ZM26.869 28.0856L27.3227 28.0856L27.312 27.4775L26.8582 27.4775L26.869 28.0856ZM26.5286 28.0856L26.869 28.0856L26.8582 27.4775L26.5178 27.4775L26.5286 28.0856ZM25.9614 28.0856L26.5286 28.0856L26.5178 27.4775L25.9506 27.4775L25.9614 28.0856ZM25.4255 28.3353L26.0723 28.0633L25.8397 27.4998L25.1929 27.7718L25.4255 28.3353ZM24.9876 28.9238L25.5372 28.2516L25.0813 27.8555L24.5317 28.5276L24.9876 28.9238ZM24.9009 29.1949L25.0355 28.8408L24.4838 28.6106L24.3492 28.9646L24.9009 29.1949ZM24.7411 30.1909L24.9167 29.1363L24.3334 29.0232L24.1578 30.0778L24.7411 30.1909ZM24.7399 31.0169L24.7453 30.1418L24.1536 30.1269L24.1482 31.0019L24.7399 31.0169ZM24.9182 32.3374L24.7372 30.9737L24.1509 31.0451L24.3319 32.4088L24.9182 32.3374ZM25.5706 33.5684L24.8862 32.2351L24.3639 32.5111L25.0483 33.8444L25.5706 33.5684ZM26.8783 35.2673L25.5406 33.521L25.0782 33.8918L26.4159 35.6381L26.8783 35.2673ZM27.6512 36.0793L26.857 35.2425L26.4371 35.663L27.2312 36.4998L27.6512 36.0793ZM28.8352 36.8499L27.5977 36.0345L27.2848 36.5447L28.5223 37.3601L28.8352 36.8499ZM29.9593 37.4663L28.8144 36.8374L28.543 37.3726L29.6878 38.0015L29.9593 37.4663ZM31.1697 38.0067L29.9375 37.4554L29.7097 38.0123L30.9419 38.5636L31.1697 38.0067ZM32.078 38.3546L31.1547 38.0005L30.9568 38.5698L31.8801 38.9239L32.078 38.3546ZM33.4303 38.8229L32.069 38.3512L31.8892 38.9272L33.2505 39.3988L33.4303 38.8229ZM34.6368 39.0483L33.3889 38.8119L33.2919 39.4099L34.5398 39.6463L34.6368 39.0483ZM35.0303 39.0883L34.6128 39.0448L34.5638 39.6498L34.9813 39.6933L35.0303 39.0883ZM34.752 39.5422L35.1444 40.2229L35.6521 39.9199L35.2597 39.2393L34.752 39.5422ZM35.6797 40.1703L35.876 39.551L35.313 39.3532L35.1167 39.9725L35.6797 40.1703Z" fill="#706DFF" mask="url(#path-11-inside-3_450_6705)"/>
<mask id="path-13-inside-4_450_6705" fill="white">
<path fill-rule="evenodd" clip-rule="evenodd" d="M26.8058 44.504L26.8088 44.8044L26.9348 46.8549L27.0501 47.8206L27.2711 48.7875L27.3547 48.947L28.0194 49.6399L28.6602 49.9634L29.5023 49.9733L30.4481 49.4276L31.0739 48.5912L31.4871 47.6318L32.0061 46.6736L32.6295 45.5962L33.6709 44.0415L34.1911 43.2039L35.0259 42.1289L36.5982 40.8216L36.2518 39.1228L35.7494 39.4058L33.1021 38.6453L31.9188 38.4098L30.7556 38.2875L29.9519 38.2116L28.8938 38.186L27.5877 38.1706L26.6372 38.239L26.11 38.3413L25.6894 38.558L25.1062 38.9993L24.5077 39.5949L24.2248 40.0737L24.017 40.4329L23.8114 41.0331L23.8147 41.3947L23.9292 42.2398L24.1806 42.7264L24.5435 43.2005L24.9247 43.5619L25.4246 43.8244L25.9555 44.0717L26.2737 44.196L26.8058 44.504Z"/>
</mask>
<path fill-rule="evenodd" clip-rule="evenodd" d="M26.8058 44.504L26.8088 44.8044L26.9348 46.8549L27.0501 47.8206L27.2711 48.7875L27.3547 48.947L28.0194 49.6399L28.6602 49.9634L29.5023 49.9733L30.4481 49.4276L31.0739 48.5912L31.4871 47.6318L32.0061 46.6736L32.6295 45.5962L33.6709 44.0415L34.1911 43.2039L35.0259 42.1289L36.5982 40.8216L36.2518 39.1228L35.7494 39.4058L33.1021 38.6453L31.9188 38.4098L30.7556 38.2875L29.9519 38.2116L28.8938 38.186L27.5877 38.1706L26.6372 38.239L26.11 38.3413L25.6894 38.558L25.1062 38.9993L24.5077 39.5949L24.2248 40.0737L24.017 40.4329L23.8114 41.0331L23.8147 41.3947L23.9292 42.2398L24.1806 42.7264L24.5435 43.2005L24.9247 43.5619L25.4246 43.8244L25.9555 44.0717L26.2737 44.196L26.8058 44.504Z" fill="url(#paint2_linear_450_6705)"/>
<path d="M26.8088 44.8044L26.5096 44.8255L26.5092 44.8177L26.5091 44.81L26.8088 44.8044ZM26.8058 44.504L26.9574 44.2436L27.1038 44.3283L27.1055 44.4984L26.8058 44.504ZM26.9348 46.8549L26.6372 46.8932L26.6362 46.8846L26.6357 46.876L26.9348 46.8549ZM27.0501 47.8206L26.7579 47.8901L26.7544 47.8746L26.7525 47.8588L27.0501 47.8206ZM27.2711 48.7875L27.0055 48.9289L26.9876 48.8947L26.9789 48.8569L27.2711 48.7875ZM27.3547 48.947L27.1378 49.1561L27.1087 49.1258L27.0891 49.0885L27.3547 48.947ZM28.0194 49.6399L27.8827 49.9083L27.8375 49.8855L27.8024 49.849L28.0194 49.6399ZM28.6602 49.9634L28.654 50.2636L28.585 50.2628L28.5235 50.2318L28.6602 49.9634ZM29.5023 49.9733L29.6501 50.2332L29.5785 50.2745L29.4961 50.2736L29.5023 49.9733ZM30.4481 49.4276L30.6873 49.6064L30.6499 49.6563L30.5959 49.6875L30.4481 49.4276ZM31.0739 48.5912L31.3489 48.7081L31.3347 48.7412L31.3131 48.77L31.0739 48.5912ZM31.4871 47.6318L31.2121 47.5148L31.2175 47.5023L31.224 47.4903L31.4871 47.6318ZM32.0061 46.6736L31.7428 46.5321L31.7471 46.5247L32.0061 46.6736ZM32.6295 45.5962L32.3706 45.4473L32.3756 45.4386L32.3811 45.4303L32.6295 45.5962ZM33.6709 44.0415L33.9252 44.1986L33.9193 44.2074L33.6709 44.0415ZM34.1911 43.2039L33.937 43.0469L33.9454 43.0333L33.9552 43.0208L34.1911 43.2039ZM35.0259 42.1289L34.79 41.9458L34.8103 41.9196L34.8357 41.8985L35.0259 42.1289ZM36.5982 40.8216L36.8919 40.759L36.928 40.9359L36.7884 41.052L36.5982 40.8216ZM36.2518 39.1228L36.1068 38.8613L36.4639 38.6602L36.5455 39.0602L36.2518 39.1228ZM35.7494 39.4058L35.8945 39.6673L35.7847 39.7291L35.6645 39.6945L35.7494 39.4058ZM33.1021 38.6453L33.163 38.3508L33.1752 38.3532L33.1871 38.3566L33.1021 38.6453ZM31.9188 38.4098L31.9526 38.1111L31.9662 38.1125L31.9796 38.1152L31.9188 38.4098ZM30.7556 38.2875L30.7863 37.9885L30.7894 37.9889L30.7556 38.2875ZM29.9519 38.2116L29.9618 37.9114L29.9722 37.9117L29.9826 37.9127L29.9519 38.2116ZM28.8938 38.186L28.8999 37.8857L28.9037 37.8858L28.8938 38.186ZM27.5877 38.1706L27.5689 37.8711L27.5814 37.8702L27.5939 37.8703L27.5877 38.1706ZM26.6372 38.239L26.5827 37.9442L26.6004 37.9408L26.6183 37.9395L26.6372 38.239ZM26.11 38.3413L25.9748 38.0745L26.0132 38.0547L26.0555 38.0465L26.11 38.3413ZM25.6894 38.558L25.5101 38.3189L25.531 38.3031L25.5542 38.2911L25.6894 38.558ZM25.1062 38.9993L24.896 38.7871L24.9106 38.7726L24.927 38.7602L25.1062 38.9993ZM24.5077 39.5949L24.2502 39.4436L24.2699 39.4101L24.2975 39.3827L24.5077 39.5949ZM24.2248 40.0737L23.9659 39.9248L23.9673 39.9224L24.2248 40.0737ZM24.017 40.4329L23.7336 40.3376L23.7432 40.3096L23.7581 40.2839L24.017 40.4329ZM23.8114 41.0331L23.5117 41.0386L23.5112 40.9869L23.528 40.9378L23.8114 41.0331ZM23.8147 41.3947L23.5178 41.4377L23.5152 41.4191L23.5151 41.4002L23.8147 41.3947ZM23.9292 42.2398L23.6628 42.3797L23.6392 42.334L23.6323 42.2828L23.9292 42.2398ZM24.1806 42.7264L23.9422 42.9105L23.9262 42.8896L23.9141 42.8663L24.1806 42.7264ZM24.5435 43.2005L24.3365 43.4195L24.3194 43.4033L24.3051 43.3846L24.5435 43.2005ZM24.9247 43.5619L24.7838 43.8282L24.7475 43.8091L24.7178 43.7809L24.9247 43.5619ZM25.4246 43.8244L25.2962 44.0972L25.2837 44.0907L25.4246 43.8244ZM25.9555 44.0717L25.8445 44.3517L25.8358 44.3482L25.8272 44.3442L25.9555 44.0717ZM26.2737 44.196L26.3846 43.9161L26.4057 43.9243L26.4253 43.9356L26.2737 44.196ZM26.5091 44.81L26.5061 44.5096L27.1055 44.4984L27.1084 44.7988L26.5091 44.81ZM26.6357 46.876L26.5096 44.8255L27.1079 44.7833L27.2339 46.8339L26.6357 46.876ZM26.7525 47.8588L26.6372 46.8932L27.2324 46.8167L27.3477 47.7823L26.7525 47.8588ZM26.9789 48.8569L26.7579 47.8901L27.3423 47.7511L27.5632 48.718L26.9789 48.8569ZM27.0891 49.0885L27.0055 48.9289L27.5367 48.646L27.6203 48.8056L27.0891 49.0885ZM27.8024 49.849L27.1378 49.1561L27.5717 48.7379L28.2363 49.4308L27.8024 49.849ZM28.5235 50.2318L27.8827 49.9083L28.1561 49.3714L28.7969 49.6949L28.5235 50.2318ZM29.4961 50.2736L28.654 50.2636L28.6664 49.6631L29.5085 49.673L29.4961 50.2736ZM30.5959 49.6875L29.6501 50.2332L29.3545 49.7134L30.3003 49.1676L30.5959 49.6875ZM31.3131 48.77L30.6873 49.6064L30.2089 49.2488L30.8347 48.4124L31.3131 48.77ZM31.7621 47.7487L31.3489 48.7081L30.7989 48.4742L31.2121 47.5148L31.7621 47.7487ZM32.2692 46.8151L31.7502 47.7732L31.224 47.4903L31.7429 46.5322L32.2692 46.8151ZM32.8884 45.7451L32.265 46.8226L31.7471 46.5247L32.3706 45.4473L32.8884 45.7451ZM33.9193 44.2074L32.8779 45.762L32.3811 45.4303L33.4226 43.8756L33.9193 44.2074ZM34.4451 43.3609L33.925 44.1985L33.4169 43.8845L33.937 43.0469L34.4451 43.3609ZM35.2618 42.3121L34.427 43.387L33.9552 43.0208L34.79 41.9458L35.2618 42.3121ZM36.7884 41.052L35.216 42.3593L34.8357 41.8985L36.4081 40.5911L36.7884 41.052ZM36.5455 39.0602L36.8919 40.759L36.3046 40.8842L35.9582 39.1854L36.5455 39.0602ZM35.6043 39.1443L36.1068 38.8613L36.3969 39.3843L35.8945 39.6673L35.6043 39.1443ZM35.6645 39.6945L33.0172 38.9341L33.1871 38.3566L35.8343 39.117L35.6645 39.6945ZM33.0413 38.9399L31.8579 38.7044L31.9796 38.1152L33.163 38.3508L33.0413 38.9399ZM31.8849 38.7085L30.7217 38.5862L30.7894 37.9889L31.9526 38.1111L31.8849 38.7085ZM30.7249 38.5865L29.9212 38.5106L29.9826 37.9127L30.7863 37.9886L30.7249 38.5865ZM29.942 38.5119L28.8839 38.4862L28.9037 37.8858L29.9618 37.9114L29.942 38.5119ZM28.8876 38.4863L27.5816 38.4709L27.5939 37.8703L28.8999 37.8857L28.8876 38.4863ZM27.6066 38.4701L26.6561 38.5386L26.6183 37.9395L27.5689 37.8711L27.6066 38.4701ZM26.6917 38.5338L26.1645 38.6361L26.0555 38.0465L26.5827 37.9442L26.6917 38.5338ZM26.2451 38.6082L25.8245 38.8248L25.5542 38.2911L25.9748 38.0745L26.2451 38.6082ZM25.8686 38.7971L25.2855 39.2383L24.927 38.7602L25.5101 38.3189L25.8686 38.7971ZM25.3165 39.2114L24.7179 39.8071L24.2975 39.3827L24.896 38.7871L25.3165 39.2114ZM24.7652 39.7462L24.4823 40.225L23.9673 39.9224L24.2502 39.4436L24.7652 39.7462ZM24.4837 40.2226L24.2759 40.5818L23.7581 40.2839L23.9659 39.9248L24.4837 40.2226ZM24.3003 40.5281L24.0947 41.1284L23.528 40.9378L23.7336 40.3376L24.3003 40.5281ZM24.111 41.0276L24.1144 41.3893L23.5151 41.4002L23.5117 41.0386L24.111 41.0276ZM24.1117 41.3518L24.2262 42.1969L23.6323 42.2828L23.5178 41.4377L24.1117 41.3518ZM24.1956 42.0999L24.447 42.5865L23.9141 42.8663L23.6628 42.3797L24.1956 42.0999ZM24.4189 42.5423L24.7819 43.0164L24.3051 43.3846L23.9422 42.9105L24.4189 42.5423ZM24.7505 42.9815L25.1317 43.3429L24.7178 43.7809L24.3365 43.4195L24.7505 42.9815ZM25.0657 43.2957L25.5655 43.5581L25.2837 44.0907L24.7838 43.8282L25.0657 43.2957ZM25.5529 43.5519L26.0838 43.7992L25.8272 44.3442L25.2963 44.0969L25.5529 43.5519ZM26.0665 43.7918L26.3846 43.9161L26.1627 44.4759L25.8445 44.3517L26.0665 43.7918ZM26.4253 43.9356L26.9574 44.2436L26.6542 44.7644L26.1221 44.4564L26.4253 43.9356Z" fill="#706DFF" mask="url(#path-13-inside-4_450_6705)"/>
<mask id="path-15-inside-5_450_6705" fill="white">
<path fill-rule="evenodd" clip-rule="evenodd" d="M36.5378 39.3632L36.2782 39.1283L36.4193 39.6949L36.1643 40.4092L35.9436 41.1173L35.4836 42.0614L34.3492 44.7758L33.9887 45.956L33.5551 47.3723L33.3282 48.6705L33.3282 49.6146L33.5551 51.0311L33.782 51.6472L34.4626 52.9191L34.5761 53.0371L35.3702 53.6272L35.5971 53.7453L36.2778 53.8844L36.6833 53.8427L37.2824 53.6131L37.6562 53.4003L38.1797 52.9836L38.5967 52.5426L38.8694 52.2781L39.3407 51.6209L39.4944 51.381L39.6668 51.4752L40.383 51.8174L40.7442 51.9139L41.3132 52.0934L41.9646 52.1985L42.3907 52.1992L43.0224 52.1024L43.3976 51.9371L43.9312 51.476L44.0761 51.2594L44.5017 50.3458L44.547 50.1857L44.5593 48.73L44.475 48.0761L44.0224 46.7194L43.5879 45.8905L42.7913 44.8637L41.7589 43.8363L40.8993 42.9796L38.6542 41.1614L37.8159 40.5615L37.2963 40.0497L36.7443 39.5502L36.6342 39.0932L36.5378 39.3632Z"/>
</mask>
<path fill-rule="evenodd" clip-rule="evenodd" d="M36.5378 39.3632L36.2782 39.1283L36.4193 39.6949L36.1643 40.4092L35.9436 41.1173L35.4836 42.0614L34.3492 44.7758L33.9887 45.956L33.5551 47.3723L33.3282 48.6705L33.3282 49.6146L33.5551 51.0311L33.782 51.6472L34.4626 52.9191L34.5761 53.0371L35.3702 53.6272L35.5971 53.7453L36.2778 53.8844L36.6833 53.8427L37.2824 53.6131L37.6562 53.4003L38.1797 52.9836L38.5967 52.5426L38.8694 52.2781L39.3407 51.6209L39.4944 51.381L39.6668 51.4752L40.383 51.8174L40.7442 51.9139L41.3132 52.0934L41.9646 52.1985L42.3907 52.1992L43.0224 52.1024L43.3976 51.9371L43.9312 51.476L44.0761 51.2594L44.5017 50.3458L44.547 50.1857L44.5593 48.73L44.475 48.0761L44.0224 46.7194L43.5879 45.8905L42.7913 44.8637L41.7589 43.8363L40.8993 42.9796L38.6542 41.1614L37.8159 40.5615L37.2963 40.0497L36.7443 39.5502L36.6342 39.0932L36.5378 39.3632Z" fill="url(#paint3_linear_450_6705)"/>
<path d="M36.2782 39.1283L36.4719 38.8973L35.7548 38.2483L35.9935 39.2063L36.2782 39.1283ZM36.5378 39.3632L36.344 39.5943L36.6648 39.8846L36.8134 39.4684L36.5378 39.3632ZM36.4193 39.6949L36.695 39.8001L36.7272 39.7098L36.7041 39.6169L36.4193 39.6949ZM36.1643 40.4092L35.8884 40.3039L35.8846 40.3161L36.1643 40.4092ZM35.9436 41.1173L36.2058 41.2544L36.2162 41.233L36.2233 41.2103L35.9436 41.1173ZM35.4836 42.0614L35.2214 41.9243L35.2175 41.9324L35.214 41.9407L35.4836 42.0614ZM34.3492 44.7758L34.0795 44.6551L34.0735 44.6696L34.0689 44.6846L34.3492 44.7758ZM33.9887 45.956L34.269 46.0475L34.269 46.0473L33.9887 45.956ZM33.5551 47.3723L33.2748 47.2808L33.2691 47.2996L33.2657 47.319L33.5551 47.3723ZM33.3282 48.6705L33.0388 48.6172L33.0341 48.6443L33.0341 48.6719L33.3282 48.6705ZM33.3282 49.6146L33.0341 49.6161L33.0341 49.6413L33.038 49.6662L33.3282 49.6146ZM33.5551 51.0311L33.2649 51.0827L33.2698 51.113L33.2803 51.1416L33.5551 51.0311ZM33.782 51.6472L33.5072 51.7577L33.5147 51.7779L33.5248 51.7968L33.782 51.6472ZM34.4626 52.9191L34.2055 53.0688L34.2253 53.1058L34.2541 53.1358L34.4626 52.9191ZM34.5761 53.0371L34.3675 53.2538L34.3846 53.2716L34.4043 53.2862L34.5761 53.0371ZM35.3702 53.6272L35.1984 53.8763L35.2171 53.8902L35.2376 53.9008L35.3702 53.6272ZM35.5971 53.7453L35.4645 54.0189L35.5 54.0373L35.539 54.0453L35.5971 53.7453ZM36.2778 53.8844L36.2197 54.1845L36.2622 54.1932L36.3054 54.1887L36.2778 53.8844ZM36.6833 53.8427L36.7108 54.147L36.7484 54.1431L36.7838 54.1295L36.6833 53.8427ZM37.2824 53.6131L37.383 53.8999L37.4035 53.8921L37.4227 53.8811L37.2824 53.6131ZM37.6562 53.4003L37.7965 53.6683L37.8163 53.657L37.8342 53.6427L37.6562 53.4003ZM38.1797 52.9836L38.3578 53.226L38.3743 53.2129L38.3889 53.1974L38.1797 52.9836ZM38.5967 52.5426L38.3964 52.3193L38.3875 52.3288L38.5967 52.5426ZM38.8694 52.2781L39.0695 52.5012L39.089 52.4823L39.1049 52.4601L38.8694 52.2781ZM39.3407 51.6209L39.5762 51.8029L39.5809 51.7964L39.5852 51.7896L39.3407 51.6209ZM39.4944 51.381L39.6322 51.1102L39.3976 50.982L39.2499 51.2123L39.4944 51.381ZM39.6668 51.4752L39.529 51.746L39.5359 51.7498L39.5429 51.7531L39.6668 51.4752ZM40.383 51.8174L40.2591 52.0954L40.283 52.1068L40.3085 52.1136L40.383 51.8174ZM40.7442 51.9139L40.8309 51.621L40.8186 51.6177L40.7442 51.9139ZM41.3132 52.0934L41.2266 52.386L41.2463 52.3922L41.2667 52.3955L41.3132 52.0934ZM41.9646 52.1985L41.9181 52.5007L41.9403 52.5042L41.9627 52.5043L41.9646 52.1985ZM42.3907 52.1992L42.3888 52.505L42.4106 52.505L42.4322 52.5017L42.3907 52.1992ZM43.0224 52.1024L43.0639 52.4049L43.1012 52.3992L43.136 52.3839L43.0224 52.1024ZM43.3976 51.9371L43.5112 52.2186L43.5514 52.2009L43.585 52.1719L43.3976 51.9371ZM43.9312 51.476L44.1185 51.7107L44.1494 51.684L44.1724 51.6497L43.9312 51.476ZM44.0761 51.2594L44.3172 51.4331L44.3305 51.4133L44.3406 51.3916L44.0761 51.2594ZM44.5017 50.3458L44.7663 50.478L44.777 50.4551L44.7839 50.4308L44.5017 50.3458ZM44.547 50.1857L44.8292 50.2706L44.8408 50.2296L44.8411 50.1869L44.547 50.1857ZM44.5593 48.73L44.8534 48.7312L44.8536 48.7094L44.8508 48.6879L44.5593 48.73ZM44.475 48.0761L44.7665 48.034L44.7626 48.0036L44.753 47.9746L44.475 48.0761ZM44.0224 46.7194L44.3003 46.618L44.2924 46.5942L44.2808 46.5721L44.0224 46.7194ZM43.5879 45.8905L43.8464 45.7432L43.8338 45.7191L43.8172 45.6978L43.5879 45.8905ZM42.7913 44.8637L43.0206 44.671L43.0088 44.6558L42.9952 44.6423L42.7913 44.8637ZM41.7589 43.8363L41.5548 44.0575L41.555 44.0577L41.7589 43.8363ZM40.8993 42.9796L41.1034 42.7584L41.0926 42.7476L41.0808 42.738L40.8993 42.9796ZM38.6542 41.1614L38.8356 40.9198L38.8288 40.9143L38.8218 40.9092L38.6542 41.1614ZM37.8159 40.5615L37.6131 40.784L37.6296 40.8003L37.6484 40.8137L37.8159 40.5615ZM37.2963 40.0497L37.4993 39.8271L37.49 39.8187L37.2963 40.0497ZM36.7443 39.5502L36.459 39.6258L36.4813 39.7185L36.5506 39.7812L36.7443 39.5502ZM36.6342 39.0932L36.9195 39.0175L36.6892 38.0618L36.3585 38.988L36.6342 39.0932ZM36.0845 39.3594L36.344 39.5943L36.7315 39.1322L36.4719 38.8973L36.0845 39.3594ZM36.7041 39.6169L36.5629 39.0503L35.9935 39.2063L36.1346 39.7729L36.7041 39.6169ZM36.1437 39.5897L35.8887 40.304L36.44 40.5143L36.695 39.8001L36.1437 39.5897ZM35.8846 40.3161L35.6639 41.0243L36.2233 41.2103L36.4441 40.5022L35.8846 40.3161ZM35.6814 40.9801L35.2214 41.9243L35.7459 42.1985L36.2058 41.2544L35.6814 40.9801ZM35.214 41.9407L34.0795 44.6551L34.6188 44.8966L35.7533 42.1821L35.214 41.9407ZM34.0689 44.6846L33.7085 45.8648L34.269 46.0473L34.6295 44.8671L34.0689 44.6846ZM33.7085 45.8645L33.2748 47.2808L33.8353 47.4637L34.269 46.0475L33.7085 45.8645ZM33.2657 47.319L33.0388 48.6172L33.6175 48.7237L33.8444 47.4255L33.2657 47.319ZM33.0341 48.6719L33.0341 49.6161L33.6223 49.6131L33.6223 48.669L33.0341 48.6719ZM33.038 49.6662L33.2649 51.0827L33.8452 50.9795L33.6183 49.563L33.038 49.6662ZM33.2803 51.1416L33.5072 51.7577L34.0567 51.5366L33.8298 50.9206L33.2803 51.1416ZM33.5248 51.7968L34.2055 53.0688L34.7198 52.7695L34.0391 51.4975L33.5248 51.7968ZM34.2541 53.1358L34.3675 53.2538L34.7846 52.8205L34.6712 52.7025L34.2541 53.1358ZM34.4043 53.2862L35.1984 53.8763L35.542 53.3782L34.7479 52.7881L34.4043 53.2862ZM35.2376 53.9008L35.4645 54.0189L35.7297 53.4717L35.5028 53.3536L35.2376 53.9008ZM35.539 54.0453L36.2197 54.1845L36.3359 53.5844L35.6552 53.4452L35.539 54.0453ZM36.3054 54.1887L36.7108 54.147L36.6557 53.5384L36.2502 53.5802L36.3054 54.1887ZM36.7838 54.1295L37.383 53.8999L37.1819 53.3262L36.5827 53.5559L36.7838 54.1295ZM37.4227 53.8811L37.7965 53.6683L37.5158 53.1322L37.1421 53.3451L37.4227 53.8811ZM37.8342 53.6427L38.3578 53.226L38.0016 52.7411L37.4781 53.1578L37.8342 53.6427ZM38.3889 53.1974L38.8059 52.7565L38.3875 52.3288L37.9705 52.7697L38.3889 53.1974ZM38.7968 52.7657L39.0695 52.5012L38.6693 52.055L38.3966 52.3195L38.7968 52.7657ZM39.1049 52.4601L39.5762 51.8029L39.1052 51.4389L38.6339 52.096L39.1049 52.4601ZM39.5852 51.7896L39.739 51.5497L39.2499 51.2123L39.0962 51.4522L39.5852 51.7896ZM39.8046 51.2044L39.6322 51.1102L39.3567 51.6519L39.529 51.746L39.8046 51.2044ZM40.5069 51.5395L39.7907 51.1973L39.5429 51.7531L40.2591 52.0954L40.5069 51.5395ZM40.8186 51.6177L40.4575 51.5213L40.3085 52.1136L40.6697 52.2101L40.8186 51.6177ZM41.3998 51.8007L40.8308 51.6213L40.6576 52.2066L41.2266 52.386L41.3998 51.8007ZM42.0111 51.8963L41.3597 51.7912L41.2667 52.3955L41.9181 52.5007L42.0111 51.8963ZM42.3926 51.8934L41.9665 51.8927L41.9627 52.5043L42.3888 52.505L42.3926 51.8934ZM42.9809 51.7999L42.3492 51.8967L42.4322 52.5017L43.0639 52.4049L42.9809 51.7999ZM43.284 51.6557L42.9087 51.821L43.136 52.3839L43.5112 52.2186L43.284 51.6557ZM43.7438 51.2412L43.2102 51.7024L43.585 52.1719L44.1185 51.7107L43.7438 51.2412ZM43.8349 51.0856L43.69 51.3022L44.1724 51.6497L44.3172 51.4331L43.8349 51.0856ZM44.2372 50.2135L43.8115 51.1271L44.3406 51.3916L44.7663 50.478L44.2372 50.2135ZM44.2649 50.1007L44.2196 50.2608L44.7839 50.4308L44.8292 50.2706L44.2649 50.1007ZM44.2652 48.7287L44.2529 50.1845L44.8411 50.1869L44.8534 48.7312L44.2652 48.7287ZM44.1835 48.1181L44.2678 48.772L44.8508 48.6879L44.7665 48.034L44.1835 48.1181ZM43.7445 46.8209L44.1971 48.1775L44.753 47.9746L44.3003 46.618L43.7445 46.8209ZM43.3295 46.0378L43.764 46.8667L44.2808 46.5721L43.8464 45.7432L43.3295 46.0378ZM42.5621 45.0564L43.3587 46.0832L43.8172 45.6978L43.0206 44.671L42.5621 45.0564ZM41.555 44.0577L42.5875 45.0851L42.9952 44.6423L41.9628 43.6149L41.555 44.0577ZM40.6953 43.2008L41.5548 44.0575L41.9629 43.6151L41.1034 42.7584L40.6953 43.2008ZM38.4728 41.403L40.7179 43.2212L41.0808 42.738L38.8356 40.9198L38.4728 41.403ZM37.6484 40.8137L38.4867 41.4135L38.8218 40.9092L37.9835 40.3094L37.6484 40.8137ZM37.0935 40.2722L37.6131 40.784L38.0187 40.339L37.4991 39.8273L37.0935 40.2722ZM36.5506 39.7812L37.1026 40.2808L37.49 39.8187L36.938 39.3191L36.5506 39.7812ZM37.0296 39.4745L36.9195 39.0175L36.3489 39.1688L36.459 39.6258L37.0296 39.4745ZM36.3585 38.988L36.2621 39.258L36.8134 39.4684L36.9098 39.1984L36.3585 38.988Z" fill="#706DFF" mask="url(#path-15-inside-5_450_6705)"/>
<mask id="path-17-inside-6_450_6705" fill="white">
<path fill-rule="evenodd" clip-rule="evenodd" d="M39.7609 37.5909L36.5458 39.3535L37.168 39.4564L37.2975 40.529L40.2471 42.0632L41.6085 42.8894L42.9698 43.7155L44.4446 44.5416L45.6926 45.1507L46.827 45.6092L47.6211 45.7629L48.3018 45.8588L49.1865 45.8588L49.4363 45.8398L49.7766 45.7218L49.8901 45.6092L50.117 45.3678L50.3439 44.8957L50.4573 43.7155L50.3439 42.7714L50.2259 42.0632L50.117 41.4732L50.0909 41.3694L50.127 41.2078L50.4649 40.8583L50.7574 40.6071L51.1875 40.2953L51.4742 40.0874L51.8553 39.7757L52.1381 39.4644L52.2324 39.3606L52.4091 38.8427L52.4051 38.7393L52.4012 38.6358L52.3854 38.222L52.2794 38.0155L52.0672 37.6023L51.7717 37.2781L51.6709 37.1625L51.5701 37.0469L51.4693 36.9313L51.1692 36.7027L50.6015 36.5137L50.4546 36.4692L49.3852 36.1581L48.1006 35.9552L46.6239 35.9936L45.0511 36.1528L43.5791 36.4276L42.304 36.6972L41.7157 36.8307L41.1273 36.9643L40.4429 37.2185L39.7609 37.5909Z"/>
</mask>
<path fill-rule="evenodd" clip-rule="evenodd" d="M39.7609 37.5909L36.5458 39.3535L37.168 39.4564L37.2975 40.529L40.2471 42.0632L41.6085 42.8894L42.9698 43.7155L44.4446 44.5416L45.6926 45.1507L46.827 45.6092L47.6211 45.7629L48.3018 45.8588L49.1865 45.8588L49.4363 45.8398L49.7766 45.7218L49.8901 45.6092L50.117 45.3678L50.3439 44.8957L50.4573 43.7155L50.3439 42.7714L50.2259 42.0632L50.117 41.4732L50.0909 41.3694L50.127 41.2078L50.4649 40.8583L50.7574 40.6071L51.1875 40.2953L51.4742 40.0874L51.8553 39.7757L52.1381 39.4644L52.2324 39.3606L52.4091 38.8427L52.4051 38.7393L52.4012 38.6358L52.3854 38.222L52.2794 38.0155L52.0672 37.6023L51.7717 37.2781L51.6709 37.1625L51.5701 37.0469L51.4693 36.9313L51.1692 36.7027L50.6015 36.5137L50.4546 36.4692L49.3852 36.1581L48.1006 35.9552L46.6239 35.9936L45.0511 36.1528L43.5791 36.4276L42.304 36.6972L41.7157 36.8307L41.1273 36.9643L40.4429 37.2185L39.7609 37.5909Z" fill="url(#paint4_linear_450_6705)"/>
<path d="M36.5458 39.3535L36.4068 39.0891L35.6393 39.5099L36.4928 39.651L36.5458 39.3535ZM39.7609 37.5909L39.6224 37.3263L39.6219 37.3265L39.7609 37.5909ZM37.168 39.4564L37.4644 39.4149L37.4378 39.1947L37.2211 39.1588L37.168 39.4564ZM37.2975 40.529L37.0011 40.5705L37.0199 40.726L37.1572 40.7975L37.2975 40.529ZM40.2471 42.0632L40.4041 41.8042L40.3959 41.7992L40.3874 41.7948L40.2471 42.0632ZM41.6085 42.8894L41.7654 42.6303L41.6085 42.8894ZM42.9698 43.7155L42.8128 43.9747L42.8216 43.9797L42.9698 43.7155ZM44.4446 44.5416L44.2964 44.8058L44.3036 44.8098L44.311 44.8135L44.4446 44.5416ZM45.6926 45.1507L45.5589 45.4225L45.5681 45.427L45.5776 45.4308L45.6926 45.1507ZM46.827 45.6092L46.712 45.8893L46.7382 45.8999L46.766 45.9053L46.827 45.6092ZM47.6211 45.7629L47.5601 46.059L47.5675 46.0604L47.575 46.0615L47.6211 45.7629ZM48.3018 45.8588L48.2557 46.1574L48.2761 46.1603L48.2968 46.1603L48.3018 45.8588ZM49.1865 45.8588L49.1815 46.1603L49.1927 46.1603L49.2039 46.1594L49.1865 45.8588ZM49.4363 45.8398L49.4537 46.1404L49.4922 46.1375L49.529 46.1248L49.4363 45.8398ZM49.7766 45.7218L49.8693 46.0067L49.9347 45.9841L49.9841 45.935L49.7766 45.7218ZM49.8901 45.6092L50.0977 45.8225L50.105 45.8147L49.8901 45.6092ZM50.117 45.3678L50.3319 45.5733L50.3645 45.5386L50.3851 45.4956L50.117 45.3678ZM50.3439 44.8957L50.612 45.0236L50.6358 44.9741L50.641 44.9198L50.3439 44.8957ZM50.4573 43.7155L50.7545 43.7396L50.7576 43.7068L50.7537 43.6742L50.4573 43.7155ZM50.3439 42.7714L50.6406 42.73L50.6383 42.7164L50.3439 42.7714ZM50.2259 42.0632L50.5203 42.0083L50.5194 42.0032L50.2259 42.0632ZM50.117 41.4732L50.4105 41.4131L50.4088 41.4036L50.4064 41.3943L50.117 41.4732ZM50.0909 41.3694L49.7997 41.3078L49.7839 41.3785L49.8014 41.4483L50.0909 41.3694ZM50.127 41.2078L49.9152 40.9991L49.8548 41.0615L49.8359 41.1461L50.127 41.2078ZM50.4649 40.8583L50.2737 40.6301L50.263 40.6394L50.2531 40.6496L50.4649 40.8583ZM50.7574 40.6071L50.586 40.3633L50.5758 40.3707L50.5662 40.3789L50.7574 40.6071ZM51.1875 40.2953L51.0161 40.0514L51.0161 40.0515L51.1875 40.2953ZM51.4742 40.0874L51.6456 40.3313L51.6529 40.326L51.6598 40.3204L51.4742 40.0874ZM51.8553 39.7757L52.0408 40.0087L52.0584 39.9943L52.0737 39.9774L51.8553 39.7757ZM52.1381 39.4644L51.9196 39.2627L51.9196 39.2627L52.1381 39.4644ZM52.2324 39.3606L52.4508 39.5623L52.4938 39.515L52.5145 39.4545L52.2324 39.3606ZM52.4091 38.8427L52.6912 38.9366L52.7096 38.8827L52.7074 38.8261L52.4091 38.8427ZM52.4051 38.7393L52.7035 38.7226L52.7035 38.7226L52.4051 38.7393ZM52.4012 38.6358L52.6995 38.6192L52.6995 38.6191L52.4012 38.6358ZM52.3854 38.222L52.6838 38.2054L52.6812 38.1386L52.651 38.0797L52.3854 38.222ZM52.2794 38.0155L52.5449 37.8731L52.5449 37.8731L52.2794 38.0155ZM52.0672 37.6023L52.3327 37.46L52.3148 37.4251L52.2885 37.3962L52.0672 37.6023ZM51.7717 37.2781L51.5462 37.4795L51.5505 37.4842L51.7717 37.2781ZM51.6709 37.1625L51.4454 37.3639L51.4454 37.3639L51.6709 37.1625ZM51.5701 37.0469L51.7956 36.8455L51.7956 36.8455L51.5701 37.0469ZM51.4693 36.9313L51.6948 36.7299L51.6752 36.7075L51.6516 36.6895L51.4693 36.9313ZM51.1692 36.7027L51.3515 36.4609L51.313 36.4316L51.267 36.4163L51.1692 36.7027ZM50.6015 36.5137L50.6994 36.2272L50.6917 36.2248L50.6015 36.5137ZM50.4546 36.4692L50.5447 36.1803L50.5417 36.1794L50.4546 36.4692ZM49.3852 36.1581L49.4723 35.8684L49.4546 35.8632L49.4362 35.8603L49.3852 36.1581ZM48.1006 35.9552L48.1516 35.6573L48.125 35.6531L48.098 35.6538L48.1006 35.9552ZM46.6239 35.9936L46.6212 35.6923L46.6101 35.6926L46.5991 35.6937L46.6239 35.9936ZM45.0511 36.1528L45.0263 35.8529L45.0139 35.8541L45.0016 35.8564L45.0511 36.1528ZM43.5791 36.4276L43.5296 36.1311L43.5226 36.1326L43.5791 36.4276ZM42.304 36.6972L42.2475 36.4022L42.2432 36.4031L42.304 36.6972ZM41.7157 36.8307L41.7764 37.1248L41.7764 37.1248L41.7157 36.8307ZM41.1273 36.9643L41.0666 36.6702L41.0472 36.6746L41.0285 36.6816L41.1273 36.9643ZM40.4429 37.2185L40.3441 36.9358L40.3236 36.9434L40.3044 36.9539L40.4429 37.2185ZM36.6848 39.6179L39.8999 37.8552L39.6219 37.3265L36.4068 39.0891L36.6848 39.6179ZM37.2211 39.1588L36.5989 39.056L36.4928 39.651L37.115 39.7539L37.2211 39.1588ZM36.8717 39.4978L37.0011 40.5705L37.5939 40.4875L37.4644 39.4149L36.8717 39.4978ZM37.1572 40.7975L40.1068 42.3317L40.3874 41.7948L37.4378 40.2605L37.1572 40.7975ZM40.0901 42.3223L41.4515 43.1484L41.7654 42.6303L40.4041 41.8042L40.0901 42.3223ZM41.4515 43.1484L42.8129 43.9746L43.1268 43.4564L41.7654 42.6303L41.4515 43.1484ZM42.8216 43.9797L44.2964 44.8058L44.5928 44.2775L43.118 43.4513L42.8216 43.9797ZM44.311 44.8135L45.5589 45.4225L45.8262 44.8789L44.5782 44.2698L44.311 44.8135ZM45.5776 45.4308L46.712 45.8893L46.942 45.3291L45.8075 44.8706L45.5776 45.4308ZM46.766 45.9053L47.5601 46.059L47.6821 45.4668L46.888 45.3131L46.766 45.9053ZM47.575 46.0615L48.2557 46.1574L48.348 45.5603L47.6673 45.4644L47.575 46.0615ZM48.2968 46.1603L49.1815 46.1603L49.1916 45.5574L48.3069 45.5574L48.2968 46.1603ZM49.2039 46.1594L49.4537 46.1404L49.4189 45.5393L49.1691 45.5583L49.2039 46.1594ZM49.529 46.1248L49.8693 46.0067L49.684 45.4369L49.3436 45.5549L49.529 46.1248ZM49.9841 45.935L50.0976 45.8223L49.6826 45.396L49.5691 45.5087L49.9841 45.935ZM50.105 45.8147L50.3319 45.5733L49.9021 45.1622L49.6752 45.4036L50.105 45.8147ZM50.3851 45.4956L50.612 45.0236L50.0757 44.7678L49.8488 45.2399L50.3851 45.4956ZM50.641 44.9198L50.7545 43.7396L50.1602 43.6914L50.0467 44.8716L50.641 44.9198ZM50.7537 43.6742L50.6403 42.7301L50.0475 42.8127L50.1609 43.7568L50.7537 43.6742ZM50.6383 42.7164L50.5203 42.0083L49.9314 42.1182L50.0494 42.8263L50.6383 42.7164ZM50.5194 42.0032L50.4105 41.4131L49.8234 41.5332L49.9323 42.1233L50.5194 42.0032ZM50.4064 41.3943L50.3803 41.2906L49.8014 41.4483L49.8275 41.552L50.4064 41.3943ZM49.8359 41.1461L49.7997 41.3078L50.382 41.4311L50.4182 41.2694L49.8359 41.1461ZM50.2531 40.6496L49.9152 40.9991L50.3389 41.4165L50.6768 41.067L50.2531 40.6496ZM50.5662 40.3789L50.2737 40.6301L50.6561 41.0865L50.9486 40.8353L50.5662 40.3789ZM51.0161 40.0515L50.586 40.3633L50.9288 40.851L51.3589 40.5391L51.0161 40.0515ZM51.3028 39.8436L51.0161 40.0514L51.3589 40.5391L51.6456 40.3313L51.3028 39.8436ZM51.6697 39.5428L51.2887 39.8545L51.6598 40.3204L52.0408 40.0087L51.6697 39.5428ZM51.9196 39.2627L51.6368 39.574L52.0737 39.9774L52.3565 39.6661L51.9196 39.2627ZM52.0139 39.1589L51.9196 39.2627L52.3565 39.6661L52.4508 39.5623L52.0139 39.1589ZM52.127 38.7489L51.9503 39.2668L52.5145 39.4545L52.6912 38.9366L52.127 38.7489ZM52.1068 38.756L52.1108 38.8594L52.7074 38.8261L52.7035 38.7226L52.1068 38.756ZM52.1029 38.6525L52.1068 38.756L52.7035 38.7226L52.6995 38.6192L52.1029 38.6525ZM52.0871 38.2387L52.1029 38.6525L52.6995 38.6191L52.6838 38.2054L52.0871 38.2387ZM52.0138 38.1578L52.1199 38.3644L52.651 38.0797L52.5449 37.8731L52.0138 38.1578ZM51.8016 37.7446L52.0138 38.1578L52.5449 37.8731L52.3327 37.46L51.8016 37.7446ZM51.5505 37.4842L51.8459 37.8084L52.2885 37.3962L51.993 37.0719L51.5505 37.4842ZM51.4454 37.3639L51.5463 37.4794L51.9972 37.0767L51.8964 36.9611L51.4454 37.3639ZM51.3446 37.2483L51.4454 37.3639L51.8964 36.9611L51.7956 36.8455L51.3446 37.2483ZM51.2438 37.1327L51.3446 37.2483L51.7956 36.8455L51.6948 36.7299L51.2438 37.1327ZM50.9868 36.9445L51.2869 37.1731L51.6516 36.6895L51.3515 36.4609L50.9868 36.9445ZM50.5037 36.8001L51.0713 36.9891L51.267 36.4163L50.6993 36.2273L50.5037 36.8001ZM50.3644 36.7581L50.5113 36.8026L50.6917 36.2248L50.5447 36.1803L50.3644 36.7581ZM49.2981 36.4479L50.3674 36.759L50.5417 36.1794L49.4723 35.8684L49.2981 36.4479ZM48.0496 36.253L49.3342 36.456L49.4362 35.8603L48.1516 35.6573L48.0496 36.253ZM46.6265 36.295L48.1033 36.2565L48.098 35.6538L46.6212 35.6923L46.6265 36.295ZM45.0758 36.4527L46.6487 36.2936L46.5991 35.6937L45.0263 35.8529L45.0758 36.4527ZM43.6285 36.724L45.1005 36.4492L45.0016 35.8564L43.5296 36.1312L43.6285 36.724ZM42.3604 36.9922L43.6355 36.7226L43.5226 36.1326L42.2475 36.4022L42.3604 36.9922ZM41.7764 37.1248L42.3647 36.9912L42.2432 36.4031L41.6549 36.5367L41.7764 37.1248ZM41.1881 37.2583L41.7764 37.1248L41.6549 36.5367L41.0666 36.6702L41.1881 37.2583ZM40.5418 37.5012L41.2262 37.2469L41.0285 36.6816L40.3441 36.9358L40.5418 37.5012ZM39.8995 37.8555L40.5815 37.4831L40.3044 36.9539L39.6224 37.3263L39.8995 37.8555Z" fill="#706DFF" mask="url(#path-17-inside-6_450_6705)"/>
<mask id="path-19-inside-7_450_6705" fill="white">
<path fill-rule="evenodd" clip-rule="evenodd" d="M36.0831 39.8529L36.1395 40.186L36.2902 39.8083L36.8863 39.6798L38.588 38.0275L39.4956 37.2014L40.5166 36.2573L41.0839 35.7852L41.6183 35.3131L42.4967 34.605L43.5797 33.6609L44.4302 32.9527L45.1369 32.3626L46.2134 31.0644L46.8696 29.8843L47.2226 28.6987L47.3006 27.2652L47.0612 26.4967L46.2134 25.659L45.581 25.3776L45.1369 25.2692L44.4302 25.2317L43.7896 25.307L43.3876 25.3332L42.4967 25.4685L41.8808 25.5206L41.7686 25.551L41.4287 25.0795L40.9752 24.3539L40.748 24.0513L40.4077 23.5453L39.9539 23.0732L39.6136 22.8371L39.0463 22.5918H37.9866L37.3417 22.972L36.8908 23.4272L36.4573 24.0513L35.9997 25.3298L35.5904 26.9877L35.3568 28.3059L35.1715 30.0034L35.1406 31.4811L35.1735 32.5993L35.2334 34.2166L35.4054 35.8538L35.9901 39.3043L35.734 39.9282L36.0831 39.8529Z"/>
</mask>
<path fill-rule="evenodd" clip-rule="evenodd" d="M36.0831 39.8529L36.1395 40.186L36.2902 39.8083L36.8863 39.6798L38.588 38.0275L39.4956 37.2014L40.5166 36.2573L41.0839 35.7852L41.6183 35.3131L42.4967 34.605L43.5797 33.6609L44.4302 32.9527L45.1369 32.3626L46.2134 31.0644L46.8696 29.8843L47.2226 28.6987L47.3006 27.2652L47.0612 26.4967L46.2134 25.659L45.581 25.3776L45.1369 25.2692L44.4302 25.2317L43.7896 25.307L43.3876 25.3332L42.4967 25.4685L41.8808 25.5206L41.7686 25.551L41.4287 25.0795L40.9752 24.3539L40.748 24.0513L40.4077 23.5453L39.9539 23.0732L39.6136 22.8371L39.0463 22.5918H37.9866L37.3417 22.972L36.8908 23.4272L36.4573 24.0513L35.9997 25.3298L35.5904 26.9877L35.3568 28.3059L35.1715 30.0034L35.1406 31.4811L35.1735 32.5993L35.2334 34.2166L35.4054 35.8538L35.9901 39.3043L35.734 39.9282L36.0831 39.8529Z" fill="url(#paint5_linear_450_6705)"/>
<path d="M36.1395 40.186L35.8438 40.2361L36.0223 41.2897L36.4182 40.2971L36.1395 40.186ZM36.0831 39.8529L36.3789 39.8028L36.3265 39.4936L36.0199 39.5597L36.0831 39.8529ZM36.2902 39.8083L36.227 39.515L36.0707 39.5487L36.0115 39.6972L36.2902 39.8083ZM36.8863 39.6798L36.9495 39.9731L37.0336 39.9549L37.0953 39.895L36.8863 39.6798ZM38.588 38.0275L38.386 37.8056L38.379 37.8123L38.588 38.0275ZM39.4956 37.2014L39.6975 37.4233L39.6993 37.4217L39.4956 37.2014ZM40.5166 36.2573L40.3247 36.0267L40.3187 36.0317L40.3129 36.037L40.5166 36.2573ZM41.0839 35.7852L41.2758 36.0159L41.2825 36.01L41.0839 35.7852ZM41.6183 35.3131L41.4298 35.0793L41.4197 35.0883L41.6183 35.3131ZM42.4967 34.605L42.6851 34.8387L42.6938 34.8311L42.4967 34.605ZM43.5797 33.6609L43.3877 33.4302L43.3825 33.4347L43.5797 33.6609ZM44.4302 32.9527L44.6222 33.1833L44.6225 33.183L44.4302 32.9527ZM45.1369 32.3626L45.3292 32.5929L45.3503 32.5753L45.3678 32.5541L45.1369 32.3626ZM46.2134 31.0644L46.4443 31.2559L46.462 31.2345L46.4756 31.2102L46.2134 31.0644ZM46.8696 29.8843L47.1318 30.0301L47.1478 30.0013L47.1572 29.9699L46.8696 29.8843ZM47.2226 28.6987L47.5101 28.7843L47.5202 28.7503L47.5221 28.715L47.2226 28.6987ZM47.3006 27.2652L47.6001 27.2815L47.6031 27.2276L47.587 27.176L47.3006 27.2652ZM47.0612 26.4967L47.3476 26.4075L47.3254 26.3359L47.2721 26.2833L47.0612 26.4967ZM46.2134 25.659L46.4242 25.4456L46.3853 25.4072L46.3353 25.385L46.2134 25.659ZM45.581 25.3776L45.7029 25.1035L45.6783 25.0925L45.6521 25.0861L45.581 25.3776ZM45.1369 25.2692L45.208 24.9777L45.1808 24.9711L45.1528 24.9696L45.1369 25.2692ZM44.4302 25.2317L44.4461 24.9321L44.4206 24.9307L44.3952 24.9337L44.4302 25.2317ZM43.7896 25.307L43.8092 25.6063L43.8169 25.6058L43.8246 25.6049L43.7896 25.307ZM43.3876 25.3332L43.3681 25.0339L43.3553 25.0347L43.3426 25.0366L43.3876 25.3332ZM42.4967 25.4685L42.522 25.7674L42.5319 25.7666L42.5417 25.7651L42.4967 25.4685ZM41.8808 25.5206L41.8555 25.2217L41.8285 25.224L41.8024 25.231L41.8808 25.5206ZM41.7686 25.551L41.5253 25.7264L41.6467 25.8947L41.847 25.8406L41.7686 25.551ZM41.4287 25.0795L41.1743 25.2385L41.1796 25.2469L41.1854 25.2549L41.4287 25.0795ZM40.9752 24.3539L41.2296 24.1949L41.2228 24.184L41.2151 24.1737L40.9752 24.3539ZM40.748 24.0513L40.4991 24.2187L40.5034 24.2252L40.5081 24.2315L40.748 24.0513ZM40.4077 23.5453L40.6566 23.3778L40.6421 23.3562L40.624 23.3374L40.4077 23.5453ZM39.9539 23.0732L40.1702 22.8653L40.1495 22.8437L40.1249 22.8267L39.9539 23.0732ZM39.6136 22.8371L39.7845 22.5906L39.76 22.5736L39.7327 22.5618L39.6136 22.8371ZM39.0463 22.5918L39.1654 22.3164L39.1084 22.2918H39.0463V22.5918ZM37.9866 22.5918V22.2918H37.9048L37.8343 22.3334L37.9866 22.5918ZM37.3417 22.972L37.1893 22.7135L37.1558 22.7333L37.1285 22.7609L37.3417 22.972ZM36.8908 23.4272L36.6776 23.2161L36.6592 23.2347L36.6444 23.2561L36.8908 23.4272ZM36.4573 24.0513L36.2109 23.8802L36.1883 23.9128L36.1749 23.9502L36.4573 24.0513ZM35.9997 25.3298L35.7173 25.2287L35.7121 25.2431L35.7085 25.2579L35.9997 25.3298ZM35.5904 26.9877L35.2991 26.9158L35.2967 26.9255L35.295 26.9353L35.5904 26.9877ZM35.3568 28.3059L35.0614 28.2535L35.0596 28.2634L35.0585 28.2733L35.3568 28.3059ZM35.1715 30.0034L34.8732 29.9708L34.8718 29.9839L34.8715 29.9971L35.1715 30.0034ZM35.1406 31.4811L34.8407 31.4748L34.8405 31.4824L34.8408 31.4899L35.1406 31.4811ZM35.1735 32.5993L34.8736 32.6081L34.8737 32.6104L35.1735 32.5993ZM35.2334 34.2166L34.9337 34.2277L34.934 34.2378L34.9351 34.2479L35.2334 34.2166ZM35.4054 35.8538L35.107 35.8851L35.108 35.8945L35.1096 35.9039L35.4054 35.8538ZM35.9901 39.3043L36.2677 39.4182L36.3002 39.3388L36.2859 39.2541L35.9901 39.3043ZM35.734 39.9282L35.4565 39.8143L35.2401 40.3415L35.7973 40.2214L35.734 39.9282ZM36.4353 40.1358L36.3789 39.8028L35.7873 39.9031L35.8438 40.2361L36.4353 40.1358ZM36.0115 39.6972L35.8609 40.0748L36.4182 40.2971L36.5688 39.9194L36.0115 39.6972ZM36.3534 40.1016L36.9495 39.9731L36.8231 39.3865L36.227 39.515L36.3534 40.1016ZM37.0953 39.895L38.797 38.2428L38.379 37.8123L36.6773 39.4646L37.0953 39.895ZM38.79 38.2494L39.6975 37.4233L39.2937 36.9796L38.3861 37.8057L38.79 38.2494ZM39.6993 37.4217L40.7203 36.4775L40.3129 36.037L39.2919 36.9811L39.6993 37.4217ZM40.7085 36.4879L41.2758 36.0158L40.8919 35.5546L40.3247 36.0267L40.7085 36.4879ZM41.2825 36.01L41.8169 35.538L41.4197 35.0883L40.8852 35.5603L41.2825 36.01ZM41.8066 35.5467L42.685 34.8386L42.3084 34.3714L41.43 35.0796L41.8066 35.5467ZM42.6938 34.8311L43.7768 33.887L43.3825 33.4347L42.2995 34.3789L42.6938 34.8311ZM43.7716 33.8914L44.6222 33.1833L44.2383 32.7222L43.3877 33.4303L43.7716 33.8914ZM44.6225 33.183L45.3292 32.5929L44.9446 32.1324L44.2379 32.7225L44.6225 33.183ZM45.3678 32.5541L46.4443 31.2559L45.9824 30.8729L44.9059 32.1712L45.3678 32.5541ZM46.4756 31.2102L47.1318 30.0301L46.6074 29.7385L45.9512 30.9186L46.4756 31.2102ZM47.1572 29.9699L47.5101 28.7843L46.935 28.6131L46.5821 29.7987L47.1572 29.9699ZM47.5221 28.715L47.6001 27.2815L47.001 27.2489L46.923 28.6824L47.5221 28.715ZM47.587 27.176L47.3476 26.4075L46.7748 26.5859L47.0141 27.3544L47.587 27.176ZM47.2721 26.2833L46.4242 25.4456L46.0025 25.8724L46.8504 26.7101L47.2721 26.2833ZM46.3353 25.385L45.7029 25.1035L45.459 25.6517L46.0914 25.9331L46.3353 25.385ZM45.6521 25.0861L45.208 24.9777L45.0657 25.5606L45.5098 25.669L45.6521 25.0861ZM45.1528 24.9696L44.4461 24.9321L44.4143 25.5312L45.121 25.5687L45.1528 24.9696ZM44.3952 24.9337L43.7546 25.009L43.8246 25.6049L44.4652 25.5296L44.3952 24.9337ZM43.77 25.0076L43.3681 25.0339L43.4072 25.6326L43.8092 25.6063L43.77 25.0076ZM43.3426 25.0366L42.4517 25.1719L42.5417 25.7651L43.4326 25.6298L43.3426 25.0366ZM42.4714 25.1695L41.8555 25.2217L41.9061 25.8196L42.522 25.7674L42.4714 25.1695ZM41.8024 25.231L41.6903 25.2614L41.847 25.8406L41.9591 25.8102L41.8024 25.231ZM41.1854 25.2549L41.5253 25.7264L42.012 25.3755L41.6721 24.904L41.1854 25.2549ZM40.7208 24.5129L41.1743 25.2385L41.6831 24.9205L41.2296 24.1949L40.7208 24.5129ZM40.5081 24.2315L40.7353 24.534L41.2151 24.1737L40.9879 23.8712L40.5081 24.2315ZM40.1588 23.7127L40.4991 24.2187L40.997 23.8839L40.6566 23.3778L40.1588 23.7127ZM39.7376 23.2811L40.1914 23.7532L40.624 23.3374L40.1702 22.8653L39.7376 23.2811ZM39.4426 23.0837L39.7829 23.3197L40.1249 22.8267L39.7845 22.5906L39.4426 23.0837ZM38.9272 22.8671L39.4945 23.1125L39.7327 22.5618L39.1654 22.3164L38.9272 22.8671ZM37.9866 22.8918H39.0463V22.2918H37.9866V22.8918ZM37.494 23.2304L38.139 22.8502L37.8343 22.3334L37.1893 22.7135L37.494 23.2304ZM37.1039 23.6383L37.5548 23.1831L37.1285 22.7609L36.6776 23.2161L37.1039 23.6383ZM36.7038 24.2224L37.1372 23.5983L36.6444 23.2561L36.2109 23.8802L36.7038 24.2224ZM36.2822 25.4309L36.7398 24.1524L36.1749 23.9502L35.7173 25.2287L36.2822 25.4309ZM35.8816 27.0596L36.291 25.4017L35.7085 25.2579L35.2991 26.9158L35.8816 27.0596ZM35.6522 28.3582L35.8858 27.04L35.295 26.9353L35.0614 28.2535L35.6522 28.3582ZM35.4697 30.036L35.655 28.3384L35.0585 28.2733L34.8732 29.9708L35.4697 30.036ZM35.4406 31.4873L35.4714 30.0097L34.8715 29.9971L34.8407 31.4748L35.4406 31.4873ZM35.4734 32.5904L35.4405 31.4723L34.8408 31.4899L34.8736 32.6081L35.4734 32.5904ZM35.5332 34.2055L35.4733 32.5881L34.8737 32.6104L34.9337 34.2277L35.5332 34.2055ZM35.7038 35.8224L35.5318 34.1853L34.9351 34.2479L35.107 35.8851L35.7038 35.8224ZM36.2859 39.2541L35.7012 35.8037L35.1096 35.9039L35.6943 39.3544L36.2859 39.2541ZM35.7126 39.1903L35.4565 39.8143L36.0116 40.0421L36.2677 39.4182L35.7126 39.1903ZM35.7973 40.2214L36.1463 40.1462L36.0199 39.5597L35.6708 39.6349L35.7973 40.2214Z" fill="#706DFF" mask="url(#path-19-inside-7_450_6705)"/>
<path d="M36.3134 40.267L35.2275 40.369L34.5729 40.4693L33.9723 40.5693L33.4418 40.6465L31.2863 41.0006L30.4922 41.2366L29.3577 41.8267L28.9039 42.1808L28.1099 43.1249" stroke="#706DFF" stroke-width="0.3"/>
<path d="M36.5028 39.9081L36.6084 41.3638L36.7134 42.2125L36.7567 42.6422L36.8 43.0718L36.9075 43.5347L37.1225 44.4606L37.4018 45.4196L37.6811 46.3787L38.0459 47.2802L38.7327 48.9595" stroke="#706DFF" stroke-width="0.3"/>
<path d="M47.054 40.5306L45.6926 40.1765L44.8852 40.013L44.4796 39.9204L44.074 39.8278L43.6178 39.7882L42.7054 39.709L41.7424 39.6828L40.7794 39.6566L39.842 39.7329L38.0936 39.8823" stroke="#706DFF" stroke-width="0.3"/>
<path d="M30.0386 30.9681L30.3789 32.3842L30.6058 33.0924L30.8327 33.5644L31.0596 34.0365L31.4 34.5086L32.0806 35.4527L32.8748 36.3969L33.6689 37.341L34.5765 38.1672L36.2784 39.7017" stroke="#706DFF" stroke-width="0.3"/>
<path d="M40.4668 28.7695L39.3399 30.9697L38.2054 33.9202L36.3827 39.8633" stroke="#706DFF" stroke-width="0.3"/>
<path d="M37.9432 39.8199C37.9432 40.7856 37.1921 41.5582 36.278 41.5582C35.3639 41.5582 34.6129 40.7856 34.6129 39.8199C34.6129 38.8543 35.3639 38.0816 36.278 38.0816C37.1921 38.0816 37.9432 38.8543 37.9432 39.8199Z" fill="white" stroke="black" stroke-width="0.3"/>
<defs>
<filter id="filter0_d_450_6705" x="20.2998" y="0.349609" width="32.2998" height="32.3008" filterUnits="userSpaceOnUse" color-interpolation-filters="sRGB">
<feFlood flood-opacity="0" result="BackgroundImageFix"/>
<feColorMatrix in="SourceAlpha" type="matrix" values="0 0 0 0 0 0 0 0 0 0 0 0 0 0 0 0 0 0 127 0" result="hardAlpha"/>
<feOffset/>
<feGaussianBlur stdDeviation="2"/>
<feComposite in2="hardAlpha" operator="out"/>
<feColorMatrix type="matrix" values="0 0 0 0 0.709804 0 0 0 0 0.760784 0 0 0 0 0.862745 0 0 0 0.5 0"/>
<feBlend mode="normal" in2="BackgroundImageFix" result="effect1_dropShadow_450_6705"/>
<feBlend mode="normal" in="SourceGraphic" in2="effect1_dropShadow_450_6705" result="shape"/>
</filter>
<linearGradient id="paint0_linear_450_6705" x1="13.3878" y1="15.0371" x2="13.3878" y2="51.0373" gradientUnits="userSpaceOnUse">
<stop stop-color="#FBFCCB"/>
<stop offset="0.253125" stop-color="#FEE383"/>
<stop offset="0.628125" stop-color="#FFA9F1"/>
<stop offset="1" stop-color="#CBE3FF"/>
</linearGradient>
<linearGradient id="paint1_linear_450_6705" x1="25.1281" y1="28.0096" x2="38.1656" y2="34.7173" gradientUnits="userSpaceOnUse">
<stop stop-color="#B0D4F5"/>
<stop offset="0.378125" stop-color="#F3C1EE"/>
<stop offset="0.669792" stop-color="#F9DEC2"/>
<stop offset="1" stop-color="#FFFBA0" stop-opacity="0.57"/>
</linearGradient>
<linearGradient id="paint2_linear_450_6705" x1="24.1698" y1="44.577" x2="36.8593" y2="43.1614" gradientUnits="userSpaceOnUse">
<stop stop-color="#B0D4F5"/>
<stop offset="0.378125" stop-color="#F3C1EE"/>
<stop offset="0.669792" stop-color="#F9DEC2"/>
<stop offset="1" stop-color="#FFFBA0" stop-opacity="0.57"/>
</linearGradient>
<linearGradient id="paint3_linear_450_6705" x1="42.1863" y1="53.0804" x2="32.5279" y2="42.577" gradientUnits="userSpaceOnUse">
<stop stop-color="#B0D4F5"/>
<stop offset="0.378125" stop-color="#F3C1EE"/>
<stop offset="0.669792" stop-color="#F9DEC2"/>
<stop offset="1" stop-color="#FFFBA0" stop-opacity="0.57"/>
</linearGradient>
<linearGradient id="paint4_linear_450_6705" x1="52.6769" y1="39.3698" x2="37.5269" y2="43.2168" gradientUnits="userSpaceOnUse">
<stop stop-color="#B0D4F5"/>
<stop offset="0.378125" stop-color="#F3C1EE"/>
<stop offset="0.669792" stop-color="#F9DEC2"/>
<stop offset="1" stop-color="#FFFBA0" stop-opacity="0.57"/>
</linearGradient>
<linearGradient id="paint5_linear_450_6705" x1="41.2207" y1="22.5918" x2="41.2207" y2="40.186" gradientUnits="userSpaceOnUse">
<stop stop-color="#B0D4F5"/>
<stop offset="0.378125" stop-color="#F3C1EE"/>
<stop offset="0.669792" stop-color="#F9DEC2"/>
<stop offset="1" stop-color="#FFFBA0" stop-opacity="0.57"/>
</linearGradient>
</defs>
</svg>
