<svg width="30" height="32" viewBox="0 0 30 32" fill="none" xmlns="http://www.w3.org/2000/svg">
<path d="M3.89846 24.703L3.10078 24.1H3.10078L3.89846 24.703ZM5.5339 20.0438L4.5339 20.0316V20.0438H5.5339ZM5.56823 17.2268L6.56823 17.2389V17.2268H5.56823ZM26.1103 24.7257L26.9199 24.1387L26.9199 24.1387L26.1103 24.7257ZM24.5364 20.0438L23.5364 20.031V20.0438H24.5364ZM24.5707 17.3663L25.5707 17.3792V17.3663H24.5707ZM4.69615 25.3061C5.61693 24.0882 6.5339 22.2671 6.5339 20.0438H4.5339C4.5339 21.7087 3.8444 23.1164 3.10078 24.1L4.69615 25.3061ZM6.53383 20.056L6.56815 17.2389L4.5683 17.2146L4.53398 20.0316L6.53383 20.056ZM26.9199 24.1387C26.2075 23.1561 25.5364 21.7341 25.5364 20.0438H23.5364C23.5364 22.2684 24.4163 24.0928 25.3007 25.3126L26.9199 24.1387ZM25.5363 20.0566L25.5706 17.3792L23.5708 17.3535L23.5365 20.031L25.5363 20.0566ZM25.5707 17.3663C25.5707 11.5076 20.8425 6.75 15 6.75V8.75C19.729 8.75 23.5707 12.6032 23.5707 17.3663H25.5707ZM25.5375 27.0312C26.3558 27.0312 26.8786 26.4541 27.0935 25.9469C27.3078 25.441 27.3463 24.7268 26.9199 24.1387L25.3007 25.3126C25.2589 25.255 25.2512 25.2051 25.2502 25.1869C25.2493 25.1709 25.2519 25.1669 25.252 25.1667C25.2527 25.165 25.2552 25.1594 25.2618 25.1504C25.2684 25.1415 25.2813 25.1262 25.3032 25.1089C25.3517 25.0707 25.4352 25.0312 25.5375 25.0312V27.0312ZM6.56823 17.2268C6.56823 12.5407 10.3477 8.75 15 8.75V6.75C9.23421 6.75 4.56823 11.4451 4.56823 17.2268H6.56823ZM4.46386 25.0312C4.56882 25.0312 4.65344 25.0724 4.70141 25.1109C4.72301 25.1283 4.73529 25.1433 4.74122 25.1515C4.74718 25.1598 4.7491 25.1645 4.7493 25.165C4.74953 25.1655 4.7495 25.1655 4.74957 25.1658C4.74963 25.1662 4.75038 25.1706 4.74976 25.1795C4.74858 25.1966 4.74043 25.2475 4.69615 25.3061L3.10078 24.1C2.65567 24.6887 2.68962 25.4146 2.89937 25.9251C3.10943 26.4363 3.63217 27.0312 4.46386 27.0312V25.0312ZM25.5375 25.0312H4.46386V27.0312H25.5375V25.0312ZM18.5 26.0312C18.5 27.7491 16.9948 29.25 15 29.25V31.25C17.9758 31.25 20.5 28.9733 20.5 26.0312H18.5ZM15 29.25C13.0052 29.25 11.5 27.7491 11.5 26.0312H9.5C9.5 28.9733 12.0242 31.25 15 31.25V29.25ZM17 4.75C17 5.85457 16.1046 6.75 15 6.75V8.75C17.2091 8.75 19 6.95914 19 4.75H17ZM15 6.75C13.8954 6.75 13 5.85457 13 4.75H11C11 6.95914 12.7909 8.75 15 8.75V6.75ZM13 4.75C13 3.64543 13.8954 2.75 15 2.75V0.75C12.7909 0.75 11 2.54086 11 4.75H13ZM15 2.75C16.1046 2.75 17 3.64543 17 4.75H19C19 2.54086 17.2091 0.75 15 0.75V2.75Z" fill="#706DFF"/>
</svg>
