<svg width="24" height="24" viewBox="0 0 24 24" fill="none" xmlns="http://www.w3.org/2000/svg">
<path d="M11.4946 2.7143C11.7012 2.29575 12.298 2.29575 12.5046 2.7143L15.1786 8.13242C15.2606 8.29863 15.4192 8.41383 15.6026 8.44048L21.5818 9.30932C22.0437 9.37644 22.2282 9.94406 21.8939 10.2698L17.5673 14.4873C17.4346 14.6166 17.374 14.803 17.4053 14.9857L18.4267 20.9408C18.5056 21.4008 18.0228 21.7516 17.6096 21.5345L12.2616 18.7228C12.0976 18.6366 11.9016 18.6366 11.7375 18.7228L6.38953 21.5345C5.9764 21.7516 5.49355 21.4008 5.57245 20.9408L6.59383 14.9857C6.62516 14.803 6.5646 14.6166 6.43187 14.4873L2.10525 10.2698C1.77102 9.94406 1.95545 9.37644 2.41734 9.30932L8.3966 8.44048C8.58001 8.41383 8.73857 8.29863 8.8206 8.13242L11.4946 2.7143Z" stroke="grey" stroke-width="2" stroke-linejoin="round"/>
</svg>
